%TF.GenerationSoftware,KiCad,Pcbnew,9.0.3*%
%TF.CreationDate,2025-08-15T10:29:04+02:00*%
%TF.ProjectId,Controller,436f6e74-726f-46c6-9c65-722e6b696361,1.0*%
%TF.SameCoordinates,Original*%
%TF.FileFunction,Legend,Top*%
%TF.FilePolarity,Positive*%
%FSLAX46Y46*%
G04 Gerber Fmt 4.6, Leading zero omitted, Abs format (unit mm)*
G04 Created by KiCad (PCBNEW 9.0.3) date 2025-08-15 10:29:04*
%MOMM*%
%LPD*%
G01*
G04 APERTURE LIST*
%ADD10C,0.300000*%
%ADD11C,0.150000*%
%ADD12C,0.100000*%
%ADD13C,0.120000*%
G04 APERTURE END LIST*
D10*
X126483082Y-101979400D02*
X126697368Y-102050828D01*
X126697368Y-102050828D02*
X127054510Y-102050828D01*
X127054510Y-102050828D02*
X127197368Y-101979400D01*
X127197368Y-101979400D02*
X127268796Y-101907971D01*
X127268796Y-101907971D02*
X127340225Y-101765114D01*
X127340225Y-101765114D02*
X127340225Y-101622257D01*
X127340225Y-101622257D02*
X127268796Y-101479400D01*
X127268796Y-101479400D02*
X127197368Y-101407971D01*
X127197368Y-101407971D02*
X127054510Y-101336542D01*
X127054510Y-101336542D02*
X126768796Y-101265114D01*
X126768796Y-101265114D02*
X126625939Y-101193685D01*
X126625939Y-101193685D02*
X126554510Y-101122257D01*
X126554510Y-101122257D02*
X126483082Y-100979400D01*
X126483082Y-100979400D02*
X126483082Y-100836542D01*
X126483082Y-100836542D02*
X126554510Y-100693685D01*
X126554510Y-100693685D02*
X126625939Y-100622257D01*
X126625939Y-100622257D02*
X126768796Y-100550828D01*
X126768796Y-100550828D02*
X127125939Y-100550828D01*
X127125939Y-100550828D02*
X127340225Y-100622257D01*
X128840224Y-101907971D02*
X128768796Y-101979400D01*
X128768796Y-101979400D02*
X128554510Y-102050828D01*
X128554510Y-102050828D02*
X128411653Y-102050828D01*
X128411653Y-102050828D02*
X128197367Y-101979400D01*
X128197367Y-101979400D02*
X128054510Y-101836542D01*
X128054510Y-101836542D02*
X127983081Y-101693685D01*
X127983081Y-101693685D02*
X127911653Y-101407971D01*
X127911653Y-101407971D02*
X127911653Y-101193685D01*
X127911653Y-101193685D02*
X127983081Y-100907971D01*
X127983081Y-100907971D02*
X128054510Y-100765114D01*
X128054510Y-100765114D02*
X128197367Y-100622257D01*
X128197367Y-100622257D02*
X128411653Y-100550828D01*
X128411653Y-100550828D02*
X128554510Y-100550828D01*
X128554510Y-100550828D02*
X128768796Y-100622257D01*
X128768796Y-100622257D02*
X128840224Y-100693685D01*
X129268796Y-100550828D02*
X130125939Y-100550828D01*
X129697367Y-102050828D02*
X129697367Y-100550828D01*
X130911653Y-100550828D02*
X131054510Y-100550828D01*
X131054510Y-100550828D02*
X131197367Y-100622257D01*
X131197367Y-100622257D02*
X131268796Y-100693685D01*
X131268796Y-100693685D02*
X131340224Y-100836542D01*
X131340224Y-100836542D02*
X131411653Y-101122257D01*
X131411653Y-101122257D02*
X131411653Y-101479400D01*
X131411653Y-101479400D02*
X131340224Y-101765114D01*
X131340224Y-101765114D02*
X131268796Y-101907971D01*
X131268796Y-101907971D02*
X131197367Y-101979400D01*
X131197367Y-101979400D02*
X131054510Y-102050828D01*
X131054510Y-102050828D02*
X130911653Y-102050828D01*
X130911653Y-102050828D02*
X130768796Y-101979400D01*
X130768796Y-101979400D02*
X130697367Y-101907971D01*
X130697367Y-101907971D02*
X130625938Y-101765114D01*
X130625938Y-101765114D02*
X130554510Y-101479400D01*
X130554510Y-101479400D02*
X130554510Y-101122257D01*
X130554510Y-101122257D02*
X130625938Y-100836542D01*
X130625938Y-100836542D02*
X130697367Y-100693685D01*
X130697367Y-100693685D02*
X130768796Y-100622257D01*
X130768796Y-100622257D02*
X130911653Y-100550828D01*
X132840224Y-102050828D02*
X131983081Y-102050828D01*
X132411652Y-102050828D02*
X132411652Y-100550828D01*
X132411652Y-100550828D02*
X132268795Y-100765114D01*
X132268795Y-100765114D02*
X132125938Y-100907971D01*
X132125938Y-100907971D02*
X131983081Y-100979400D01*
X133340223Y-100550828D02*
X134268795Y-100550828D01*
X134268795Y-100550828D02*
X133768795Y-101122257D01*
X133768795Y-101122257D02*
X133983080Y-101122257D01*
X133983080Y-101122257D02*
X134125938Y-101193685D01*
X134125938Y-101193685D02*
X134197366Y-101265114D01*
X134197366Y-101265114D02*
X134268795Y-101407971D01*
X134268795Y-101407971D02*
X134268795Y-101765114D01*
X134268795Y-101765114D02*
X134197366Y-101907971D01*
X134197366Y-101907971D02*
X134125938Y-101979400D01*
X134125938Y-101979400D02*
X133983080Y-102050828D01*
X133983080Y-102050828D02*
X133554509Y-102050828D01*
X133554509Y-102050828D02*
X133411652Y-101979400D01*
X133411652Y-101979400D02*
X133340223Y-101907971D01*
X107613225Y-100622257D02*
X107470368Y-100550828D01*
X107470368Y-100550828D02*
X107256082Y-100550828D01*
X107256082Y-100550828D02*
X107041796Y-100622257D01*
X107041796Y-100622257D02*
X106898939Y-100765114D01*
X106898939Y-100765114D02*
X106827510Y-100907971D01*
X106827510Y-100907971D02*
X106756082Y-101193685D01*
X106756082Y-101193685D02*
X106756082Y-101407971D01*
X106756082Y-101407971D02*
X106827510Y-101693685D01*
X106827510Y-101693685D02*
X106898939Y-101836542D01*
X106898939Y-101836542D02*
X107041796Y-101979400D01*
X107041796Y-101979400D02*
X107256082Y-102050828D01*
X107256082Y-102050828D02*
X107398939Y-102050828D01*
X107398939Y-102050828D02*
X107613225Y-101979400D01*
X107613225Y-101979400D02*
X107684653Y-101907971D01*
X107684653Y-101907971D02*
X107684653Y-101407971D01*
X107684653Y-101407971D02*
X107398939Y-101407971D01*
X108327510Y-102050828D02*
X108327510Y-100550828D01*
X108327510Y-100550828D02*
X109184653Y-102050828D01*
X109184653Y-102050828D02*
X109184653Y-100550828D01*
X109898939Y-102050828D02*
X109898939Y-100550828D01*
X109898939Y-100550828D02*
X110256082Y-100550828D01*
X110256082Y-100550828D02*
X110470368Y-100622257D01*
X110470368Y-100622257D02*
X110613225Y-100765114D01*
X110613225Y-100765114D02*
X110684654Y-100907971D01*
X110684654Y-100907971D02*
X110756082Y-101193685D01*
X110756082Y-101193685D02*
X110756082Y-101407971D01*
X110756082Y-101407971D02*
X110684654Y-101693685D01*
X110684654Y-101693685D02*
X110613225Y-101836542D01*
X110613225Y-101836542D02*
X110470368Y-101979400D01*
X110470368Y-101979400D02*
X110256082Y-102050828D01*
X110256082Y-102050828D02*
X109898939Y-102050828D01*
X85550828Y-102516918D02*
X84050828Y-102516918D01*
X84050828Y-102516918D02*
X85550828Y-101659775D01*
X85550828Y-101659775D02*
X84050828Y-101659775D01*
X84050828Y-100659774D02*
X84050828Y-100374060D01*
X84050828Y-100374060D02*
X84122257Y-100231203D01*
X84122257Y-100231203D02*
X84265114Y-100088346D01*
X84265114Y-100088346D02*
X84550828Y-100016917D01*
X84550828Y-100016917D02*
X85050828Y-100016917D01*
X85050828Y-100016917D02*
X85336542Y-100088346D01*
X85336542Y-100088346D02*
X85479400Y-100231203D01*
X85479400Y-100231203D02*
X85550828Y-100374060D01*
X85550828Y-100374060D02*
X85550828Y-100659774D01*
X85550828Y-100659774D02*
X85479400Y-100802632D01*
X85479400Y-100802632D02*
X85336542Y-100945489D01*
X85336542Y-100945489D02*
X85050828Y-101016917D01*
X85050828Y-101016917D02*
X84550828Y-101016917D01*
X84550828Y-101016917D02*
X84265114Y-100945489D01*
X84265114Y-100945489D02*
X84122257Y-100802632D01*
X84122257Y-100802632D02*
X84050828Y-100659774D01*
X114790225Y-101979400D02*
X115004511Y-102050828D01*
X115004511Y-102050828D02*
X115361653Y-102050828D01*
X115361653Y-102050828D02*
X115504511Y-101979400D01*
X115504511Y-101979400D02*
X115575939Y-101907971D01*
X115575939Y-101907971D02*
X115647368Y-101765114D01*
X115647368Y-101765114D02*
X115647368Y-101622257D01*
X115647368Y-101622257D02*
X115575939Y-101479400D01*
X115575939Y-101479400D02*
X115504511Y-101407971D01*
X115504511Y-101407971D02*
X115361653Y-101336542D01*
X115361653Y-101336542D02*
X115075939Y-101265114D01*
X115075939Y-101265114D02*
X114933082Y-101193685D01*
X114933082Y-101193685D02*
X114861653Y-101122257D01*
X114861653Y-101122257D02*
X114790225Y-100979400D01*
X114790225Y-100979400D02*
X114790225Y-100836542D01*
X114790225Y-100836542D02*
X114861653Y-100693685D01*
X114861653Y-100693685D02*
X114933082Y-100622257D01*
X114933082Y-100622257D02*
X115075939Y-100550828D01*
X115075939Y-100550828D02*
X115433082Y-100550828D01*
X115433082Y-100550828D02*
X115647368Y-100622257D01*
X116504510Y-102050828D02*
X116361653Y-101979400D01*
X116361653Y-101979400D02*
X116290224Y-101907971D01*
X116290224Y-101907971D02*
X116218796Y-101765114D01*
X116218796Y-101765114D02*
X116218796Y-101336542D01*
X116218796Y-101336542D02*
X116290224Y-101193685D01*
X116290224Y-101193685D02*
X116361653Y-101122257D01*
X116361653Y-101122257D02*
X116504510Y-101050828D01*
X116504510Y-101050828D02*
X116718796Y-101050828D01*
X116718796Y-101050828D02*
X116861653Y-101122257D01*
X116861653Y-101122257D02*
X116933082Y-101193685D01*
X116933082Y-101193685D02*
X117004510Y-101336542D01*
X117004510Y-101336542D02*
X117004510Y-101765114D01*
X117004510Y-101765114D02*
X116933082Y-101907971D01*
X116933082Y-101907971D02*
X116861653Y-101979400D01*
X116861653Y-101979400D02*
X116718796Y-102050828D01*
X116718796Y-102050828D02*
X116504510Y-102050828D01*
X117647367Y-101050828D02*
X117647367Y-102050828D01*
X117647367Y-101193685D02*
X117718796Y-101122257D01*
X117718796Y-101122257D02*
X117861653Y-101050828D01*
X117861653Y-101050828D02*
X118075939Y-101050828D01*
X118075939Y-101050828D02*
X118218796Y-101122257D01*
X118218796Y-101122257D02*
X118290225Y-101265114D01*
X118290225Y-101265114D02*
X118290225Y-102050828D01*
X119647368Y-102050828D02*
X119647368Y-100550828D01*
X119647368Y-101979400D02*
X119504510Y-102050828D01*
X119504510Y-102050828D02*
X119218796Y-102050828D01*
X119218796Y-102050828D02*
X119075939Y-101979400D01*
X119075939Y-101979400D02*
X119004510Y-101907971D01*
X119004510Y-101907971D02*
X118933082Y-101765114D01*
X118933082Y-101765114D02*
X118933082Y-101336542D01*
X118933082Y-101336542D02*
X119004510Y-101193685D01*
X119004510Y-101193685D02*
X119075939Y-101122257D01*
X119075939Y-101122257D02*
X119218796Y-101050828D01*
X119218796Y-101050828D02*
X119504510Y-101050828D01*
X119504510Y-101050828D02*
X119647368Y-101122257D01*
X120933082Y-101979400D02*
X120790225Y-102050828D01*
X120790225Y-102050828D02*
X120504511Y-102050828D01*
X120504511Y-102050828D02*
X120361653Y-101979400D01*
X120361653Y-101979400D02*
X120290225Y-101836542D01*
X120290225Y-101836542D02*
X120290225Y-101265114D01*
X120290225Y-101265114D02*
X120361653Y-101122257D01*
X120361653Y-101122257D02*
X120504511Y-101050828D01*
X120504511Y-101050828D02*
X120790225Y-101050828D01*
X120790225Y-101050828D02*
X120933082Y-101122257D01*
X120933082Y-101122257D02*
X121004511Y-101265114D01*
X121004511Y-101265114D02*
X121004511Y-101407971D01*
X121004511Y-101407971D02*
X120290225Y-101550828D01*
X95546828Y-102445489D02*
X94046828Y-102445489D01*
X94046828Y-102445489D02*
X95546828Y-101588346D01*
X95546828Y-101588346D02*
X94046828Y-101588346D01*
X95403971Y-100016917D02*
X95475400Y-100088345D01*
X95475400Y-100088345D02*
X95546828Y-100302631D01*
X95546828Y-100302631D02*
X95546828Y-100445488D01*
X95546828Y-100445488D02*
X95475400Y-100659774D01*
X95475400Y-100659774D02*
X95332542Y-100802631D01*
X95332542Y-100802631D02*
X95189685Y-100874060D01*
X95189685Y-100874060D02*
X94903971Y-100945488D01*
X94903971Y-100945488D02*
X94689685Y-100945488D01*
X94689685Y-100945488D02*
X94403971Y-100874060D01*
X94403971Y-100874060D02*
X94261114Y-100802631D01*
X94261114Y-100802631D02*
X94118257Y-100659774D01*
X94118257Y-100659774D02*
X94046828Y-100445488D01*
X94046828Y-100445488D02*
X94046828Y-100302631D01*
X94046828Y-100302631D02*
X94118257Y-100088345D01*
X94118257Y-100088345D02*
X94189685Y-100016917D01*
X97656083Y-100693685D02*
X97727511Y-100622257D01*
X97727511Y-100622257D02*
X97870369Y-100550828D01*
X97870369Y-100550828D02*
X98227511Y-100550828D01*
X98227511Y-100550828D02*
X98370369Y-100622257D01*
X98370369Y-100622257D02*
X98441797Y-100693685D01*
X98441797Y-100693685D02*
X98513226Y-100836542D01*
X98513226Y-100836542D02*
X98513226Y-100979400D01*
X98513226Y-100979400D02*
X98441797Y-101193685D01*
X98441797Y-101193685D02*
X97584654Y-102050828D01*
X97584654Y-102050828D02*
X98513226Y-102050828D01*
X99798940Y-101050828D02*
X99798940Y-102050828D01*
X99441797Y-100479400D02*
X99084654Y-101550828D01*
X99084654Y-101550828D02*
X100013225Y-101550828D01*
X100370368Y-100550828D02*
X100870368Y-102050828D01*
X100870368Y-102050828D02*
X101370368Y-100550828D01*
X101870367Y-101479400D02*
X103013225Y-101479400D01*
X102441796Y-102050828D02*
X102441796Y-100907971D01*
X196790225Y-78525828D02*
X196790225Y-77025828D01*
X196790225Y-77025828D02*
X197361654Y-77025828D01*
X197361654Y-77025828D02*
X197504511Y-77097257D01*
X197504511Y-77097257D02*
X197575940Y-77168685D01*
X197575940Y-77168685D02*
X197647368Y-77311542D01*
X197647368Y-77311542D02*
X197647368Y-77525828D01*
X197647368Y-77525828D02*
X197575940Y-77668685D01*
X197575940Y-77668685D02*
X197504511Y-77740114D01*
X197504511Y-77740114D02*
X197361654Y-77811542D01*
X197361654Y-77811542D02*
X196790225Y-77811542D01*
X198290225Y-78525828D02*
X198290225Y-77525828D01*
X198290225Y-77811542D02*
X198361654Y-77668685D01*
X198361654Y-77668685D02*
X198433083Y-77597257D01*
X198433083Y-77597257D02*
X198575940Y-77525828D01*
X198575940Y-77525828D02*
X198718797Y-77525828D01*
X199433082Y-78525828D02*
X199290225Y-78454400D01*
X199290225Y-78454400D02*
X199218796Y-78382971D01*
X199218796Y-78382971D02*
X199147368Y-78240114D01*
X199147368Y-78240114D02*
X199147368Y-77811542D01*
X199147368Y-77811542D02*
X199218796Y-77668685D01*
X199218796Y-77668685D02*
X199290225Y-77597257D01*
X199290225Y-77597257D02*
X199433082Y-77525828D01*
X199433082Y-77525828D02*
X199647368Y-77525828D01*
X199647368Y-77525828D02*
X199790225Y-77597257D01*
X199790225Y-77597257D02*
X199861654Y-77668685D01*
X199861654Y-77668685D02*
X199933082Y-77811542D01*
X199933082Y-77811542D02*
X199933082Y-78240114D01*
X199933082Y-78240114D02*
X199861654Y-78382971D01*
X199861654Y-78382971D02*
X199790225Y-78454400D01*
X199790225Y-78454400D02*
X199647368Y-78525828D01*
X199647368Y-78525828D02*
X199433082Y-78525828D01*
X200575939Y-78525828D02*
X200575939Y-77025828D01*
X200575939Y-77597257D02*
X200718797Y-77525828D01*
X200718797Y-77525828D02*
X201004511Y-77525828D01*
X201004511Y-77525828D02*
X201147368Y-77597257D01*
X201147368Y-77597257D02*
X201218797Y-77668685D01*
X201218797Y-77668685D02*
X201290225Y-77811542D01*
X201290225Y-77811542D02*
X201290225Y-78240114D01*
X201290225Y-78240114D02*
X201218797Y-78382971D01*
X201218797Y-78382971D02*
X201147368Y-78454400D01*
X201147368Y-78454400D02*
X201004511Y-78525828D01*
X201004511Y-78525828D02*
X200718797Y-78525828D01*
X200718797Y-78525828D02*
X200575939Y-78454400D01*
X202504511Y-78454400D02*
X202361654Y-78525828D01*
X202361654Y-78525828D02*
X202075940Y-78525828D01*
X202075940Y-78525828D02*
X201933082Y-78454400D01*
X201933082Y-78454400D02*
X201861654Y-78311542D01*
X201861654Y-78311542D02*
X201861654Y-77740114D01*
X201861654Y-77740114D02*
X201933082Y-77597257D01*
X201933082Y-77597257D02*
X202075940Y-77525828D01*
X202075940Y-77525828D02*
X202361654Y-77525828D01*
X202361654Y-77525828D02*
X202504511Y-77597257D01*
X202504511Y-77597257D02*
X202575940Y-77740114D01*
X202575940Y-77740114D02*
X202575940Y-77882971D01*
X202575940Y-77882971D02*
X201861654Y-78025828D01*
D11*
X142204819Y-94746666D02*
X141728628Y-95079999D01*
X142204819Y-95318094D02*
X141204819Y-95318094D01*
X141204819Y-95318094D02*
X141204819Y-94937142D01*
X141204819Y-94937142D02*
X141252438Y-94841904D01*
X141252438Y-94841904D02*
X141300057Y-94794285D01*
X141300057Y-94794285D02*
X141395295Y-94746666D01*
X141395295Y-94746666D02*
X141538152Y-94746666D01*
X141538152Y-94746666D02*
X141633390Y-94794285D01*
X141633390Y-94794285D02*
X141681009Y-94841904D01*
X141681009Y-94841904D02*
X141728628Y-94937142D01*
X141728628Y-94937142D02*
X141728628Y-95318094D01*
X141204819Y-94413332D02*
X141204819Y-93794285D01*
X141204819Y-93794285D02*
X141585771Y-94127618D01*
X141585771Y-94127618D02*
X141585771Y-93984761D01*
X141585771Y-93984761D02*
X141633390Y-93889523D01*
X141633390Y-93889523D02*
X141681009Y-93841904D01*
X141681009Y-93841904D02*
X141776247Y-93794285D01*
X141776247Y-93794285D02*
X142014342Y-93794285D01*
X142014342Y-93794285D02*
X142109580Y-93841904D01*
X142109580Y-93841904D02*
X142157200Y-93889523D01*
X142157200Y-93889523D02*
X142204819Y-93984761D01*
X142204819Y-93984761D02*
X142204819Y-94270475D01*
X142204819Y-94270475D02*
X142157200Y-94365713D01*
X142157200Y-94365713D02*
X142109580Y-94413332D01*
X196916666Y-67549819D02*
X196916666Y-68264104D01*
X196916666Y-68264104D02*
X196869047Y-68406961D01*
X196869047Y-68406961D02*
X196773809Y-68502200D01*
X196773809Y-68502200D02*
X196630952Y-68549819D01*
X196630952Y-68549819D02*
X196535714Y-68549819D01*
X197916666Y-68549819D02*
X197345238Y-68549819D01*
X197630952Y-68549819D02*
X197630952Y-67549819D01*
X197630952Y-67549819D02*
X197535714Y-67692676D01*
X197535714Y-67692676D02*
X197440476Y-67787914D01*
X197440476Y-67787914D02*
X197345238Y-67835533D01*
X75954819Y-80428094D02*
X74954819Y-80428094D01*
X74954819Y-80428094D02*
X74954819Y-80189999D01*
X74954819Y-80189999D02*
X75002438Y-80047142D01*
X75002438Y-80047142D02*
X75097676Y-79951904D01*
X75097676Y-79951904D02*
X75192914Y-79904285D01*
X75192914Y-79904285D02*
X75383390Y-79856666D01*
X75383390Y-79856666D02*
X75526247Y-79856666D01*
X75526247Y-79856666D02*
X75716723Y-79904285D01*
X75716723Y-79904285D02*
X75811961Y-79951904D01*
X75811961Y-79951904D02*
X75907200Y-80047142D01*
X75907200Y-80047142D02*
X75954819Y-80189999D01*
X75954819Y-80189999D02*
X75954819Y-80428094D01*
X75954819Y-78904285D02*
X75954819Y-79475713D01*
X75954819Y-79189999D02*
X74954819Y-79189999D01*
X74954819Y-79189999D02*
X75097676Y-79285237D01*
X75097676Y-79285237D02*
X75192914Y-79380475D01*
X75192914Y-79380475D02*
X75240533Y-79475713D01*
X74154819Y-83761904D02*
X73154819Y-83761904D01*
X74154819Y-83190476D02*
X73583390Y-83619047D01*
X73154819Y-83190476D02*
X73726247Y-83761904D01*
X129916666Y-90954819D02*
X129916666Y-91669104D01*
X129916666Y-91669104D02*
X129869047Y-91811961D01*
X129869047Y-91811961D02*
X129773809Y-91907200D01*
X129773809Y-91907200D02*
X129630952Y-91954819D01*
X129630952Y-91954819D02*
X129535714Y-91954819D01*
X130821428Y-90954819D02*
X130630952Y-90954819D01*
X130630952Y-90954819D02*
X130535714Y-91002438D01*
X130535714Y-91002438D02*
X130488095Y-91050057D01*
X130488095Y-91050057D02*
X130392857Y-91192914D01*
X130392857Y-91192914D02*
X130345238Y-91383390D01*
X130345238Y-91383390D02*
X130345238Y-91764342D01*
X130345238Y-91764342D02*
X130392857Y-91859580D01*
X130392857Y-91859580D02*
X130440476Y-91907200D01*
X130440476Y-91907200D02*
X130535714Y-91954819D01*
X130535714Y-91954819D02*
X130726190Y-91954819D01*
X130726190Y-91954819D02*
X130821428Y-91907200D01*
X130821428Y-91907200D02*
X130869047Y-91859580D01*
X130869047Y-91859580D02*
X130916666Y-91764342D01*
X130916666Y-91764342D02*
X130916666Y-91526247D01*
X130916666Y-91526247D02*
X130869047Y-91431009D01*
X130869047Y-91431009D02*
X130821428Y-91383390D01*
X130821428Y-91383390D02*
X130726190Y-91335771D01*
X130726190Y-91335771D02*
X130535714Y-91335771D01*
X130535714Y-91335771D02*
X130440476Y-91383390D01*
X130440476Y-91383390D02*
X130392857Y-91431009D01*
X130392857Y-91431009D02*
X130345238Y-91526247D01*
X104689666Y-90954819D02*
X104689666Y-91669104D01*
X104689666Y-91669104D02*
X104642047Y-91811961D01*
X104642047Y-91811961D02*
X104546809Y-91907200D01*
X104546809Y-91907200D02*
X104403952Y-91954819D01*
X104403952Y-91954819D02*
X104308714Y-91954819D01*
X105070619Y-90954819D02*
X105689666Y-90954819D01*
X105689666Y-90954819D02*
X105356333Y-91335771D01*
X105356333Y-91335771D02*
X105499190Y-91335771D01*
X105499190Y-91335771D02*
X105594428Y-91383390D01*
X105594428Y-91383390D02*
X105642047Y-91431009D01*
X105642047Y-91431009D02*
X105689666Y-91526247D01*
X105689666Y-91526247D02*
X105689666Y-91764342D01*
X105689666Y-91764342D02*
X105642047Y-91859580D01*
X105642047Y-91859580D02*
X105594428Y-91907200D01*
X105594428Y-91907200D02*
X105499190Y-91954819D01*
X105499190Y-91954819D02*
X105213476Y-91954819D01*
X105213476Y-91954819D02*
X105118238Y-91907200D01*
X105118238Y-91907200D02*
X105070619Y-91859580D01*
X167069104Y-120749085D02*
X167069104Y-120272895D01*
X167354819Y-120844323D02*
X166354819Y-120510990D01*
X166354819Y-120510990D02*
X167354819Y-120177657D01*
X167354819Y-119320514D02*
X167354819Y-119891942D01*
X167354819Y-119606228D02*
X166354819Y-119606228D01*
X166354819Y-119606228D02*
X166497676Y-119701466D01*
X166497676Y-119701466D02*
X166592914Y-119796704D01*
X166592914Y-119796704D02*
X166640533Y-119891942D01*
X189209819Y-84568094D02*
X188209819Y-84568094D01*
X188209819Y-84568094D02*
X188209819Y-84329999D01*
X188209819Y-84329999D02*
X188257438Y-84187142D01*
X188257438Y-84187142D02*
X188352676Y-84091904D01*
X188352676Y-84091904D02*
X188447914Y-84044285D01*
X188447914Y-84044285D02*
X188638390Y-83996666D01*
X188638390Y-83996666D02*
X188781247Y-83996666D01*
X188781247Y-83996666D02*
X188971723Y-84044285D01*
X188971723Y-84044285D02*
X189066961Y-84091904D01*
X189066961Y-84091904D02*
X189162200Y-84187142D01*
X189162200Y-84187142D02*
X189209819Y-84329999D01*
X189209819Y-84329999D02*
X189209819Y-84568094D01*
X188209819Y-83377618D02*
X188209819Y-83282380D01*
X188209819Y-83282380D02*
X188257438Y-83187142D01*
X188257438Y-83187142D02*
X188305057Y-83139523D01*
X188305057Y-83139523D02*
X188400295Y-83091904D01*
X188400295Y-83091904D02*
X188590771Y-83044285D01*
X188590771Y-83044285D02*
X188828866Y-83044285D01*
X188828866Y-83044285D02*
X189019342Y-83091904D01*
X189019342Y-83091904D02*
X189114580Y-83139523D01*
X189114580Y-83139523D02*
X189162200Y-83187142D01*
X189162200Y-83187142D02*
X189209819Y-83282380D01*
X189209819Y-83282380D02*
X189209819Y-83377618D01*
X189209819Y-83377618D02*
X189162200Y-83472856D01*
X189162200Y-83472856D02*
X189114580Y-83520475D01*
X189114580Y-83520475D02*
X189019342Y-83568094D01*
X189019342Y-83568094D02*
X188828866Y-83615713D01*
X188828866Y-83615713D02*
X188590771Y-83615713D01*
X188590771Y-83615713D02*
X188400295Y-83568094D01*
X188400295Y-83568094D02*
X188305057Y-83520475D01*
X188305057Y-83520475D02*
X188257438Y-83472856D01*
X188257438Y-83472856D02*
X188209819Y-83377618D01*
X104574595Y-84454819D02*
X104574595Y-85264342D01*
X104574595Y-85264342D02*
X104622214Y-85359580D01*
X104622214Y-85359580D02*
X104669833Y-85407200D01*
X104669833Y-85407200D02*
X104765071Y-85454819D01*
X104765071Y-85454819D02*
X104955547Y-85454819D01*
X104955547Y-85454819D02*
X105050785Y-85407200D01*
X105050785Y-85407200D02*
X105098404Y-85359580D01*
X105098404Y-85359580D02*
X105146023Y-85264342D01*
X105146023Y-85264342D02*
X105146023Y-84454819D01*
X106050785Y-84788152D02*
X106050785Y-85454819D01*
X105812690Y-84407200D02*
X105574595Y-85121485D01*
X105574595Y-85121485D02*
X106193642Y-85121485D01*
X198465666Y-101764319D02*
X198465666Y-102478604D01*
X198465666Y-102478604D02*
X198418047Y-102621461D01*
X198418047Y-102621461D02*
X198322809Y-102716700D01*
X198322809Y-102716700D02*
X198179952Y-102764319D01*
X198179952Y-102764319D02*
X198084714Y-102764319D01*
X199370428Y-102097652D02*
X199370428Y-102764319D01*
X199132333Y-101716700D02*
X198894238Y-102430985D01*
X198894238Y-102430985D02*
X199513285Y-102430985D01*
X138454819Y-94746666D02*
X137978628Y-95079999D01*
X138454819Y-95318094D02*
X137454819Y-95318094D01*
X137454819Y-95318094D02*
X137454819Y-94937142D01*
X137454819Y-94937142D02*
X137502438Y-94841904D01*
X137502438Y-94841904D02*
X137550057Y-94794285D01*
X137550057Y-94794285D02*
X137645295Y-94746666D01*
X137645295Y-94746666D02*
X137788152Y-94746666D01*
X137788152Y-94746666D02*
X137883390Y-94794285D01*
X137883390Y-94794285D02*
X137931009Y-94841904D01*
X137931009Y-94841904D02*
X137978628Y-94937142D01*
X137978628Y-94937142D02*
X137978628Y-95318094D01*
X137550057Y-94365713D02*
X137502438Y-94318094D01*
X137502438Y-94318094D02*
X137454819Y-94222856D01*
X137454819Y-94222856D02*
X137454819Y-93984761D01*
X137454819Y-93984761D02*
X137502438Y-93889523D01*
X137502438Y-93889523D02*
X137550057Y-93841904D01*
X137550057Y-93841904D02*
X137645295Y-93794285D01*
X137645295Y-93794285D02*
X137740533Y-93794285D01*
X137740533Y-93794285D02*
X137883390Y-93841904D01*
X137883390Y-93841904D02*
X138454819Y-94413332D01*
X138454819Y-94413332D02*
X138454819Y-93794285D01*
X78954819Y-79836666D02*
X78478628Y-80169999D01*
X78954819Y-80408094D02*
X77954819Y-80408094D01*
X77954819Y-80408094D02*
X77954819Y-80027142D01*
X77954819Y-80027142D02*
X78002438Y-79931904D01*
X78002438Y-79931904D02*
X78050057Y-79884285D01*
X78050057Y-79884285D02*
X78145295Y-79836666D01*
X78145295Y-79836666D02*
X78288152Y-79836666D01*
X78288152Y-79836666D02*
X78383390Y-79884285D01*
X78383390Y-79884285D02*
X78431009Y-79931904D01*
X78431009Y-79931904D02*
X78478628Y-80027142D01*
X78478628Y-80027142D02*
X78478628Y-80408094D01*
X78954819Y-78884285D02*
X78954819Y-79455713D01*
X78954819Y-79169999D02*
X77954819Y-79169999D01*
X77954819Y-79169999D02*
X78097676Y-79265237D01*
X78097676Y-79265237D02*
X78192914Y-79360475D01*
X78192914Y-79360475D02*
X78240533Y-79455713D01*
X85226905Y-63121819D02*
X85226905Y-62121819D01*
X85798333Y-63121819D02*
X85369762Y-62550390D01*
X85798333Y-62121819D02*
X85226905Y-62693247D01*
X86750714Y-63121819D02*
X86179286Y-63121819D01*
X86465000Y-63121819D02*
X86465000Y-62121819D01*
X86465000Y-62121819D02*
X86369762Y-62264676D01*
X86369762Y-62264676D02*
X86274524Y-62359914D01*
X86274524Y-62359914D02*
X86179286Y-62407533D01*
D12*
X138988095Y-73624419D02*
X138988095Y-74433942D01*
X138988095Y-74433942D02*
X139035714Y-74529180D01*
X139035714Y-74529180D02*
X139083333Y-74576800D01*
X139083333Y-74576800D02*
X139178571Y-74624419D01*
X139178571Y-74624419D02*
X139369047Y-74624419D01*
X139369047Y-74624419D02*
X139464285Y-74576800D01*
X139464285Y-74576800D02*
X139511904Y-74529180D01*
X139511904Y-74529180D02*
X139559523Y-74433942D01*
X139559523Y-74433942D02*
X139559523Y-73624419D01*
X140559523Y-74624419D02*
X139988095Y-74624419D01*
X140273809Y-74624419D02*
X140273809Y-73624419D01*
X140273809Y-73624419D02*
X140178571Y-73767276D01*
X140178571Y-73767276D02*
X140083333Y-73862514D01*
X140083333Y-73862514D02*
X139988095Y-73910133D01*
D11*
X80416666Y-92087319D02*
X80416666Y-92801604D01*
X80416666Y-92801604D02*
X80369047Y-92944461D01*
X80369047Y-92944461D02*
X80273809Y-93039700D01*
X80273809Y-93039700D02*
X80130952Y-93087319D01*
X80130952Y-93087319D02*
X80035714Y-93087319D01*
X81369047Y-92087319D02*
X80892857Y-92087319D01*
X80892857Y-92087319D02*
X80845238Y-92563509D01*
X80845238Y-92563509D02*
X80892857Y-92515890D01*
X80892857Y-92515890D02*
X80988095Y-92468271D01*
X80988095Y-92468271D02*
X81226190Y-92468271D01*
X81226190Y-92468271D02*
X81321428Y-92515890D01*
X81321428Y-92515890D02*
X81369047Y-92563509D01*
X81369047Y-92563509D02*
X81416666Y-92658747D01*
X81416666Y-92658747D02*
X81416666Y-92896842D01*
X81416666Y-92896842D02*
X81369047Y-92992080D01*
X81369047Y-92992080D02*
X81321428Y-93039700D01*
X81321428Y-93039700D02*
X81226190Y-93087319D01*
X81226190Y-93087319D02*
X80988095Y-93087319D01*
X80988095Y-93087319D02*
X80892857Y-93039700D01*
X80892857Y-93039700D02*
X80845238Y-92992080D01*
X117666666Y-90954819D02*
X117666666Y-91669104D01*
X117666666Y-91669104D02*
X117619047Y-91811961D01*
X117619047Y-91811961D02*
X117523809Y-91907200D01*
X117523809Y-91907200D02*
X117380952Y-91954819D01*
X117380952Y-91954819D02*
X117285714Y-91954819D01*
X118095238Y-91050057D02*
X118142857Y-91002438D01*
X118142857Y-91002438D02*
X118238095Y-90954819D01*
X118238095Y-90954819D02*
X118476190Y-90954819D01*
X118476190Y-90954819D02*
X118571428Y-91002438D01*
X118571428Y-91002438D02*
X118619047Y-91050057D01*
X118619047Y-91050057D02*
X118666666Y-91145295D01*
X118666666Y-91145295D02*
X118666666Y-91240533D01*
X118666666Y-91240533D02*
X118619047Y-91383390D01*
X118619047Y-91383390D02*
X118047619Y-91954819D01*
X118047619Y-91954819D02*
X118666666Y-91954819D01*
X76904761Y-67850057D02*
X76809523Y-67802438D01*
X76809523Y-67802438D02*
X76714285Y-67707200D01*
X76714285Y-67707200D02*
X76571428Y-67564342D01*
X76571428Y-67564342D02*
X76476190Y-67516723D01*
X76476190Y-67516723D02*
X76380952Y-67516723D01*
X76428571Y-67754819D02*
X76333333Y-67707200D01*
X76333333Y-67707200D02*
X76238095Y-67611961D01*
X76238095Y-67611961D02*
X76190476Y-67421485D01*
X76190476Y-67421485D02*
X76190476Y-67088152D01*
X76190476Y-67088152D02*
X76238095Y-66897676D01*
X76238095Y-66897676D02*
X76333333Y-66802438D01*
X76333333Y-66802438D02*
X76428571Y-66754819D01*
X76428571Y-66754819D02*
X76619047Y-66754819D01*
X76619047Y-66754819D02*
X76714285Y-66802438D01*
X76714285Y-66802438D02*
X76809523Y-66897676D01*
X76809523Y-66897676D02*
X76857142Y-67088152D01*
X76857142Y-67088152D02*
X76857142Y-67421485D01*
X76857142Y-67421485D02*
X76809523Y-67611961D01*
X76809523Y-67611961D02*
X76714285Y-67707200D01*
X76714285Y-67707200D02*
X76619047Y-67754819D01*
X76619047Y-67754819D02*
X76428571Y-67754819D01*
X77809523Y-67754819D02*
X77238095Y-67754819D01*
X77523809Y-67754819D02*
X77523809Y-66754819D01*
X77523809Y-66754819D02*
X77428571Y-66897676D01*
X77428571Y-66897676D02*
X77333333Y-66992914D01*
X77333333Y-66992914D02*
X77238095Y-67040533D01*
X146609580Y-90666666D02*
X146657200Y-90714285D01*
X146657200Y-90714285D02*
X146704819Y-90857142D01*
X146704819Y-90857142D02*
X146704819Y-90952380D01*
X146704819Y-90952380D02*
X146657200Y-91095237D01*
X146657200Y-91095237D02*
X146561961Y-91190475D01*
X146561961Y-91190475D02*
X146466723Y-91238094D01*
X146466723Y-91238094D02*
X146276247Y-91285713D01*
X146276247Y-91285713D02*
X146133390Y-91285713D01*
X146133390Y-91285713D02*
X145942914Y-91238094D01*
X145942914Y-91238094D02*
X145847676Y-91190475D01*
X145847676Y-91190475D02*
X145752438Y-91095237D01*
X145752438Y-91095237D02*
X145704819Y-90952380D01*
X145704819Y-90952380D02*
X145704819Y-90857142D01*
X145704819Y-90857142D02*
X145752438Y-90714285D01*
X145752438Y-90714285D02*
X145800057Y-90666666D01*
X146704819Y-89714285D02*
X146704819Y-90285713D01*
X146704819Y-89999999D02*
X145704819Y-89999999D01*
X145704819Y-89999999D02*
X145847676Y-90095237D01*
X145847676Y-90095237D02*
X145942914Y-90190475D01*
X145942914Y-90190475D02*
X145990533Y-90285713D01*
D13*
%TO.C,R3*%
X140380000Y-91310000D02*
X140380000Y-97850000D01*
X140380000Y-97850000D02*
X143120000Y-97850000D01*
X141750000Y-90540000D02*
X141750000Y-91310000D01*
X141750000Y-98620000D02*
X141750000Y-97850000D01*
X143120000Y-91310000D02*
X140380000Y-91310000D01*
X143120000Y-97850000D02*
X143120000Y-91310000D01*
%TO.C,J1*%
X195870000Y-69095000D02*
X197250000Y-69095000D01*
X195870000Y-70475000D02*
X195870000Y-69095000D01*
X195870000Y-71745000D02*
X195870000Y-74395000D01*
X195870000Y-71745000D02*
X198630000Y-71745000D01*
X195870000Y-74395000D02*
X198630000Y-74395000D01*
X198630000Y-71745000D02*
X198630000Y-74395000D01*
%TO.C,D1*%
X74380000Y-77570000D02*
X74380000Y-81810000D01*
X74380000Y-80970000D02*
X76620000Y-80970000D01*
X74380000Y-81090000D02*
X76620000Y-81090000D01*
X74380000Y-81210000D02*
X76620000Y-81210000D01*
X74380000Y-81810000D02*
X76620000Y-81810000D01*
X75500000Y-76920000D02*
X75500000Y-77570000D01*
X75500000Y-82460000D02*
X75500000Y-81810000D01*
X76620000Y-77570000D02*
X74380000Y-77570000D01*
X76620000Y-81810000D02*
X76620000Y-77570000D01*
%TO.C,J6*%
X125130000Y-88880000D02*
X125130000Y-98120000D01*
X125130000Y-88880000D02*
X135370000Y-88880000D01*
X125130000Y-96500000D02*
X135370000Y-96500000D01*
X125130000Y-98120000D02*
X127450000Y-98120000D01*
X128050000Y-98120000D02*
X135370000Y-98120000D01*
X135370000Y-88880000D02*
X135370000Y-98120000D01*
X128650000Y-91000000D02*
G75*
G02*
X126850000Y-91000000I-900000J0D01*
G01*
X126850000Y-91000000D02*
G75*
G02*
X128650000Y-91000000I900000J0D01*
G01*
X133650000Y-91000000D02*
G75*
G02*
X131850000Y-91000000I-900000J0D01*
G01*
X131850000Y-91000000D02*
G75*
G02*
X133650000Y-91000000I900000J0D01*
G01*
X128190000Y-98730000D02*
X127310000Y-98730000D01*
X127750000Y-98120000D01*
X128190000Y-98730000D01*
G36*
X128190000Y-98730000D02*
G01*
X127310000Y-98730000D01*
X127750000Y-98120000D01*
X128190000Y-98730000D01*
G37*
%TO.C,J3*%
X99903000Y-88880000D02*
X99903000Y-98120000D01*
X99903000Y-88880000D02*
X110143000Y-88880000D01*
X99903000Y-96500000D02*
X110143000Y-96500000D01*
X99903000Y-98120000D02*
X102223000Y-98120000D01*
X102823000Y-98120000D02*
X110143000Y-98120000D01*
X110143000Y-88880000D02*
X110143000Y-98120000D01*
X103423000Y-91000000D02*
G75*
G02*
X101623000Y-91000000I-900000J0D01*
G01*
X101623000Y-91000000D02*
G75*
G02*
X103423000Y-91000000I900000J0D01*
G01*
X108423000Y-91000000D02*
G75*
G02*
X106623000Y-91000000I-900000J0D01*
G01*
X106623000Y-91000000D02*
G75*
G02*
X108423000Y-91000000I900000J0D01*
G01*
X102963000Y-98730000D02*
X102083000Y-98730000D01*
X102523000Y-98120000D01*
X102963000Y-98730000D01*
G36*
X102963000Y-98730000D02*
G01*
X102083000Y-98730000D01*
X102523000Y-98120000D01*
X102963000Y-98730000D01*
G37*
D11*
%TO.C,A1*%
X168000000Y-124034800D02*
X168000000Y-67034800D01*
X190750000Y-64784800D02*
X170250000Y-64784800D01*
X190750000Y-126284800D02*
X170250000Y-126284800D01*
X193000000Y-124034800D02*
X193000000Y-67034800D01*
X168000000Y-67034800D02*
G75*
G02*
X170250000Y-64784800I2250000J0D01*
G01*
X170250000Y-126284800D02*
G75*
G02*
X168000000Y-124034800I0J2250000D01*
G01*
X190750000Y-64784800D02*
G75*
G02*
X193000000Y-67034800I0J-2250000D01*
G01*
X193000000Y-124034800D02*
G75*
G02*
X190750000Y-126284800I-2250000J0D01*
G01*
D13*
%TO.C,U4*%
X99067500Y-81932500D02*
X99067500Y-84382500D01*
X99067500Y-84382500D02*
X101397500Y-84382500D01*
X99397500Y-76202500D02*
X111337500Y-76202500D01*
X99397500Y-84052500D02*
X99397500Y-76202500D01*
X111337500Y-76202500D02*
X111337500Y-84052500D01*
X111337500Y-84052500D02*
X99397500Y-84052500D01*
%TO.C,J4*%
X196530000Y-97847500D02*
X196530000Y-84927500D01*
X199180000Y-95197500D02*
X199180000Y-97847500D01*
X199180000Y-97847500D02*
X196530000Y-97847500D01*
X201830000Y-84927500D02*
X196530000Y-84927500D01*
X201830000Y-95197500D02*
X199180000Y-95197500D01*
X201830000Y-95197500D02*
X201830000Y-84927500D01*
X201830000Y-96467500D02*
X201830000Y-97847500D01*
X201830000Y-97864500D02*
X200450000Y-97864500D01*
X204196500Y-101484000D02*
X194163500Y-101484000D01*
X194163500Y-81291000D01*
X204196500Y-81291000D01*
X204196500Y-101484000D01*
%TO.C,R2*%
X136630000Y-91310000D02*
X136630000Y-97850000D01*
X136630000Y-97850000D02*
X139370000Y-97850000D01*
X138000000Y-90540000D02*
X138000000Y-91310000D01*
X138000000Y-98620000D02*
X138000000Y-97850000D01*
X139370000Y-91310000D02*
X136630000Y-91310000D01*
X139370000Y-97850000D02*
X139370000Y-91310000D01*
%TO.C,R1*%
X77130000Y-76400000D02*
X77130000Y-82940000D01*
X77130000Y-82940000D02*
X79870000Y-82940000D01*
X78500000Y-75630000D02*
X78500000Y-76400000D01*
X78500000Y-83710000D02*
X78500000Y-82940000D01*
X79870000Y-76400000D02*
X77130000Y-76400000D01*
X79870000Y-82940000D02*
X79870000Y-76400000D01*
%TO.C,K1*%
X81867500Y-67317000D02*
X81867500Y-69617000D01*
X82107500Y-84167000D02*
X82107500Y-65157000D01*
X83817500Y-70167000D02*
X83817500Y-72467000D01*
X85517500Y-80667000D02*
X87817500Y-80667000D01*
X86117500Y-75967000D02*
X86117500Y-69067000D01*
X88317500Y-69967000D02*
X91317500Y-69967000D01*
X88317500Y-72467000D02*
X83817500Y-72467000D01*
X88317500Y-74967000D02*
X88317500Y-69967000D01*
X88317500Y-74967000D02*
X91317500Y-69967000D01*
X88617500Y-65157000D02*
X82107500Y-65157000D01*
X89817500Y-69067000D02*
X86117500Y-69067000D01*
X89817500Y-69067000D02*
X89817500Y-68167000D01*
X89817500Y-75967000D02*
X86117500Y-75967000D01*
X89817500Y-75967000D02*
X89817500Y-77467000D01*
X89817500Y-77467000D02*
X92517500Y-81967000D01*
X91317500Y-69967000D02*
X91317500Y-74967000D01*
X91317500Y-74967000D02*
X88317500Y-74967000D01*
X94117500Y-80667000D02*
X91817500Y-80667000D01*
X95817500Y-72467000D02*
X91317500Y-72467000D01*
X95817500Y-72467000D02*
X95817500Y-70167000D01*
X97527500Y-65157000D02*
X91017500Y-65157000D01*
X97527500Y-65157000D02*
X97527500Y-84177000D01*
X97527500Y-84177000D02*
X82107500Y-84177000D01*
%TO.C,U1*%
D12*
X123750000Y-61967000D02*
X165750000Y-61967000D01*
X165750000Y-87367000D01*
X123750000Y-87367000D01*
X123750000Y-61967000D01*
D13*
%TO.C,J5*%
X82130000Y-88880000D02*
X82130000Y-98120000D01*
X82130000Y-88880000D02*
X97370000Y-88880000D01*
X82130000Y-96500000D02*
X97370000Y-96500000D01*
X82130000Y-98120000D02*
X84450000Y-98120000D01*
X85050000Y-98120000D02*
X97370000Y-98120000D01*
X97370000Y-88880000D02*
X97370000Y-98120000D01*
X85650000Y-91000000D02*
G75*
G02*
X83850000Y-91000000I-900000J0D01*
G01*
X83850000Y-91000000D02*
G75*
G02*
X85650000Y-91000000I900000J0D01*
G01*
X90650000Y-91000000D02*
G75*
G02*
X88850000Y-91000000I-900000J0D01*
G01*
X88850000Y-91000000D02*
G75*
G02*
X90650000Y-91000000I900000J0D01*
G01*
X95650000Y-91000000D02*
G75*
G02*
X93850000Y-91000000I-900000J0D01*
G01*
X93850000Y-91000000D02*
G75*
G02*
X95650000Y-91000000I900000J0D01*
G01*
X85190000Y-98730000D02*
X84310000Y-98730000D01*
X84750000Y-98120000D01*
X85190000Y-98730000D01*
G36*
X85190000Y-98730000D02*
G01*
X84310000Y-98730000D01*
X84750000Y-98120000D01*
X85190000Y-98730000D01*
G37*
%TO.C,J2*%
X112880000Y-88880000D02*
X112880000Y-98120000D01*
X112880000Y-88880000D02*
X123120000Y-88880000D01*
X112880000Y-96500000D02*
X123120000Y-96500000D01*
X112880000Y-98120000D02*
X115200000Y-98120000D01*
X115800000Y-98120000D02*
X123120000Y-98120000D01*
X123120000Y-88880000D02*
X123120000Y-98120000D01*
X116400000Y-91000000D02*
G75*
G02*
X114600000Y-91000000I-900000J0D01*
G01*
X114600000Y-91000000D02*
G75*
G02*
X116400000Y-91000000I900000J0D01*
G01*
X121400000Y-91000000D02*
G75*
G02*
X119600000Y-91000000I-900000J0D01*
G01*
X119600000Y-91000000D02*
G75*
G02*
X121400000Y-91000000I900000J0D01*
G01*
X115940000Y-98730000D02*
X115060000Y-98730000D01*
X115500000Y-98120000D01*
X115940000Y-98730000D01*
G36*
X115940000Y-98730000D02*
G01*
X115060000Y-98730000D01*
X115500000Y-98120000D01*
X115940000Y-98730000D01*
G37*
%TO.C,Q1*%
X75200000Y-72710000D02*
X78800000Y-72710000D01*
X75161522Y-72698478D02*
G75*
G02*
X77000000Y-68259999I1838478J1838478D01*
G01*
X77000000Y-68260000D02*
G75*
G02*
X78838478Y-72698478I0J-2600000D01*
G01*
%TO.C,C1*%
X143670000Y-94460000D02*
X148830000Y-94460000D01*
X143670000Y-94500000D02*
X148830000Y-94500000D01*
X143671000Y-94420000D02*
X148829000Y-94420000D01*
X143673000Y-94380000D02*
X148827000Y-94380000D01*
X143675000Y-94340000D02*
X148825000Y-94340000D01*
X143678000Y-94300000D02*
X148822000Y-94300000D01*
X143681000Y-94260000D02*
X145210000Y-94260000D01*
X143685000Y-94220000D02*
X145210000Y-94220000D01*
X143690000Y-94180000D02*
X145210000Y-94180000D01*
X143695000Y-94140000D02*
X145210000Y-94140000D01*
X143701000Y-94100000D02*
X145210000Y-94100000D01*
X143707000Y-94060000D02*
X145210000Y-94060000D01*
X143714000Y-94020000D02*
X145210000Y-94020000D01*
X143722000Y-93980000D02*
X145210000Y-93980000D01*
X143731000Y-93940000D02*
X145210000Y-93940000D01*
X143740000Y-93900000D02*
X145210000Y-93900000D01*
X143749000Y-93860000D02*
X145210000Y-93860000D01*
X143760000Y-93820000D02*
X145210000Y-93820000D01*
X143771000Y-93780000D02*
X145210000Y-93780000D01*
X143783000Y-93740000D02*
X145210000Y-93740000D01*
X143795000Y-93700000D02*
X145210000Y-93700000D01*
X143808000Y-93660000D02*
X145210000Y-93660000D01*
X143822000Y-93620000D02*
X145210000Y-93620000D01*
X143837000Y-93580000D02*
X145210000Y-93580000D01*
X143852000Y-93540000D02*
X145210000Y-93540000D01*
X143868000Y-93500000D02*
X145210000Y-93500000D01*
X143885000Y-93460000D02*
X145210000Y-93460000D01*
X143903000Y-93420000D02*
X145210000Y-93420000D01*
X143921000Y-93380000D02*
X145210000Y-93380000D01*
X143941000Y-93340000D02*
X145210000Y-93340000D01*
X143961000Y-93300000D02*
X145210000Y-93300000D01*
X143982000Y-93260000D02*
X145210000Y-93260000D01*
X144004000Y-93220000D02*
X145210000Y-93220000D01*
X144027000Y-93180000D02*
X145210000Y-93180000D01*
X144051000Y-93140000D02*
X145210000Y-93140000D01*
X144075000Y-93100000D02*
X145210000Y-93100000D01*
X144101000Y-93060000D02*
X145210000Y-93060000D01*
X144128000Y-93020000D02*
X145210000Y-93020000D01*
X144156000Y-92980000D02*
X145210000Y-92980000D01*
X144185000Y-92940000D02*
X145210000Y-92940000D01*
X144215000Y-92900000D02*
X145210000Y-92900000D01*
X144247000Y-92860000D02*
X145210000Y-92860000D01*
X144280000Y-92820000D02*
X145210000Y-92820000D01*
X144314000Y-92780000D02*
X145210000Y-92780000D01*
X144349000Y-92740000D02*
X145210000Y-92740000D01*
X144386000Y-92700000D02*
X145210000Y-92700000D01*
X144425000Y-92660000D02*
X145210000Y-92660000D01*
X144465000Y-92620000D02*
X145210000Y-92620000D01*
X144507000Y-92580000D02*
X145210000Y-92580000D01*
X144525000Y-97054775D02*
X145025000Y-97054775D01*
X144551000Y-92540000D02*
X145210000Y-92540000D01*
X144598000Y-92500000D02*
X145210000Y-92500000D01*
X144646000Y-92460000D02*
X145210000Y-92460000D01*
X144697000Y-92420000D02*
X145210000Y-92420000D01*
X144751000Y-92380000D02*
X145210000Y-92380000D01*
X144775000Y-97304775D02*
X144775000Y-96804775D01*
X144807000Y-92340000D02*
X145210000Y-92340000D01*
X144867000Y-92300000D02*
X145210000Y-92300000D01*
X144931000Y-92260000D02*
X145210000Y-92260000D01*
X144999000Y-92220000D02*
X145210000Y-92220000D01*
X145073000Y-92180000D02*
X147427000Y-92180000D01*
X145152000Y-92140000D02*
X147348000Y-92140000D01*
X145239000Y-92100000D02*
X147261000Y-92100000D01*
X145336000Y-92060000D02*
X147164000Y-92060000D01*
X145445000Y-92020000D02*
X147055000Y-92020000D01*
X145573000Y-91980000D02*
X146927000Y-91980000D01*
X145733000Y-91940000D02*
X146767000Y-91940000D01*
X145967000Y-91900000D02*
X146533000Y-91900000D01*
X147290000Y-92220000D02*
X147501000Y-92220000D01*
X147290000Y-92260000D02*
X147569000Y-92260000D01*
X147290000Y-92300000D02*
X147633000Y-92300000D01*
X147290000Y-92340000D02*
X147693000Y-92340000D01*
X147290000Y-92380000D02*
X147749000Y-92380000D01*
X147290000Y-92420000D02*
X147803000Y-92420000D01*
X147290000Y-92460000D02*
X147854000Y-92460000D01*
X147290000Y-92500000D02*
X147902000Y-92500000D01*
X147290000Y-92540000D02*
X147949000Y-92540000D01*
X147290000Y-92580000D02*
X147993000Y-92580000D01*
X147290000Y-92620000D02*
X148035000Y-92620000D01*
X147290000Y-92660000D02*
X148075000Y-92660000D01*
X147290000Y-92700000D02*
X148114000Y-92700000D01*
X147290000Y-92740000D02*
X148151000Y-92740000D01*
X147290000Y-92780000D02*
X148186000Y-92780000D01*
X147290000Y-92820000D02*
X148220000Y-92820000D01*
X147290000Y-92860000D02*
X148253000Y-92860000D01*
X147290000Y-92900000D02*
X148285000Y-92900000D01*
X147290000Y-92940000D02*
X148315000Y-92940000D01*
X147290000Y-92980000D02*
X148344000Y-92980000D01*
X147290000Y-93020000D02*
X148372000Y-93020000D01*
X147290000Y-93060000D02*
X148399000Y-93060000D01*
X147290000Y-93100000D02*
X148425000Y-93100000D01*
X147290000Y-93140000D02*
X148449000Y-93140000D01*
X147290000Y-93180000D02*
X148473000Y-93180000D01*
X147290000Y-93220000D02*
X148496000Y-93220000D01*
X147290000Y-93260000D02*
X148518000Y-93260000D01*
X147290000Y-93300000D02*
X148539000Y-93300000D01*
X147290000Y-93340000D02*
X148559000Y-93340000D01*
X147290000Y-93380000D02*
X148579000Y-93380000D01*
X147290000Y-93420000D02*
X148597000Y-93420000D01*
X147290000Y-93460000D02*
X148615000Y-93460000D01*
X147290000Y-93500000D02*
X148632000Y-93500000D01*
X147290000Y-93540000D02*
X148648000Y-93540000D01*
X147290000Y-93580000D02*
X148663000Y-93580000D01*
X147290000Y-93620000D02*
X148678000Y-93620000D01*
X147290000Y-93660000D02*
X148692000Y-93660000D01*
X147290000Y-93700000D02*
X148705000Y-93700000D01*
X147290000Y-93740000D02*
X148717000Y-93740000D01*
X147290000Y-93780000D02*
X148729000Y-93780000D01*
X147290000Y-93820000D02*
X148740000Y-93820000D01*
X147290000Y-93860000D02*
X148751000Y-93860000D01*
X147290000Y-93900000D02*
X148760000Y-93900000D01*
X147290000Y-93940000D02*
X148769000Y-93940000D01*
X147290000Y-93980000D02*
X148778000Y-93980000D01*
X147290000Y-94020000D02*
X148786000Y-94020000D01*
X147290000Y-94060000D02*
X148793000Y-94060000D01*
X147290000Y-94100000D02*
X148799000Y-94100000D01*
X147290000Y-94140000D02*
X148805000Y-94140000D01*
X147290000Y-94180000D02*
X148810000Y-94180000D01*
X147290000Y-94220000D02*
X148815000Y-94220000D01*
X147290000Y-94260000D02*
X148819000Y-94260000D01*
X148870000Y-94500000D02*
G75*
G02*
X143630000Y-94500000I-2620000J0D01*
G01*
X143630000Y-94500000D02*
G75*
G02*
X148870000Y-94500000I2620000J0D01*
G01*
%TD*%
M02*
