%TF.GenerationSoftware,KiCad,Pcbnew,9.0.3*%
%TF.CreationDate,2025-08-15T10:29:04+02:00*%
%TF.ProjectId,Controller,436f6e74-726f-46c6-9c65-722e6b696361,1.0*%
%TF.SameCoordinates,Original*%
%TF.FileFunction,Copper,L1,Top*%
%TF.FilePolarity,Positive*%
%FSLAX46Y46*%
G04 Gerber Fmt 4.6, Leading zero omitted, Abs format (unit mm)*
G04 Created by KiCad (PCBNEW 9.0.3) date 2025-08-15 10:29:04*
%MOMM*%
%LPD*%
G01*
G04 APERTURE LIST*
G04 Aperture macros list*
%AMRoundRect*
0 Rectangle with rounded corners*
0 $1 Rounding radius*
0 $2 $3 $4 $5 $6 $7 $8 $9 X,Y pos of 4 corners*
0 Add a 4 corners polygon primitive as box body*
4,1,4,$2,$3,$4,$5,$6,$7,$8,$9,$2,$3,0*
0 Add four circle primitives for the rounded corners*
1,1,$1+$1,$2,$3*
1,1,$1+$1,$4,$5*
1,1,$1+$1,$6,$7*
1,1,$1+$1,$8,$9*
0 Add four rect primitives between the rounded corners*
20,1,$1+$1,$2,$3,$4,$5,0*
20,1,$1+$1,$4,$5,$6,$7,0*
20,1,$1+$1,$6,$7,$8,$9,0*
20,1,$1+$1,$8,$9,$2,$3,0*%
G04 Aperture macros list end*
%TA.AperFunction,ComponentPad*%
%ADD10C,1.600000*%
%TD*%
%TA.AperFunction,ComponentPad*%
%ADD11O,1.600000X1.600000*%
%TD*%
%TA.AperFunction,ComponentPad*%
%ADD12R,1.700000X1.700000*%
%TD*%
%TA.AperFunction,ComponentPad*%
%ADD13C,1.700000*%
%TD*%
%TA.AperFunction,ComponentPad*%
%ADD14R,1.600000X1.600000*%
%TD*%
%TA.AperFunction,ComponentPad*%
%ADD15RoundRect,0.250000X-1.000000X-1.000000X1.000000X-1.000000X1.000000X1.000000X-1.000000X1.000000X0*%
%TD*%
%TA.AperFunction,ComponentPad*%
%ADD16C,2.500000*%
%TD*%
%TA.AperFunction,ComponentPad*%
%ADD17C,1.727200*%
%TD*%
%TA.AperFunction,ComponentPad*%
%ADD18R,1.727200X1.727200*%
%TD*%
%TA.AperFunction,ComponentPad*%
%ADD19R,1.500000X2.500000*%
%TD*%
%TA.AperFunction,ComponentPad*%
%ADD20O,1.500000X2.500000*%
%TD*%
%TA.AperFunction,ComponentPad*%
%ADD21C,2.400000*%
%TD*%
%TA.AperFunction,ComponentPad*%
%ADD22R,5.000000X3.000000*%
%TD*%
%TA.AperFunction,ComponentPad*%
%ADD23R,1.050000X1.500000*%
%TD*%
%TA.AperFunction,ComponentPad*%
%ADD24O,1.050000X1.500000*%
%TD*%
%TA.AperFunction,Conductor*%
%ADD25C,0.200000*%
%TD*%
G04 APERTURE END LIST*
D10*
%TO.P,R3,1*%
%TO.N,/L*%
X141750000Y-99660000D03*
D11*
%TO.P,R3,2*%
%TO.N,VCC*%
X141750000Y-89500000D03*
%TD*%
D12*
%TO.P,J1,1,Pin_1*%
%TO.N,Net-(A1-A0{slash}DAC)*%
X197250000Y-70475000D03*
D13*
%TO.P,J1,2,Pin_2*%
%TO.N,GND*%
X197250000Y-73015000D03*
%TD*%
D14*
%TO.P,D1,1,K*%
%TO.N,VCC*%
X75500000Y-83500000D03*
D11*
%TO.P,D1,2,A*%
%TO.N,STATE*%
X75500000Y-75880000D03*
%TD*%
D15*
%TO.P,J6,1,Pin_1*%
%TO.N,/L*%
X127750000Y-94000000D03*
D16*
%TO.P,J6,2,Pin_2*%
%TO.N,/K*%
X132750000Y-94000000D03*
%TD*%
D15*
%TO.P,J3,1,Pin_1*%
%TO.N,VCC24*%
X102523000Y-94000000D03*
D16*
%TO.P,J3,2,Pin_2*%
%TO.N,GND*%
X107523000Y-94000000D03*
%TD*%
D17*
%TO.P,A1,3V3,3.3V*%
%TO.N,VCC*%
X170340000Y-99070000D03*
%TO.P,A1,5V,5V*%
%TO.N,unconnected-(A1-Pad5V)*%
X170340000Y-104150000D03*
%TO.P,A1,A0,A0/DAC*%
%TO.N,Net-(A1-A0{slash}DAC)*%
X190660000Y-101610000D03*
%TO.P,A1,A1,A1*%
%TO.N,/K*%
X190660000Y-99070000D03*
%TO.P,A1,A2,A2*%
%TO.N,unconnected-(A1-PadA2)*%
X190660000Y-96530000D03*
%TO.P,A1,A3,A3*%
%TO.N,unconnected-(A1-PadA3)*%
X190660000Y-93990000D03*
%TO.P,A1,A4,A4*%
%TO.N,unconnected-(A1-PadA4)*%
X190660000Y-91450000D03*
%TO.P,A1,A5,A5*%
%TO.N,unconnected-(A1-PadA5)*%
X190660000Y-88910000D03*
%TO.P,A1,A6,A6*%
%TO.N,unconnected-(A1-PadA6)*%
X190660000Y-86370000D03*
%TO.P,A1,AREF,AREF*%
%TO.N,unconnected-(A1-PadAREF)*%
X190660000Y-104150000D03*
%TO.P,A1,D0,D0*%
%TO.N,unconnected-(A1-PadD0)*%
X190660000Y-83830000D03*
%TO.P,A1,D1,D1*%
%TO.N,unconnected-(A1-PadD1)*%
X190660000Y-81290000D03*
%TO.P,A1,D2,D2*%
%TO.N,CS*%
X190660000Y-78750000D03*
%TO.P,A1,D3,D3*%
%TO.N,DC*%
X190660000Y-76210000D03*
%TO.P,A1,D4,D4*%
%TO.N,RST*%
X190660000Y-73670000D03*
%TO.P,A1,D5,D5*%
%TO.N,unconnected-(A1-PadD5)*%
X190660000Y-71130000D03*
%TO.P,A1,D6,D6*%
%TO.N,unconnected-(A1-PadD6)*%
X170340000Y-71130000D03*
%TO.P,A1,D7,D7*%
%TO.N,unconnected-(A1-PadD7)*%
X170340000Y-73670000D03*
%TO.P,A1,D8,D8_MOSI*%
%TO.N,SDA*%
X170340000Y-76210000D03*
%TO.P,A1,D9,D9_SCK*%
%TO.N,SCL*%
X170340000Y-78750000D03*
%TO.P,A1,D10,D10_MISO*%
%TO.N,unconnected-(A1-D10_MISO-PadD10)*%
X170340000Y-81290000D03*
%TO.P,A1,D11,D11/SDA*%
%TO.N,unconnected-(A1-D11{slash}SDA-PadD11)*%
X170340000Y-83830000D03*
%TO.P,A1,D12,D12/SCL*%
%TO.N,unconnected-(A1-D12{slash}SCL-PadD12)*%
X170340000Y-86370000D03*
%TO.P,A1,D13,D13/RX*%
%TO.N,MODE*%
X170340000Y-88910000D03*
%TO.P,A1,D14,D14/TX*%
%TO.N,VALVE*%
X170340000Y-91450000D03*
D18*
%TO.P,A1,GND,GND*%
%TO.N,GND*%
X170340000Y-96530000D03*
D17*
%TO.P,A1,RST,RESET*%
%TO.N,Reset*%
X170340000Y-93990000D03*
%TO.P,A1,VIN,VIN*%
%TO.N,VCC*%
X170340000Y-101610000D03*
%TD*%
D19*
%TO.P,U4,1,Vin*%
%TO.N,VCC24*%
X102817500Y-81932500D03*
D20*
%TO.P,U4,2,GND*%
%TO.N,GND*%
X105357500Y-81932500D03*
%TO.P,U4,3,Vout*%
%TO.N,VCC*%
X107897500Y-81932500D03*
%TD*%
D12*
%TO.P,J4,1,Pin_1*%
%TO.N,GND*%
X200450000Y-96467500D03*
D13*
%TO.P,J4,2,Pin_2*%
%TO.N,VCC*%
X197910000Y-96467500D03*
%TO.P,J4,3,Pin_3*%
%TO.N,MODE*%
X200450000Y-93927500D03*
%TO.P,J4,4,Pin_4*%
%TO.N,Reset*%
X197910000Y-93927500D03*
%TO.P,J4,5,Pin_5*%
%TO.N,STATE*%
X200450000Y-91387500D03*
%TO.P,J4,6,Pin_6*%
%TO.N,CS*%
X197910000Y-91387500D03*
%TO.P,J4,7,Pin_7*%
%TO.N,SCL*%
X200450000Y-88847500D03*
%TO.P,J4,8,Pin_8*%
%TO.N,DC*%
X197910000Y-88847500D03*
%TO.P,J4,9,Pin_9*%
%TO.N,SDA*%
X200450000Y-86307500D03*
%TO.P,J4,10,Pin_10*%
%TO.N,RST*%
X197910000Y-86307500D03*
%TD*%
D10*
%TO.P,R2,1*%
%TO.N,GND*%
X138000000Y-89500000D03*
D11*
%TO.P,R2,2*%
%TO.N,/L*%
X138000000Y-99660000D03*
%TD*%
D10*
%TO.P,R1,1*%
%TO.N,VALVE*%
X78500000Y-84750000D03*
D11*
%TO.P,R1,2*%
%TO.N,Net-(Q1-B)*%
X78500000Y-74590000D03*
%TD*%
D21*
%TO.P,K1,11*%
%TO.N,/Ventil*%
X89817500Y-66467000D03*
%TO.P,K1,12*%
%TO.N,/Zisterne*%
X95817500Y-80667000D03*
%TO.P,K1,14*%
%TO.N,/Hauswasser*%
X83817500Y-80667000D03*
D15*
%TO.P,K1,A1*%
%TO.N,VCC*%
X83817500Y-68467000D03*
D21*
%TO.P,K1,A2*%
%TO.N,STATE*%
X95817500Y-68467000D03*
%TD*%
D22*
%TO.P,U1,1,+*%
%TO.N,/Sonde Output*%
X127304000Y-72000000D03*
%TO.P,U1,2,-*%
%TO.N,GND*%
X127304000Y-77080000D03*
%TO.P,U1,3,VCC*%
%TO.N,VCC24*%
X162356000Y-70095000D03*
%TO.P,U1,4,Vout*%
%TO.N,Net-(A1-A0{slash}DAC)*%
X162356000Y-75175000D03*
%TO.P,U1,5,GND*%
%TO.N,GND*%
X162356000Y-80255000D03*
%TD*%
D15*
%TO.P,J5,1,Pin_1*%
%TO.N,/Hauswasser*%
X84750000Y-94000000D03*
D16*
%TO.P,J5,2,Pin_2*%
%TO.N,/Ventil*%
X89750000Y-94000000D03*
%TO.P,J5,3,Pin_3*%
%TO.N,/Zisterne*%
X94750000Y-94000000D03*
%TD*%
D15*
%TO.P,J2,1,Pin_1*%
%TO.N,VCC24*%
X115500000Y-94000000D03*
D16*
%TO.P,J2,2,Pin_2*%
%TO.N,/Sonde Output*%
X120500000Y-94000000D03*
%TD*%
D23*
%TO.P,Q1,1,C*%
%TO.N,STATE*%
X75730000Y-70860000D03*
D24*
%TO.P,Q1,2,B*%
%TO.N,Net-(Q1-B)*%
X77000000Y-70860000D03*
%TO.P,Q1,3,E*%
%TO.N,GND*%
X78270000Y-70860000D03*
%TD*%
D14*
%TO.P,C1,1*%
%TO.N,/L*%
X146250000Y-95750000D03*
D10*
%TO.P,C1,2*%
%TO.N,GND*%
X146250000Y-93250000D03*
%TD*%
D25*
%TO.N,VCC*%
X107897500Y-84147500D02*
X107897500Y-81932500D01*
X141750000Y-86000000D02*
X167250000Y-86000000D01*
X83817500Y-70567500D02*
X87000000Y-73750000D01*
X170340000Y-101430000D02*
X170340000Y-101610000D01*
X197910000Y-96900000D02*
X197910000Y-96217500D01*
X107897500Y-74602500D02*
X108000000Y-74500000D01*
X109750000Y-86000000D02*
X107897500Y-84147500D01*
X83817500Y-68467000D02*
X83817500Y-70567500D01*
X141750000Y-89500000D02*
X141750000Y-86000000D01*
X168784600Y-87534600D02*
X192284600Y-87534600D01*
X197910000Y-96467500D02*
X199061000Y-95316500D01*
X167250000Y-86000000D02*
X168784600Y-87534600D01*
X199061000Y-95316500D02*
X199061000Y-93450740D01*
X199061000Y-93450740D02*
X198360260Y-92750000D01*
X192284600Y-87534600D02*
X197500000Y-92750000D01*
X141750000Y-86000000D02*
X109750000Y-86000000D01*
X87750000Y-74500000D02*
X87000000Y-73750000D01*
X170340000Y-99070000D02*
X170340000Y-101610000D01*
X108000000Y-74500000D02*
X87750000Y-74500000D01*
X107897500Y-81932500D02*
X107897500Y-74602500D01*
X198360260Y-92750000D02*
X197500000Y-92750000D01*
%TO.N,CS*%
X193394600Y-86872100D02*
X193394600Y-79765400D01*
X193394600Y-79765400D02*
X192379200Y-78750000D01*
X197910000Y-91387500D02*
X193394600Y-86872100D01*
X192379200Y-78750000D02*
X190660000Y-78750000D01*
%TO.N,Net-(A1-A0{slash}DAC)*%
X162356000Y-75175000D02*
X165236400Y-72294600D01*
X199061000Y-91864260D02*
X199061000Y-72286000D01*
X199061000Y-72286000D02*
X197250000Y-70475000D01*
X165236400Y-72294600D02*
X195430400Y-72294600D01*
X201601000Y-93450740D02*
X200926760Y-92776500D01*
X199973240Y-92776500D02*
X199061000Y-91864260D01*
X197609500Y-101610000D02*
X201601000Y-97618500D01*
X201601000Y-97618500D02*
X201601000Y-93450740D01*
X195430400Y-72294600D02*
X197250000Y-70475000D01*
X200926760Y-92776500D02*
X199973240Y-92776500D01*
X190660000Y-101610000D02*
X197609500Y-101610000D01*
%TO.N,/K*%
X132750000Y-94000000D02*
X135750000Y-91000000D01*
X135750000Y-91000000D02*
X153750000Y-91000000D01*
X154500000Y-90250000D02*
X181840000Y-90250000D01*
X181840000Y-90250000D02*
X190660000Y-99070000D01*
X153750000Y-91000000D02*
X154500000Y-90250000D01*
%TO.N,RST*%
X197910000Y-86307500D02*
X197910000Y-80920000D01*
X197910000Y-80920000D02*
X190660000Y-73670000D01*
%TO.N,DC*%
X193861250Y-79411250D02*
X190660000Y-76210000D01*
X193861250Y-84798750D02*
X193861250Y-79411250D01*
X197910000Y-88847500D02*
X193861250Y-84798750D01*
%TO.N,VALVE*%
X132500000Y-97000000D02*
X84539576Y-97000000D01*
X84539576Y-97000000D02*
X78500000Y-90960424D01*
X78500000Y-90960424D02*
X78500000Y-84750000D01*
X170340000Y-91450000D02*
X138050000Y-91450000D01*
X138050000Y-91450000D02*
X132500000Y-97000000D01*
%TO.N,STATE*%
X200450000Y-91387500D02*
X201910000Y-89927500D01*
X189160000Y-58250000D02*
X201910000Y-71000000D01*
X201910000Y-89927500D02*
X201910000Y-71000000D01*
X95817500Y-68467000D02*
X95817500Y-58682500D01*
X88216860Y-58250000D02*
X96250000Y-58250000D01*
X75730000Y-70860000D02*
X75730000Y-70736860D01*
X100410000Y-58250000D02*
X189160000Y-58250000D01*
X75629000Y-70849000D02*
X75629000Y-75639000D01*
X75629000Y-75639000D02*
X75399000Y-75869000D01*
X96250000Y-58250000D02*
X100410000Y-58250000D01*
X95817500Y-58682500D02*
X96250000Y-58250000D01*
X75730000Y-70736860D02*
X88216860Y-58250000D01*
%TO.N,Net-(Q1-B)*%
X76899000Y-73114000D02*
X76899000Y-70849000D01*
X78524000Y-74739000D02*
X76899000Y-73114000D01*
%TD*%
%TA.AperFunction,Conductor*%
%TO.N,GND*%
G36*
X87918296Y-57520185D02*
G01*
X87964051Y-57572989D01*
X87973995Y-57642147D01*
X87944970Y-57705703D01*
X87913257Y-57731887D01*
X87848147Y-57769477D01*
X87848142Y-57769481D01*
X76044442Y-69573181D01*
X75983119Y-69606666D01*
X75956761Y-69609500D01*
X75157129Y-69609500D01*
X75157123Y-69609501D01*
X75097516Y-69615908D01*
X74962671Y-69666202D01*
X74962664Y-69666206D01*
X74847455Y-69752452D01*
X74847452Y-69752455D01*
X74761206Y-69867664D01*
X74761202Y-69867671D01*
X74710908Y-70002517D01*
X74704501Y-70062116D01*
X74704500Y-70062135D01*
X74704500Y-71657870D01*
X74704501Y-71657876D01*
X74710908Y-71717483D01*
X74761202Y-71852328D01*
X74761206Y-71852335D01*
X74847452Y-71967544D01*
X74847455Y-71967547D01*
X74962663Y-72053792D01*
X74962665Y-72053793D01*
X74962669Y-72053796D01*
X74962673Y-72053797D01*
X74963924Y-72054481D01*
X74964940Y-72055497D01*
X74969769Y-72059112D01*
X74969249Y-72059806D01*
X75013331Y-72103885D01*
X75028500Y-72163315D01*
X75028500Y-74584669D01*
X75008815Y-74651708D01*
X74960795Y-74695154D01*
X74818385Y-74767715D01*
X74652786Y-74888028D01*
X74508028Y-75032786D01*
X74387715Y-75198386D01*
X74294781Y-75380776D01*
X74231522Y-75575465D01*
X74199500Y-75777648D01*
X74199500Y-75982351D01*
X74231522Y-76184534D01*
X74294781Y-76379223D01*
X74313194Y-76415359D01*
X74371315Y-76529428D01*
X74387715Y-76561613D01*
X74508028Y-76727213D01*
X74652786Y-76871971D01*
X74807749Y-76984556D01*
X74818390Y-76992287D01*
X74897399Y-77032544D01*
X75000776Y-77085218D01*
X75000778Y-77085218D01*
X75000781Y-77085220D01*
X75042124Y-77098653D01*
X75195465Y-77148477D01*
X75229509Y-77153869D01*
X75397648Y-77180500D01*
X75397649Y-77180500D01*
X75602351Y-77180500D01*
X75602352Y-77180500D01*
X75804534Y-77148477D01*
X75999219Y-77085220D01*
X76181610Y-76992287D01*
X76274590Y-76924732D01*
X76347213Y-76871971D01*
X76347215Y-76871968D01*
X76347219Y-76871966D01*
X76491966Y-76727219D01*
X76491968Y-76727215D01*
X76491971Y-76727213D01*
X76552433Y-76643992D01*
X76612287Y-76561610D01*
X76705220Y-76379219D01*
X76768477Y-76184534D01*
X76800500Y-75982352D01*
X76800500Y-75777648D01*
X76768477Y-75575466D01*
X76754404Y-75532155D01*
X76705218Y-75380776D01*
X76649596Y-75271613D01*
X76612287Y-75198390D01*
X76567427Y-75136645D01*
X76491971Y-75032786D01*
X76347221Y-74888036D01*
X76347219Y-74888034D01*
X76280613Y-74839641D01*
X76237949Y-74784313D01*
X76229500Y-74739325D01*
X76229500Y-73593098D01*
X76235738Y-73571852D01*
X76237318Y-73549765D01*
X76245390Y-73538981D01*
X76249185Y-73526059D01*
X76265916Y-73511560D01*
X76279189Y-73493831D01*
X76291811Y-73489123D01*
X76301989Y-73480304D01*
X76323904Y-73477152D01*
X76344653Y-73469414D01*
X76357814Y-73472276D01*
X76371147Y-73470360D01*
X76391288Y-73479558D01*
X76412926Y-73484265D01*
X76430652Y-73497535D01*
X76434703Y-73499385D01*
X76441166Y-73505402D01*
X76530284Y-73594520D01*
X76530286Y-73594521D01*
X76537356Y-73601591D01*
X77185439Y-74249674D01*
X77218924Y-74310997D01*
X77220231Y-74356753D01*
X77199500Y-74487642D01*
X77199500Y-74692351D01*
X77231522Y-74894534D01*
X77294781Y-75089223D01*
X77387715Y-75271613D01*
X77508028Y-75437213D01*
X77652786Y-75581971D01*
X77807749Y-75694556D01*
X77818390Y-75702287D01*
X77934607Y-75761503D01*
X78000776Y-75795218D01*
X78000778Y-75795218D01*
X78000781Y-75795220D01*
X78105137Y-75829127D01*
X78195465Y-75858477D01*
X78296557Y-75874488D01*
X78397648Y-75890500D01*
X78397649Y-75890500D01*
X78602351Y-75890500D01*
X78602352Y-75890500D01*
X78804534Y-75858477D01*
X78999219Y-75795220D01*
X79181610Y-75702287D01*
X79274590Y-75634732D01*
X79347213Y-75581971D01*
X79347215Y-75581968D01*
X79347219Y-75581966D01*
X79491966Y-75437219D01*
X79491968Y-75437215D01*
X79491971Y-75437213D01*
X79564115Y-75337913D01*
X79612287Y-75271610D01*
X79705220Y-75089219D01*
X79768477Y-74894534D01*
X79800500Y-74692352D01*
X79800500Y-74487648D01*
X79768477Y-74285466D01*
X79756847Y-74249674D01*
X79730837Y-74169622D01*
X79705220Y-74090781D01*
X79705218Y-74090778D01*
X79705218Y-74090776D01*
X79653573Y-73989419D01*
X79612287Y-73908390D01*
X79575346Y-73857544D01*
X79491971Y-73742786D01*
X79347213Y-73598028D01*
X79181613Y-73477715D01*
X79181612Y-73477714D01*
X79181610Y-73477713D01*
X79124653Y-73448691D01*
X78999223Y-73384781D01*
X78804534Y-73321522D01*
X78629995Y-73293878D01*
X78602352Y-73289500D01*
X78397648Y-73289500D01*
X78357211Y-73295904D01*
X78195462Y-73321523D01*
X78086809Y-73356826D01*
X78016968Y-73358821D01*
X77960811Y-73326576D01*
X77535819Y-72901584D01*
X77502334Y-72840261D01*
X77499500Y-72813903D01*
X77499500Y-72050881D01*
X77501735Y-72043266D01*
X77500466Y-72035432D01*
X77511439Y-72010219D01*
X77519185Y-71983842D01*
X77525892Y-71977013D01*
X77528350Y-71971367D01*
X77554602Y-71947783D01*
X77566558Y-71939795D01*
X77633230Y-71918917D01*
X77700611Y-71937399D01*
X77704340Y-71939795D01*
X77784479Y-71993343D01*
X77784486Y-71993347D01*
X77971016Y-72070609D01*
X77971025Y-72070612D01*
X78020000Y-72080353D01*
X78020000Y-71225865D01*
X78020067Y-71221789D01*
X78020400Y-71211638D01*
X78025500Y-71186003D01*
X78025500Y-71145830D01*
X78039745Y-71160075D01*
X78125255Y-71209444D01*
X78220630Y-71235000D01*
X78319370Y-71235000D01*
X78414745Y-71209444D01*
X78500255Y-71160075D01*
X78520000Y-71140330D01*
X78520000Y-72080352D01*
X78568974Y-72070612D01*
X78568983Y-72070609D01*
X78755513Y-71993347D01*
X78755526Y-71993340D01*
X78923399Y-71881170D01*
X78923403Y-71881167D01*
X79066167Y-71738403D01*
X79066170Y-71738399D01*
X79178340Y-71570526D01*
X79178347Y-71570513D01*
X79255609Y-71383983D01*
X79255612Y-71383974D01*
X79294999Y-71185958D01*
X79295000Y-71185955D01*
X79295000Y-71110000D01*
X78550330Y-71110000D01*
X78570075Y-71090255D01*
X78619444Y-71004745D01*
X78645000Y-70909370D01*
X78645000Y-70810630D01*
X78619444Y-70715255D01*
X78570075Y-70629745D01*
X78550330Y-70610000D01*
X79295000Y-70610000D01*
X79295000Y-70534045D01*
X79294999Y-70534041D01*
X79255612Y-70336025D01*
X79255609Y-70336016D01*
X79178347Y-70149486D01*
X79178340Y-70149473D01*
X79066170Y-69981600D01*
X79066167Y-69981596D01*
X78923403Y-69838832D01*
X78923399Y-69838829D01*
X78755526Y-69726659D01*
X78755513Y-69726652D01*
X78568984Y-69649390D01*
X78568977Y-69649388D01*
X78520000Y-69639645D01*
X78520000Y-70579670D01*
X78500255Y-70559925D01*
X78414745Y-70510556D01*
X78319370Y-70485000D01*
X78220630Y-70485000D01*
X78125255Y-70510556D01*
X78039745Y-70559925D01*
X78025500Y-70574170D01*
X78025500Y-70533997D01*
X78022383Y-70518326D01*
X78020000Y-70494134D01*
X78020000Y-69671000D01*
X77929440Y-69641481D01*
X77926281Y-69639317D01*
X77922470Y-69638976D01*
X77897687Y-69619724D01*
X77871802Y-69601989D01*
X77870315Y-69598462D01*
X77867292Y-69596114D01*
X77856850Y-69566516D01*
X77844664Y-69537605D01*
X77845320Y-69533834D01*
X77844047Y-69530225D01*
X77851262Y-69499687D01*
X77856643Y-69468770D01*
X77859233Y-69465952D01*
X77860114Y-69462227D01*
X77880184Y-69435909D01*
X80959316Y-66356778D01*
X88417000Y-66356778D01*
X88417000Y-66577221D01*
X88451485Y-66794952D01*
X88519603Y-67004603D01*
X88519604Y-67004606D01*
X88542764Y-67050058D01*
X88592499Y-67147668D01*
X88619687Y-67201025D01*
X88749252Y-67379358D01*
X88749256Y-67379363D01*
X88905136Y-67535243D01*
X88905141Y-67535247D01*
X88929871Y-67553214D01*
X89083478Y-67664815D01*
X89211875Y-67730237D01*
X89279893Y-67764895D01*
X89279896Y-67764896D01*
X89384721Y-67798955D01*
X89489549Y-67833015D01*
X89707278Y-67867500D01*
X89707279Y-67867500D01*
X89927721Y-67867500D01*
X89927722Y-67867500D01*
X90145451Y-67833015D01*
X90355106Y-67764895D01*
X90551522Y-67664815D01*
X90729865Y-67535242D01*
X90885742Y-67379365D01*
X91015315Y-67201022D01*
X91115395Y-67004606D01*
X91183515Y-66794951D01*
X91218000Y-66577222D01*
X91218000Y-66356778D01*
X91183515Y-66139049D01*
X91115395Y-65929394D01*
X91115395Y-65929393D01*
X91080737Y-65861375D01*
X91015315Y-65732978D01*
X90952983Y-65647185D01*
X90885747Y-65554641D01*
X90885743Y-65554636D01*
X90729863Y-65398756D01*
X90729858Y-65398752D01*
X90551525Y-65269187D01*
X90551524Y-65269186D01*
X90551522Y-65269185D01*
X90488596Y-65237122D01*
X90355106Y-65169104D01*
X90355103Y-65169103D01*
X90145452Y-65100985D01*
X90036586Y-65083742D01*
X89927722Y-65066500D01*
X89707278Y-65066500D01*
X89634701Y-65077995D01*
X89489547Y-65100985D01*
X89279896Y-65169103D01*
X89279893Y-65169104D01*
X89083474Y-65269187D01*
X88905141Y-65398752D01*
X88905136Y-65398756D01*
X88749256Y-65554636D01*
X88749252Y-65554641D01*
X88619687Y-65732974D01*
X88519604Y-65929393D01*
X88519603Y-65929396D01*
X88451485Y-66139047D01*
X88417000Y-66356778D01*
X80959316Y-66356778D01*
X88429277Y-58886819D01*
X88490600Y-58853334D01*
X88516958Y-58850500D01*
X95093000Y-58850500D01*
X95160039Y-58870185D01*
X95205794Y-58922989D01*
X95217000Y-58974500D01*
X95217000Y-66792272D01*
X95197315Y-66859311D01*
X95144511Y-66905066D01*
X95140454Y-66906832D01*
X95063774Y-66938594D01*
X95063772Y-66938595D01*
X94870726Y-67050052D01*
X94870717Y-67050058D01*
X94693877Y-67185751D01*
X94693870Y-67185757D01*
X94536257Y-67343370D01*
X94536251Y-67343377D01*
X94400558Y-67520217D01*
X94400552Y-67520226D01*
X94289095Y-67713273D01*
X94289093Y-67713277D01*
X94203793Y-67919209D01*
X94203790Y-67919219D01*
X94146097Y-68134534D01*
X94146094Y-68134547D01*
X94117001Y-68355533D01*
X94117000Y-68355549D01*
X94117000Y-68578450D01*
X94117001Y-68578466D01*
X94146094Y-68799452D01*
X94146095Y-68799457D01*
X94146096Y-68799463D01*
X94146097Y-68799465D01*
X94203790Y-69014780D01*
X94203793Y-69014790D01*
X94272724Y-69181204D01*
X94289095Y-69220726D01*
X94400552Y-69413774D01*
X94400557Y-69413780D01*
X94400558Y-69413782D01*
X94536251Y-69590622D01*
X94536257Y-69590629D01*
X94693870Y-69748242D01*
X94693877Y-69748248D01*
X94699360Y-69752455D01*
X94870726Y-69883948D01*
X95063774Y-69995405D01*
X95073663Y-69999501D01*
X95224855Y-70062127D01*
X95269719Y-70080710D01*
X95485037Y-70138404D01*
X95706043Y-70167500D01*
X95706050Y-70167500D01*
X95928950Y-70167500D01*
X95928957Y-70167500D01*
X96149963Y-70138404D01*
X96365281Y-70080710D01*
X96571226Y-69995405D01*
X96764274Y-69883948D01*
X96941124Y-69748247D01*
X97098747Y-69590624D01*
X97234448Y-69413774D01*
X97345905Y-69220726D01*
X97431210Y-69014781D01*
X97488904Y-68799463D01*
X97518000Y-68578457D01*
X97518000Y-68355543D01*
X97488904Y-68134537D01*
X97431210Y-67919219D01*
X97429293Y-67914592D01*
X97345906Y-67713277D01*
X97345905Y-67713274D01*
X97234448Y-67520226D01*
X97155234Y-67416992D01*
X97098748Y-67343377D01*
X97098742Y-67343370D01*
X96941129Y-67185757D01*
X96941122Y-67185751D01*
X96764282Y-67050058D01*
X96764280Y-67050057D01*
X96764274Y-67050052D01*
X96731322Y-67031027D01*
X96731321Y-67031026D01*
X96571234Y-66938599D01*
X96571225Y-66938594D01*
X96546888Y-66928513D01*
X168899500Y-66928513D01*
X168899500Y-67141086D01*
X168931539Y-67343377D01*
X168932754Y-67351043D01*
X168992604Y-67535243D01*
X168998444Y-67553214D01*
X169094951Y-67742620D01*
X169219890Y-67914586D01*
X169370213Y-68064909D01*
X169542179Y-68189848D01*
X169542181Y-68189849D01*
X169542184Y-68189851D01*
X169731588Y-68286357D01*
X169933757Y-68352046D01*
X170143713Y-68385300D01*
X170143714Y-68385300D01*
X170356286Y-68385300D01*
X170356287Y-68385300D01*
X170566243Y-68352046D01*
X170768412Y-68286357D01*
X170957816Y-68189851D01*
X171011007Y-68151206D01*
X171129786Y-68064909D01*
X171129788Y-68064906D01*
X171129792Y-68064904D01*
X171280104Y-67914592D01*
X171280106Y-67914588D01*
X171280109Y-67914586D01*
X171405048Y-67742620D01*
X171405047Y-67742620D01*
X171405051Y-67742616D01*
X171501557Y-67553212D01*
X171567246Y-67351043D01*
X171600500Y-67141087D01*
X171600500Y-66928513D01*
X189399500Y-66928513D01*
X189399500Y-67141086D01*
X189431539Y-67343377D01*
X189432754Y-67351043D01*
X189492604Y-67535243D01*
X189498444Y-67553214D01*
X189594951Y-67742620D01*
X189719890Y-67914586D01*
X189870213Y-68064909D01*
X190042179Y-68189848D01*
X190042181Y-68189849D01*
X190042184Y-68189851D01*
X190231588Y-68286357D01*
X190433757Y-68352046D01*
X190643713Y-68385300D01*
X190643714Y-68385300D01*
X190856286Y-68385300D01*
X190856287Y-68385300D01*
X191066243Y-68352046D01*
X191268412Y-68286357D01*
X191457816Y-68189851D01*
X191511007Y-68151206D01*
X191629786Y-68064909D01*
X191629788Y-68064906D01*
X191629792Y-68064904D01*
X191780104Y-67914592D01*
X191780106Y-67914588D01*
X191780109Y-67914586D01*
X191905048Y-67742620D01*
X191905047Y-67742620D01*
X191905051Y-67742616D01*
X192001557Y-67553212D01*
X192067246Y-67351043D01*
X192100500Y-67141087D01*
X192100500Y-66928513D01*
X192067246Y-66718557D01*
X192001557Y-66516388D01*
X191905051Y-66326984D01*
X191905049Y-66326981D01*
X191905048Y-66326979D01*
X191780109Y-66155013D01*
X191629786Y-66004690D01*
X191457820Y-65879751D01*
X191268414Y-65783244D01*
X191268413Y-65783243D01*
X191268412Y-65783243D01*
X191066243Y-65717554D01*
X191066241Y-65717553D01*
X191066240Y-65717553D01*
X190904957Y-65692008D01*
X190856287Y-65684300D01*
X190643713Y-65684300D01*
X190595042Y-65692008D01*
X190433760Y-65717553D01*
X190231585Y-65783244D01*
X190042179Y-65879751D01*
X189870213Y-66004690D01*
X189719890Y-66155013D01*
X189594951Y-66326979D01*
X189498444Y-66516385D01*
X189432753Y-66718560D01*
X189399500Y-66928513D01*
X171600500Y-66928513D01*
X171567246Y-66718557D01*
X171501557Y-66516388D01*
X171405051Y-66326984D01*
X171405049Y-66326981D01*
X171405048Y-66326979D01*
X171280109Y-66155013D01*
X171129786Y-66004690D01*
X170957820Y-65879751D01*
X170768414Y-65783244D01*
X170768413Y-65783243D01*
X170768412Y-65783243D01*
X170566243Y-65717554D01*
X170566241Y-65717553D01*
X170566240Y-65717553D01*
X170404957Y-65692008D01*
X170356287Y-65684300D01*
X170143713Y-65684300D01*
X170095042Y-65692008D01*
X169933760Y-65717553D01*
X169731585Y-65783244D01*
X169542179Y-65879751D01*
X169370213Y-66004690D01*
X169219890Y-66155013D01*
X169094951Y-66326979D01*
X168998444Y-66516385D01*
X168932753Y-66718560D01*
X168899500Y-66928513D01*
X96546888Y-66928513D01*
X96494546Y-66906832D01*
X96440143Y-66862991D01*
X96418079Y-66796696D01*
X96418000Y-66792272D01*
X96418000Y-58982597D01*
X96426644Y-58953156D01*
X96433168Y-58923170D01*
X96436922Y-58918154D01*
X96437685Y-58915558D01*
X96454319Y-58894916D01*
X96462416Y-58886819D01*
X96523739Y-58853334D01*
X96550097Y-58850500D01*
X100330943Y-58850500D01*
X188859903Y-58850500D01*
X188926942Y-58870185D01*
X188947584Y-58886819D01*
X201273181Y-71212416D01*
X201306666Y-71273739D01*
X201309500Y-71300097D01*
X201309500Y-85027386D01*
X201289815Y-85094425D01*
X201237011Y-85140180D01*
X201167853Y-85150124D01*
X201129205Y-85137871D01*
X200968414Y-85055944D01*
X200968413Y-85055943D01*
X200968412Y-85055943D01*
X200766243Y-84990254D01*
X200766241Y-84990253D01*
X200766240Y-84990253D01*
X200604957Y-84964708D01*
X200556287Y-84957000D01*
X200343713Y-84957000D01*
X200295042Y-84964708D01*
X200133760Y-84990253D01*
X200133757Y-84990254D01*
X199935925Y-85054534D01*
X199931582Y-85055945D01*
X199841794Y-85101694D01*
X199773125Y-85114590D01*
X199708385Y-85088313D01*
X199668128Y-85031207D01*
X199661500Y-84991209D01*
X199661500Y-72375060D01*
X199661501Y-72375047D01*
X199661501Y-72206944D01*
X199661501Y-72206943D01*
X199620577Y-72054216D01*
X199585435Y-71993347D01*
X199541524Y-71917290D01*
X199541518Y-71917282D01*
X198636818Y-71012582D01*
X198603333Y-70951259D01*
X198600499Y-70924901D01*
X198600499Y-69577129D01*
X198600498Y-69577123D01*
X198600497Y-69577116D01*
X198594091Y-69517517D01*
X198593904Y-69517016D01*
X198543797Y-69382671D01*
X198543793Y-69382664D01*
X198457547Y-69267455D01*
X198457544Y-69267452D01*
X198342335Y-69181206D01*
X198342328Y-69181202D01*
X198207482Y-69130908D01*
X198207483Y-69130908D01*
X198147883Y-69124501D01*
X198147881Y-69124500D01*
X198147873Y-69124500D01*
X198147864Y-69124500D01*
X196352129Y-69124500D01*
X196352123Y-69124501D01*
X196292516Y-69130908D01*
X196157671Y-69181202D01*
X196157664Y-69181206D01*
X196042455Y-69267452D01*
X196042452Y-69267455D01*
X195956206Y-69382664D01*
X195956202Y-69382671D01*
X195905908Y-69517517D01*
X195903749Y-69537605D01*
X195899501Y-69577123D01*
X195899500Y-69577135D01*
X195899500Y-70924902D01*
X195879815Y-70991941D01*
X195863181Y-71012583D01*
X195217984Y-71657781D01*
X195156661Y-71691266D01*
X195130303Y-71694100D01*
X192081684Y-71694100D01*
X192014645Y-71674415D01*
X191968890Y-71621611D01*
X191958946Y-71552453D01*
X191963753Y-71531782D01*
X191975634Y-71495213D01*
X191990511Y-71449427D01*
X192024100Y-71237357D01*
X192024100Y-71022643D01*
X191990511Y-70810573D01*
X191956788Y-70706783D01*
X191924162Y-70606369D01*
X191924161Y-70606366D01*
X191864076Y-70488443D01*
X191826683Y-70415056D01*
X191700477Y-70241349D01*
X191548651Y-70089523D01*
X191374944Y-69963317D01*
X191183633Y-69865838D01*
X191183630Y-69865837D01*
X190979428Y-69799489D01*
X190873392Y-69782694D01*
X190767357Y-69765900D01*
X190552643Y-69765900D01*
X190481953Y-69777096D01*
X190340571Y-69799489D01*
X190136369Y-69865837D01*
X190136366Y-69865838D01*
X189945055Y-69963317D01*
X189886433Y-70005909D01*
X189771349Y-70089523D01*
X189771347Y-70089525D01*
X189771346Y-70089525D01*
X189619525Y-70241346D01*
X189619525Y-70241347D01*
X189619523Y-70241349D01*
X189584185Y-70289987D01*
X189493317Y-70415055D01*
X189395838Y-70606366D01*
X189395837Y-70606369D01*
X189329489Y-70810571D01*
X189311381Y-70924901D01*
X189295900Y-71022643D01*
X189295900Y-71237357D01*
X189305837Y-71300097D01*
X189329489Y-71449428D01*
X189356247Y-71531782D01*
X189358242Y-71601624D01*
X189322161Y-71661456D01*
X189259460Y-71692284D01*
X189238316Y-71694100D01*
X171761684Y-71694100D01*
X171694645Y-71674415D01*
X171648890Y-71621611D01*
X171638946Y-71552453D01*
X171643753Y-71531782D01*
X171655634Y-71495213D01*
X171670511Y-71449427D01*
X171704100Y-71237357D01*
X171704100Y-71022643D01*
X171670511Y-70810573D01*
X171636788Y-70706783D01*
X171604162Y-70606369D01*
X171604161Y-70606366D01*
X171544076Y-70488443D01*
X171506683Y-70415056D01*
X171380477Y-70241349D01*
X171228651Y-70089523D01*
X171054944Y-69963317D01*
X170863633Y-69865838D01*
X170863630Y-69865837D01*
X170659428Y-69799489D01*
X170553392Y-69782694D01*
X170447357Y-69765900D01*
X170232643Y-69765900D01*
X170161953Y-69777096D01*
X170020571Y-69799489D01*
X169816369Y-69865837D01*
X169816366Y-69865838D01*
X169625055Y-69963317D01*
X169566433Y-70005909D01*
X169451349Y-70089523D01*
X169451347Y-70089525D01*
X169451346Y-70089525D01*
X169299525Y-70241346D01*
X169299525Y-70241347D01*
X169299523Y-70241349D01*
X169264185Y-70289987D01*
X169173317Y-70415055D01*
X169075838Y-70606366D01*
X169075837Y-70606369D01*
X169009489Y-70810571D01*
X168991381Y-70924901D01*
X168975900Y-71022643D01*
X168975900Y-71237357D01*
X168985837Y-71300097D01*
X169009489Y-71449428D01*
X169036247Y-71531782D01*
X169038242Y-71601624D01*
X169002161Y-71661456D01*
X168939460Y-71692284D01*
X168918316Y-71694100D01*
X165480500Y-71694100D01*
X165413461Y-71674415D01*
X165367706Y-71621611D01*
X165356500Y-71570100D01*
X165356499Y-68547129D01*
X165356498Y-68547123D01*
X165356497Y-68547116D01*
X165350091Y-68487517D01*
X165299796Y-68352669D01*
X165299795Y-68352668D01*
X165299793Y-68352664D01*
X165213547Y-68237455D01*
X165213544Y-68237452D01*
X165098335Y-68151206D01*
X165098328Y-68151202D01*
X164963482Y-68100908D01*
X164963483Y-68100908D01*
X164903883Y-68094501D01*
X164903881Y-68094500D01*
X164903873Y-68094500D01*
X164903864Y-68094500D01*
X159808129Y-68094500D01*
X159808123Y-68094501D01*
X159748516Y-68100908D01*
X159613671Y-68151202D01*
X159613664Y-68151206D01*
X159498455Y-68237452D01*
X159498452Y-68237455D01*
X159412206Y-68352664D01*
X159412202Y-68352671D01*
X159361908Y-68487517D01*
X159355501Y-68547116D01*
X159355501Y-68547123D01*
X159355500Y-68547135D01*
X159355500Y-71642870D01*
X159355501Y-71642876D01*
X159361908Y-71702483D01*
X159412202Y-71837328D01*
X159412206Y-71837335D01*
X159498452Y-71952544D01*
X159498455Y-71952547D01*
X159613664Y-72038793D01*
X159613671Y-72038797D01*
X159748517Y-72089091D01*
X159748516Y-72089091D01*
X159755444Y-72089835D01*
X159808127Y-72095500D01*
X164286902Y-72095499D01*
X164353941Y-72115184D01*
X164399696Y-72167988D01*
X164409640Y-72237146D01*
X164380615Y-72300702D01*
X164374583Y-72307180D01*
X163543582Y-73138181D01*
X163482259Y-73171666D01*
X163455901Y-73174500D01*
X159808129Y-73174500D01*
X159808123Y-73174501D01*
X159748516Y-73180908D01*
X159613671Y-73231202D01*
X159613664Y-73231206D01*
X159498455Y-73317452D01*
X159498452Y-73317455D01*
X159412206Y-73432664D01*
X159412202Y-73432671D01*
X159361908Y-73567517D01*
X159357612Y-73607482D01*
X159355501Y-73627123D01*
X159355500Y-73627135D01*
X159355500Y-76722870D01*
X159355501Y-76722876D01*
X159361908Y-76782483D01*
X159412202Y-76917328D01*
X159412206Y-76917335D01*
X159498452Y-77032544D01*
X159498455Y-77032547D01*
X159613664Y-77118793D01*
X159613671Y-77118797D01*
X159748517Y-77169091D01*
X159748516Y-77169091D01*
X159755444Y-77169835D01*
X159808127Y-77175500D01*
X164903872Y-77175499D01*
X164963483Y-77169091D01*
X165098331Y-77118796D01*
X165213546Y-77032546D01*
X165299796Y-76917331D01*
X165350091Y-76782483D01*
X165356500Y-76722873D01*
X165356499Y-73627128D01*
X165350091Y-73567517D01*
X165342765Y-73547876D01*
X165299797Y-73432671D01*
X165299793Y-73432664D01*
X165213393Y-73317249D01*
X165188975Y-73251785D01*
X165203826Y-73183512D01*
X165224978Y-73155257D01*
X165448817Y-72931419D01*
X165510140Y-72897934D01*
X165536498Y-72895100D01*
X169001516Y-72895100D01*
X169068555Y-72914785D01*
X169114310Y-72967589D01*
X169124254Y-73036747D01*
X169112001Y-73075395D01*
X169075838Y-73146366D01*
X169075837Y-73146369D01*
X169009489Y-73350571D01*
X168975900Y-73562643D01*
X168975900Y-73777356D01*
X169009489Y-73989428D01*
X169075837Y-74193630D01*
X169075838Y-74193632D01*
X169098236Y-74237590D01*
X169173317Y-74384944D01*
X169299523Y-74558651D01*
X169451349Y-74710477D01*
X169625056Y-74836683D01*
X169628998Y-74839547D01*
X169627624Y-74841437D01*
X169668030Y-74886152D01*
X169679411Y-74955089D01*
X169651715Y-75019235D01*
X169628314Y-75039511D01*
X169628998Y-75040453D01*
X169625056Y-75043316D01*
X169625056Y-75043317D01*
X169451349Y-75169523D01*
X169451347Y-75169525D01*
X169451346Y-75169525D01*
X169299525Y-75321346D01*
X169299525Y-75321347D01*
X169299523Y-75321349D01*
X169287494Y-75337906D01*
X169173317Y-75495055D01*
X169075838Y-75686366D01*
X169075837Y-75686369D01*
X169009489Y-75890571D01*
X168994952Y-75982352D01*
X168975900Y-76102643D01*
X168975900Y-76317357D01*
X168985698Y-76379219D01*
X169009489Y-76529428D01*
X169075837Y-76733630D01*
X169075838Y-76733633D01*
X169146323Y-76871966D01*
X169173317Y-76924944D01*
X169299523Y-77098651D01*
X169451349Y-77250477D01*
X169560803Y-77330000D01*
X169628998Y-77379547D01*
X169627624Y-77381437D01*
X169668030Y-77426152D01*
X169679411Y-77495089D01*
X169651715Y-77559235D01*
X169628314Y-77579511D01*
X169628998Y-77580453D01*
X169625056Y-77583316D01*
X169625056Y-77583317D01*
X169451349Y-77709523D01*
X169451347Y-77709525D01*
X169451346Y-77709525D01*
X169299525Y-77861346D01*
X169299525Y-77861347D01*
X169299523Y-77861349D01*
X169245322Y-77935949D01*
X169173317Y-78035055D01*
X169075838Y-78226366D01*
X169075837Y-78226369D01*
X169009489Y-78430571D01*
X168975900Y-78642643D01*
X168975900Y-78857356D01*
X169009489Y-79069428D01*
X169075837Y-79273630D01*
X169075838Y-79273633D01*
X169173316Y-79464942D01*
X169173317Y-79464944D01*
X169299523Y-79638651D01*
X169451349Y-79790477D01*
X169601739Y-79899742D01*
X169628998Y-79919547D01*
X169627624Y-79921437D01*
X169668030Y-79966152D01*
X169679411Y-80035089D01*
X169651715Y-80099235D01*
X169628314Y-80119511D01*
X169628998Y-80120453D01*
X169625056Y-80123316D01*
X169625056Y-80123317D01*
X169451349Y-80249523D01*
X169451347Y-80249525D01*
X169451346Y-80249525D01*
X169299525Y-80401346D01*
X169299525Y-80401347D01*
X169299523Y-80401349D01*
X169246908Y-80473767D01*
X169173317Y-80575055D01*
X169075838Y-80766366D01*
X169075837Y-80766369D01*
X169009489Y-80970571D01*
X168975900Y-81182643D01*
X168975900Y-81397356D01*
X169009489Y-81609428D01*
X169075837Y-81813630D01*
X169075838Y-81813633D01*
X169144426Y-81948242D01*
X169173317Y-82004944D01*
X169299523Y-82178651D01*
X169451349Y-82330477D01*
X169591771Y-82432500D01*
X169628998Y-82459547D01*
X169627624Y-82461437D01*
X169668030Y-82506152D01*
X169679411Y-82575089D01*
X169651715Y-82639235D01*
X169628314Y-82659511D01*
X169628998Y-82660453D01*
X169625056Y-82663316D01*
X169625056Y-82663317D01*
X169451349Y-82789523D01*
X169451347Y-82789525D01*
X169451346Y-82789525D01*
X169299525Y-82941346D01*
X169299525Y-82941347D01*
X169299523Y-82941349D01*
X169245322Y-83015949D01*
X169173317Y-83115055D01*
X169075838Y-83306366D01*
X169075837Y-83306369D01*
X169009489Y-83510571D01*
X168975900Y-83722643D01*
X168975900Y-83937356D01*
X169009489Y-84149428D01*
X169075837Y-84353630D01*
X169075838Y-84353633D01*
X169158678Y-84516214D01*
X169173317Y-84544944D01*
X169299523Y-84718651D01*
X169451349Y-84870477D01*
X169616206Y-84990253D01*
X169628998Y-84999547D01*
X169627624Y-85001437D01*
X169668030Y-85046152D01*
X169679411Y-85115089D01*
X169651715Y-85179235D01*
X169628314Y-85199511D01*
X169628998Y-85200453D01*
X169625056Y-85203316D01*
X169625056Y-85203317D01*
X169451349Y-85329523D01*
X169451347Y-85329525D01*
X169451346Y-85329525D01*
X169299525Y-85481346D01*
X169299525Y-85481347D01*
X169299523Y-85481349D01*
X169245322Y-85555949D01*
X169173317Y-85655055D01*
X169075838Y-85846366D01*
X169075837Y-85846369D01*
X169009489Y-86050571D01*
X168975900Y-86262643D01*
X168975900Y-86477356D01*
X168991346Y-86574878D01*
X168982391Y-86644172D01*
X168937395Y-86697623D01*
X168870644Y-86718263D01*
X168803330Y-86699538D01*
X168781192Y-86681957D01*
X167737590Y-85638355D01*
X167737588Y-85638352D01*
X167618717Y-85519481D01*
X167618709Y-85519475D01*
X167497445Y-85449464D01*
X167497445Y-85449463D01*
X167497441Y-85449462D01*
X167481785Y-85440423D01*
X167329057Y-85399499D01*
X167170943Y-85399499D01*
X167163347Y-85399499D01*
X167163331Y-85399500D01*
X110050098Y-85399500D01*
X109983059Y-85379815D01*
X109962417Y-85363181D01*
X108534319Y-83935083D01*
X108519615Y-83908155D01*
X108503023Y-83882337D01*
X108502131Y-83876136D01*
X108500834Y-83873760D01*
X108498000Y-83847402D01*
X108498000Y-83605096D01*
X108517685Y-83538057D01*
X108549114Y-83504778D01*
X108552903Y-83502024D01*
X108552905Y-83502024D01*
X108712146Y-83386328D01*
X108851328Y-83247146D01*
X108967024Y-83087905D01*
X109056384Y-82912525D01*
X109117209Y-82725326D01*
X109128802Y-82652129D01*
X109148000Y-82530922D01*
X109148000Y-81334077D01*
X109117209Y-81139673D01*
X109073470Y-81005060D01*
X109056384Y-80952475D01*
X109056382Y-80952472D01*
X109056382Y-80952470D01*
X108986152Y-80814637D01*
X108967024Y-80777095D01*
X108851328Y-80617854D01*
X108712146Y-80478672D01*
X108659154Y-80440171D01*
X108549114Y-80360221D01*
X108506449Y-80304890D01*
X108498000Y-80259903D01*
X108498000Y-75532155D01*
X124304000Y-75532155D01*
X124304000Y-76830000D01*
X126595759Y-76830000D01*
X126582822Y-76861233D01*
X126554000Y-77006131D01*
X126554000Y-77153869D01*
X126582822Y-77298767D01*
X126595759Y-77330000D01*
X124304000Y-77330000D01*
X124304000Y-78627844D01*
X124310401Y-78687372D01*
X124310403Y-78687379D01*
X124360645Y-78822086D01*
X124360649Y-78822093D01*
X124446809Y-78937187D01*
X124446812Y-78937190D01*
X124561906Y-79023350D01*
X124561913Y-79023354D01*
X124696620Y-79073596D01*
X124696627Y-79073598D01*
X124756155Y-79079999D01*
X124756172Y-79080000D01*
X127054000Y-79080000D01*
X127054000Y-77788240D01*
X127085233Y-77801178D01*
X127230131Y-77830000D01*
X127377869Y-77830000D01*
X127522767Y-77801178D01*
X127554000Y-77788240D01*
X127554000Y-79080000D01*
X129851828Y-79080000D01*
X129851844Y-79079999D01*
X129911372Y-79073598D01*
X129911379Y-79073596D01*
X130046086Y-79023354D01*
X130046093Y-79023350D01*
X130161187Y-78937190D01*
X130161190Y-78937187D01*
X130247350Y-78822093D01*
X130247354Y-78822086D01*
X130290220Y-78707155D01*
X159356000Y-78707155D01*
X159356000Y-80005000D01*
X161647759Y-80005000D01*
X161634822Y-80036233D01*
X161606000Y-80181131D01*
X161606000Y-80328869D01*
X161634822Y-80473767D01*
X161647759Y-80505000D01*
X159356000Y-80505000D01*
X159356000Y-81802844D01*
X159362401Y-81862372D01*
X159362403Y-81862379D01*
X159412645Y-81997086D01*
X159412649Y-81997093D01*
X159498809Y-82112187D01*
X159498812Y-82112190D01*
X159613906Y-82198350D01*
X159613913Y-82198354D01*
X159748620Y-82248596D01*
X159748627Y-82248598D01*
X159808155Y-82254999D01*
X159808172Y-82255000D01*
X162106000Y-82255000D01*
X162106000Y-80963240D01*
X162137233Y-80976178D01*
X162282131Y-81005000D01*
X162429869Y-81005000D01*
X162574767Y-80976178D01*
X162606000Y-80963240D01*
X162606000Y-82255000D01*
X164903828Y-82255000D01*
X164903844Y-82254999D01*
X164963372Y-82248598D01*
X164963379Y-82248596D01*
X165098086Y-82198354D01*
X165098093Y-82198350D01*
X165213187Y-82112190D01*
X165213190Y-82112187D01*
X165299350Y-81997093D01*
X165299354Y-81997086D01*
X165349596Y-81862379D01*
X165349598Y-81862372D01*
X165355999Y-81802844D01*
X165356000Y-81802827D01*
X165356000Y-80505000D01*
X163064241Y-80505000D01*
X163077178Y-80473767D01*
X163106000Y-80328869D01*
X163106000Y-80181131D01*
X163077178Y-80036233D01*
X163064241Y-80005000D01*
X165356000Y-80005000D01*
X165356000Y-78707172D01*
X165355999Y-78707155D01*
X165349598Y-78647627D01*
X165349596Y-78647620D01*
X165299354Y-78512913D01*
X165299350Y-78512906D01*
X165213190Y-78397812D01*
X165213187Y-78397809D01*
X165098093Y-78311649D01*
X165098086Y-78311645D01*
X164963379Y-78261403D01*
X164963372Y-78261401D01*
X164903844Y-78255000D01*
X162606000Y-78255000D01*
X162606000Y-79546759D01*
X162574767Y-79533822D01*
X162429869Y-79505000D01*
X162282131Y-79505000D01*
X162137233Y-79533822D01*
X162106000Y-79546759D01*
X162106000Y-78255000D01*
X159808155Y-78255000D01*
X159748627Y-78261401D01*
X159748620Y-78261403D01*
X159613913Y-78311645D01*
X159613906Y-78311649D01*
X159498812Y-78397809D01*
X159498809Y-78397812D01*
X159412649Y-78512906D01*
X159412645Y-78512913D01*
X159362403Y-78647620D01*
X159362401Y-78647627D01*
X159356000Y-78707155D01*
X130290220Y-78707155D01*
X130297596Y-78687379D01*
X130297598Y-78687372D01*
X130303999Y-78627844D01*
X130304000Y-78627827D01*
X130304000Y-77330000D01*
X128012241Y-77330000D01*
X128025178Y-77298767D01*
X128054000Y-77153869D01*
X128054000Y-77006131D01*
X128025178Y-76861233D01*
X128012241Y-76830000D01*
X130304000Y-76830000D01*
X130304000Y-75532172D01*
X130303999Y-75532155D01*
X130297598Y-75472627D01*
X130297596Y-75472620D01*
X130247354Y-75337913D01*
X130247350Y-75337906D01*
X130161190Y-75222812D01*
X130161187Y-75222809D01*
X130046093Y-75136649D01*
X130046086Y-75136645D01*
X129911379Y-75086403D01*
X129911372Y-75086401D01*
X129851844Y-75080000D01*
X127554000Y-75080000D01*
X127554000Y-76371759D01*
X127522767Y-76358822D01*
X127377869Y-76330000D01*
X127230131Y-76330000D01*
X127085233Y-76358822D01*
X127054000Y-76371759D01*
X127054000Y-75080000D01*
X124756155Y-75080000D01*
X124696627Y-75086401D01*
X124696620Y-75086403D01*
X124561913Y-75136645D01*
X124561906Y-75136649D01*
X124446812Y-75222809D01*
X124446809Y-75222812D01*
X124360649Y-75337906D01*
X124360645Y-75337913D01*
X124310403Y-75472620D01*
X124310401Y-75472627D01*
X124304000Y-75532155D01*
X108498000Y-75532155D01*
X108498000Y-74871664D01*
X108514612Y-74809666D01*
X108538834Y-74767713D01*
X108559577Y-74731785D01*
X108600501Y-74579057D01*
X108600501Y-74420943D01*
X108559577Y-74268215D01*
X108516517Y-74193633D01*
X108480520Y-74131284D01*
X108368716Y-74019480D01*
X108368714Y-74019479D01*
X108368709Y-74019475D01*
X108272915Y-73964169D01*
X108272913Y-73964168D01*
X108231790Y-73940425D01*
X108231789Y-73940424D01*
X108219263Y-73937067D01*
X108079057Y-73899499D01*
X107920943Y-73899499D01*
X107913347Y-73899499D01*
X107913331Y-73899500D01*
X88050097Y-73899500D01*
X87983058Y-73879815D01*
X87962416Y-73863181D01*
X87487590Y-73388355D01*
X87487588Y-73388352D01*
X84551371Y-70452135D01*
X124303500Y-70452135D01*
X124303500Y-73547870D01*
X124303501Y-73547876D01*
X124309908Y-73607483D01*
X124360202Y-73742328D01*
X124360206Y-73742335D01*
X124446452Y-73857544D01*
X124446455Y-73857547D01*
X124561664Y-73943793D01*
X124561671Y-73943797D01*
X124696517Y-73994091D01*
X124696516Y-73994091D01*
X124703444Y-73994835D01*
X124756127Y-74000500D01*
X129851872Y-74000499D01*
X129911483Y-73994091D01*
X130046331Y-73943796D01*
X130161546Y-73857546D01*
X130247796Y-73742331D01*
X130298091Y-73607483D01*
X130304500Y-73547873D01*
X130304499Y-70452128D01*
X130298091Y-70392517D01*
X130288893Y-70367857D01*
X130247797Y-70257671D01*
X130247793Y-70257664D01*
X130161547Y-70142455D01*
X130161544Y-70142452D01*
X130046335Y-70056206D01*
X130046328Y-70056202D01*
X129911482Y-70005908D01*
X129911483Y-70005908D01*
X129851883Y-69999501D01*
X129851881Y-69999500D01*
X129851873Y-69999500D01*
X129851864Y-69999500D01*
X124756129Y-69999500D01*
X124756123Y-69999501D01*
X124696516Y-70005908D01*
X124561671Y-70056202D01*
X124561664Y-70056206D01*
X124446455Y-70142452D01*
X124446452Y-70142455D01*
X124360206Y-70257664D01*
X124360202Y-70257671D01*
X124309908Y-70392517D01*
X124305967Y-70429180D01*
X124303501Y-70452123D01*
X124303500Y-70452135D01*
X84551371Y-70452135D01*
X84528416Y-70429180D01*
X84494931Y-70367857D01*
X84499915Y-70298165D01*
X84541787Y-70242232D01*
X84607251Y-70217815D01*
X84616097Y-70217499D01*
X84867502Y-70217499D01*
X84867508Y-70217499D01*
X84970297Y-70206999D01*
X85136834Y-70151814D01*
X85286156Y-70059712D01*
X85410212Y-69935656D01*
X85502314Y-69786334D01*
X85557499Y-69619797D01*
X85568000Y-69517009D01*
X85567999Y-67416992D01*
X85557499Y-67314203D01*
X85502314Y-67147666D01*
X85410212Y-66998344D01*
X85286156Y-66874288D01*
X85157531Y-66794952D01*
X85136836Y-66782187D01*
X85136831Y-66782185D01*
X85135362Y-66781698D01*
X84970297Y-66727001D01*
X84970295Y-66727000D01*
X84867510Y-66716500D01*
X82767498Y-66716500D01*
X82767481Y-66716501D01*
X82664703Y-66727000D01*
X82664700Y-66727001D01*
X82498168Y-66782185D01*
X82498163Y-66782187D01*
X82348842Y-66874289D01*
X82224789Y-66998342D01*
X82132687Y-67147663D01*
X82132685Y-67147668D01*
X82104849Y-67231670D01*
X82077501Y-67314203D01*
X82077501Y-67314204D01*
X82077500Y-67314204D01*
X82067000Y-67416983D01*
X82067000Y-69517001D01*
X82067001Y-69517018D01*
X82077500Y-69619796D01*
X82077501Y-69619799D01*
X82125915Y-69765900D01*
X82132686Y-69786334D01*
X82224788Y-69935656D01*
X82348844Y-70059712D01*
X82498166Y-70151814D01*
X82664703Y-70206999D01*
X82767491Y-70217500D01*
X83093000Y-70217499D01*
X83101686Y-70220049D01*
X83110647Y-70218761D01*
X83134683Y-70229738D01*
X83160039Y-70237183D01*
X83165967Y-70244025D01*
X83174203Y-70247786D01*
X83188489Y-70270017D01*
X83205794Y-70289987D01*
X83208081Y-70300502D01*
X83211977Y-70306564D01*
X83217000Y-70341499D01*
X83217000Y-70480830D01*
X83216999Y-70480848D01*
X83216999Y-70646554D01*
X83216998Y-70646554D01*
X83257923Y-70799286D01*
X83267525Y-70815915D01*
X83267527Y-70815920D01*
X83336975Y-70936209D01*
X83336981Y-70936217D01*
X83455849Y-71055085D01*
X83455855Y-71055090D01*
X86638349Y-74237585D01*
X86638355Y-74237590D01*
X87265139Y-74864374D01*
X87265149Y-74864385D01*
X87269479Y-74868715D01*
X87269480Y-74868716D01*
X87381284Y-74980520D01*
X87448342Y-75019235D01*
X87468095Y-75030639D01*
X87468097Y-75030641D01*
X87506151Y-75052611D01*
X87518215Y-75059577D01*
X87670943Y-75100500D01*
X107173000Y-75100500D01*
X107240039Y-75120185D01*
X107285794Y-75172989D01*
X107297000Y-75224500D01*
X107297000Y-80259903D01*
X107277315Y-80326942D01*
X107245886Y-80360221D01*
X107082852Y-80478673D01*
X106943674Y-80617851D01*
X106943674Y-80617852D01*
X106943672Y-80617854D01*
X106893985Y-80686241D01*
X106827976Y-80777094D01*
X106737704Y-80954264D01*
X106689729Y-81005060D01*
X106621908Y-81021855D01*
X106555774Y-80999318D01*
X106516734Y-80954264D01*
X106426595Y-80777356D01*
X106310944Y-80618178D01*
X106171821Y-80479055D01*
X106012643Y-80363404D01*
X105837335Y-80274081D01*
X105650205Y-80213278D01*
X105607500Y-80206514D01*
X105607500Y-81499488D01*
X105550493Y-81466575D01*
X105423326Y-81432500D01*
X105291674Y-81432500D01*
X105164507Y-81466575D01*
X105107500Y-81499488D01*
X105107500Y-80206514D01*
X105107499Y-80206514D01*
X105064794Y-80213278D01*
X104877664Y-80274081D01*
X104702356Y-80363404D01*
X104543178Y-80479055D01*
X104404055Y-80618178D01*
X104292317Y-80771971D01*
X104236986Y-80814637D01*
X104167373Y-80820615D01*
X104105578Y-80788009D01*
X104071221Y-80727170D01*
X104067999Y-80699085D01*
X104067999Y-80634629D01*
X104067998Y-80634623D01*
X104067997Y-80634616D01*
X104061591Y-80575017D01*
X104052739Y-80551284D01*
X104011297Y-80440171D01*
X104011293Y-80440164D01*
X103925047Y-80324955D01*
X103925044Y-80324952D01*
X103809835Y-80238706D01*
X103809828Y-80238702D01*
X103674982Y-80188408D01*
X103674983Y-80188408D01*
X103615383Y-80182001D01*
X103615381Y-80182000D01*
X103615373Y-80182000D01*
X103615364Y-80182000D01*
X102019629Y-80182000D01*
X102019623Y-80182001D01*
X101960016Y-80188408D01*
X101825171Y-80238702D01*
X101825164Y-80238706D01*
X101709955Y-80324952D01*
X101709952Y-80324955D01*
X101623706Y-80440164D01*
X101623702Y-80440171D01*
X101573408Y-80575017D01*
X101567001Y-80634616D01*
X101567001Y-80634623D01*
X101567000Y-80634635D01*
X101567000Y-83230370D01*
X101567001Y-83230376D01*
X101573408Y-83289983D01*
X101623702Y-83424828D01*
X101623706Y-83424835D01*
X101709952Y-83540044D01*
X101709955Y-83540047D01*
X101825164Y-83626293D01*
X101825171Y-83626297D01*
X101960017Y-83676591D01*
X101960016Y-83676591D01*
X101966944Y-83677335D01*
X102019627Y-83683000D01*
X103615372Y-83682999D01*
X103674983Y-83676591D01*
X103809831Y-83626296D01*
X103925046Y-83540046D01*
X104011296Y-83424831D01*
X104061591Y-83289983D01*
X104068000Y-83230373D01*
X104067999Y-83165913D01*
X104087683Y-83098877D01*
X104140486Y-83053121D01*
X104209644Y-83043177D01*
X104273200Y-83072201D01*
X104292317Y-83093029D01*
X104404055Y-83246821D01*
X104543178Y-83385944D01*
X104702356Y-83501595D01*
X104877662Y-83590918D01*
X105064783Y-83651718D01*
X105107500Y-83658484D01*
X105107500Y-82365512D01*
X105164507Y-82398425D01*
X105291674Y-82432500D01*
X105423326Y-82432500D01*
X105550493Y-82398425D01*
X105607500Y-82365512D01*
X105607500Y-83658483D01*
X105650216Y-83651718D01*
X105837337Y-83590918D01*
X106012643Y-83501595D01*
X106171821Y-83385944D01*
X106310944Y-83246821D01*
X106426597Y-83087641D01*
X106516734Y-82910736D01*
X106564708Y-82859939D01*
X106632529Y-82843144D01*
X106698664Y-82865681D01*
X106737704Y-82910735D01*
X106738615Y-82912524D01*
X106738616Y-82912525D01*
X106827976Y-83087905D01*
X106943672Y-83247146D01*
X107082854Y-83386328D01*
X107241505Y-83501595D01*
X107245886Y-83504778D01*
X107288551Y-83560108D01*
X107297000Y-83605096D01*
X107297000Y-84060830D01*
X107296999Y-84060848D01*
X107296999Y-84226554D01*
X107296998Y-84226554D01*
X107337923Y-84379285D01*
X107366858Y-84429400D01*
X107366859Y-84429404D01*
X107366860Y-84429404D01*
X107416979Y-84516214D01*
X107416981Y-84516217D01*
X107535849Y-84635085D01*
X107535854Y-84635089D01*
X109381284Y-86480520D01*
X109381286Y-86480521D01*
X109381290Y-86480524D01*
X109518209Y-86559573D01*
X109518216Y-86559577D01*
X109670943Y-86600501D01*
X109670945Y-86600501D01*
X109836654Y-86600501D01*
X109836670Y-86600500D01*
X141025500Y-86600500D01*
X141092539Y-86620185D01*
X141138294Y-86672989D01*
X141149500Y-86724500D01*
X141149500Y-88270397D01*
X141129815Y-88337436D01*
X141081800Y-88380879D01*
X141068389Y-88387712D01*
X140902786Y-88508028D01*
X140758028Y-88652786D01*
X140637715Y-88818386D01*
X140544781Y-89000776D01*
X140481522Y-89195465D01*
X140449500Y-89397648D01*
X140449500Y-89602352D01*
X140452704Y-89622580D01*
X140481522Y-89804534D01*
X140544781Y-89999223D01*
X140637712Y-90181609D01*
X140652974Y-90202615D01*
X140676453Y-90268422D01*
X140660627Y-90336476D01*
X140610521Y-90385170D01*
X140552655Y-90399500D01*
X139196728Y-90399500D01*
X139129689Y-90379815D01*
X139083934Y-90327011D01*
X139073990Y-90257853D01*
X139096410Y-90202615D01*
X139111857Y-90181352D01*
X139204755Y-89999031D01*
X139267990Y-89804417D01*
X139300000Y-89602317D01*
X139300000Y-89397682D01*
X139267990Y-89195582D01*
X139204755Y-89000968D01*
X139111859Y-88818650D01*
X139079474Y-88774077D01*
X139079474Y-88774076D01*
X138400000Y-89453551D01*
X138400000Y-89447339D01*
X138372741Y-89345606D01*
X138320080Y-89254394D01*
X138245606Y-89179920D01*
X138154394Y-89127259D01*
X138052661Y-89100000D01*
X138046446Y-89100000D01*
X138725922Y-88420524D01*
X138725921Y-88420523D01*
X138681359Y-88388147D01*
X138681350Y-88388141D01*
X138499031Y-88295244D01*
X138304417Y-88232009D01*
X138102317Y-88200000D01*
X137897683Y-88200000D01*
X137695582Y-88232009D01*
X137500968Y-88295244D01*
X137318644Y-88388143D01*
X137274077Y-88420523D01*
X137274077Y-88420524D01*
X137953554Y-89100000D01*
X137947339Y-89100000D01*
X137845606Y-89127259D01*
X137754394Y-89179920D01*
X137679920Y-89254394D01*
X137627259Y-89345606D01*
X137600000Y-89447339D01*
X137600000Y-89453553D01*
X136920524Y-88774077D01*
X136920523Y-88774077D01*
X136888143Y-88818644D01*
X136795244Y-89000968D01*
X136732009Y-89195582D01*
X136700000Y-89397682D01*
X136700000Y-89602317D01*
X136732009Y-89804417D01*
X136795244Y-89999031D01*
X136888142Y-90181352D01*
X136903590Y-90202615D01*
X136927070Y-90268421D01*
X136911245Y-90336475D01*
X136861139Y-90385170D01*
X136803272Y-90399500D01*
X135836670Y-90399500D01*
X135836654Y-90399499D01*
X135829058Y-90399499D01*
X135670943Y-90399499D01*
X135594579Y-90419961D01*
X135518214Y-90440423D01*
X135518209Y-90440426D01*
X135381290Y-90519475D01*
X135381282Y-90519481D01*
X133547860Y-92352903D01*
X133486537Y-92386388D01*
X133416845Y-92381404D01*
X133412743Y-92379789D01*
X133313887Y-92338842D01*
X133313885Y-92338841D01*
X133313884Y-92338841D01*
X133225604Y-92315187D01*
X133092238Y-92279452D01*
X133054215Y-92274446D01*
X132864741Y-92249500D01*
X132864734Y-92249500D01*
X132635266Y-92249500D01*
X132635258Y-92249500D01*
X132418715Y-92278009D01*
X132407762Y-92279452D01*
X132382328Y-92286267D01*
X132186112Y-92338842D01*
X131974123Y-92426650D01*
X131974109Y-92426657D01*
X131775382Y-92541392D01*
X131593338Y-92681081D01*
X131431081Y-92843338D01*
X131291392Y-93025382D01*
X131176657Y-93224109D01*
X131176650Y-93224123D01*
X131088842Y-93436112D01*
X131029453Y-93657759D01*
X131029451Y-93657770D01*
X130999500Y-93885258D01*
X130999500Y-94114741D01*
X131024446Y-94304215D01*
X131029452Y-94342238D01*
X131073386Y-94506202D01*
X131088842Y-94563887D01*
X131176650Y-94775876D01*
X131176657Y-94775890D01*
X131194787Y-94807292D01*
X131291228Y-94974334D01*
X131291392Y-94974617D01*
X131431081Y-95156661D01*
X131431089Y-95156670D01*
X131593330Y-95318911D01*
X131593338Y-95318918D01*
X131593339Y-95318919D01*
X131643962Y-95357764D01*
X131775382Y-95458607D01*
X131775385Y-95458608D01*
X131775388Y-95458611D01*
X131974112Y-95573344D01*
X131974117Y-95573346D01*
X131974123Y-95573349D01*
X132020865Y-95592710D01*
X132186113Y-95661158D01*
X132407762Y-95720548D01*
X132620140Y-95748508D01*
X132684036Y-95776774D01*
X132722507Y-95835099D01*
X132723338Y-95904964D01*
X132691635Y-95959128D01*
X132287584Y-96363181D01*
X132226261Y-96396666D01*
X132199903Y-96399500D01*
X84839673Y-96399500D01*
X84772634Y-96379815D01*
X84751992Y-96363181D01*
X84350991Y-95962180D01*
X84317506Y-95900857D01*
X84322490Y-95831165D01*
X84364362Y-95775232D01*
X84429826Y-95750815D01*
X84438672Y-95750499D01*
X85800002Y-95750499D01*
X85800008Y-95750499D01*
X85902797Y-95739999D01*
X86069334Y-95684814D01*
X86218656Y-95592712D01*
X86342712Y-95468656D01*
X86434814Y-95319334D01*
X86489999Y-95152797D01*
X86500500Y-95050009D01*
X86500499Y-93885258D01*
X87999500Y-93885258D01*
X87999500Y-94114741D01*
X88024446Y-94304215D01*
X88029452Y-94342238D01*
X88073386Y-94506202D01*
X88088842Y-94563887D01*
X88176650Y-94775876D01*
X88176657Y-94775890D01*
X88194787Y-94807292D01*
X88291228Y-94974334D01*
X88291392Y-94974617D01*
X88431081Y-95156661D01*
X88431089Y-95156670D01*
X88593330Y-95318911D01*
X88593338Y-95318918D01*
X88593339Y-95318919D01*
X88643962Y-95357764D01*
X88775382Y-95458607D01*
X88775385Y-95458608D01*
X88775388Y-95458611D01*
X88974112Y-95573344D01*
X88974117Y-95573346D01*
X88974123Y-95573349D01*
X89020865Y-95592710D01*
X89186113Y-95661158D01*
X89407762Y-95720548D01*
X89620136Y-95748508D01*
X89635250Y-95750498D01*
X89635266Y-95750500D01*
X89635273Y-95750500D01*
X89864727Y-95750500D01*
X89864734Y-95750500D01*
X90092238Y-95720548D01*
X90313887Y-95661158D01*
X90525888Y-95573344D01*
X90724612Y-95458611D01*
X90906661Y-95318919D01*
X90906665Y-95318914D01*
X90906670Y-95318911D01*
X91068911Y-95156670D01*
X91068914Y-95156665D01*
X91068919Y-95156661D01*
X91208611Y-94974612D01*
X91323344Y-94775888D01*
X91411158Y-94563887D01*
X91470548Y-94342238D01*
X91500500Y-94114734D01*
X91500500Y-93885266D01*
X91500499Y-93885258D01*
X92999500Y-93885258D01*
X92999500Y-94114741D01*
X93024446Y-94304215D01*
X93029452Y-94342238D01*
X93073386Y-94506202D01*
X93088842Y-94563887D01*
X93176650Y-94775876D01*
X93176657Y-94775890D01*
X93194787Y-94807292D01*
X93291228Y-94974334D01*
X93291392Y-94974617D01*
X93431081Y-95156661D01*
X93431089Y-95156670D01*
X93593330Y-95318911D01*
X93593338Y-95318918D01*
X93593339Y-95318919D01*
X93643962Y-95357764D01*
X93775382Y-95458607D01*
X93775385Y-95458608D01*
X93775388Y-95458611D01*
X93974112Y-95573344D01*
X93974117Y-95573346D01*
X93974123Y-95573349D01*
X94020865Y-95592710D01*
X94186113Y-95661158D01*
X94407762Y-95720548D01*
X94620136Y-95748508D01*
X94635250Y-95750498D01*
X94635266Y-95750500D01*
X94635273Y-95750500D01*
X94864727Y-95750500D01*
X94864734Y-95750500D01*
X95092238Y-95720548D01*
X95313887Y-95661158D01*
X95525888Y-95573344D01*
X95724612Y-95458611D01*
X95906661Y-95318919D01*
X95906665Y-95318914D01*
X95906670Y-95318911D01*
X96068911Y-95156670D01*
X96068914Y-95156665D01*
X96068919Y-95156661D01*
X96208611Y-94974612D01*
X96323344Y-94775888D01*
X96411158Y-94563887D01*
X96470548Y-94342238D01*
X96500500Y-94114734D01*
X96500500Y-93885266D01*
X96470548Y-93657762D01*
X96411158Y-93436113D01*
X96344446Y-93275056D01*
X96323349Y-93224123D01*
X96323346Y-93224117D01*
X96323344Y-93224112D01*
X96208611Y-93025388D01*
X96208608Y-93025385D01*
X96208607Y-93025382D01*
X96206258Y-93022321D01*
X96150751Y-92949983D01*
X100772500Y-92949983D01*
X100772500Y-95050001D01*
X100772501Y-95050018D01*
X100783000Y-95152796D01*
X100783001Y-95152799D01*
X100838046Y-95318911D01*
X100838186Y-95319334D01*
X100930288Y-95468656D01*
X101054344Y-95592712D01*
X101203666Y-95684814D01*
X101370203Y-95739999D01*
X101472991Y-95750500D01*
X103573008Y-95750499D01*
X103675797Y-95739999D01*
X103842334Y-95684814D01*
X103991656Y-95592712D01*
X104115712Y-95468656D01*
X104207814Y-95319334D01*
X104262999Y-95152797D01*
X104273500Y-95050009D01*
X104273499Y-93885305D01*
X105773000Y-93885305D01*
X105773000Y-94114694D01*
X105773001Y-94114710D01*
X105802942Y-94342137D01*
X105862318Y-94563730D01*
X105950102Y-94775659D01*
X105950106Y-94775669D01*
X106064799Y-94974324D01*
X106064805Y-94974331D01*
X106121381Y-95048064D01*
X106921958Y-94247487D01*
X106946978Y-94307890D01*
X107018112Y-94414351D01*
X107108649Y-94504888D01*
X107215110Y-94576022D01*
X107275511Y-94601041D01*
X106474934Y-95401617D01*
X106474934Y-95401618D01*
X106548666Y-95458194D01*
X106747330Y-95572893D01*
X106747340Y-95572897D01*
X106959269Y-95660681D01*
X107180862Y-95720057D01*
X107408289Y-95749998D01*
X107408306Y-95750000D01*
X107637694Y-95750000D01*
X107637710Y-95749998D01*
X107865137Y-95720057D01*
X108086730Y-95660681D01*
X108298659Y-95572897D01*
X108298668Y-95572893D01*
X108497327Y-95458197D01*
X108497334Y-95458192D01*
X108571064Y-95401617D01*
X107770488Y-94601041D01*
X107830890Y-94576022D01*
X107937351Y-94504888D01*
X108027888Y-94414351D01*
X108099022Y-94307890D01*
X108124041Y-94247488D01*
X108924617Y-95048064D01*
X108981192Y-94974334D01*
X108981197Y-94974327D01*
X109095893Y-94775668D01*
X109095897Y-94775659D01*
X109183681Y-94563730D01*
X109243057Y-94342137D01*
X109272998Y-94114710D01*
X109273000Y-94114694D01*
X109273000Y-93885305D01*
X109272998Y-93885289D01*
X109243057Y-93657862D01*
X109183681Y-93436269D01*
X109095897Y-93224340D01*
X109095893Y-93224330D01*
X108981195Y-93025668D01*
X108978625Y-93022318D01*
X108978624Y-93022316D01*
X108924618Y-92951934D01*
X108924617Y-92951934D01*
X108124041Y-93752510D01*
X108099022Y-93692110D01*
X108027888Y-93585649D01*
X107937351Y-93495112D01*
X107830890Y-93423978D01*
X107770487Y-93398957D01*
X108219462Y-92949983D01*
X113749500Y-92949983D01*
X113749500Y-95050001D01*
X113749501Y-95050018D01*
X113760000Y-95152796D01*
X113760001Y-95152799D01*
X113815046Y-95318911D01*
X113815186Y-95319334D01*
X113907288Y-95468656D01*
X114031344Y-95592712D01*
X114180666Y-95684814D01*
X114347203Y-95739999D01*
X114449991Y-95750500D01*
X116550008Y-95750499D01*
X116652797Y-95739999D01*
X116819334Y-95684814D01*
X116968656Y-95592712D01*
X117092712Y-95468656D01*
X117184814Y-95319334D01*
X117239999Y-95152797D01*
X117250500Y-95050009D01*
X117250499Y-93885258D01*
X118749500Y-93885258D01*
X118749500Y-94114741D01*
X118774446Y-94304215D01*
X118779452Y-94342238D01*
X118823386Y-94506202D01*
X118838842Y-94563887D01*
X118926650Y-94775876D01*
X118926657Y-94775890D01*
X118944787Y-94807292D01*
X119041228Y-94974334D01*
X119041392Y-94974617D01*
X119181081Y-95156661D01*
X119181089Y-95156670D01*
X119343330Y-95318911D01*
X119343338Y-95318918D01*
X119343339Y-95318919D01*
X119393962Y-95357764D01*
X119525382Y-95458607D01*
X119525385Y-95458608D01*
X119525388Y-95458611D01*
X119724112Y-95573344D01*
X119724117Y-95573346D01*
X119724123Y-95573349D01*
X119770865Y-95592710D01*
X119936113Y-95661158D01*
X120157762Y-95720548D01*
X120370136Y-95748508D01*
X120385250Y-95750498D01*
X120385266Y-95750500D01*
X120385273Y-95750500D01*
X120614727Y-95750500D01*
X120614734Y-95750500D01*
X120842238Y-95720548D01*
X121063887Y-95661158D01*
X121275888Y-95573344D01*
X121474612Y-95458611D01*
X121656661Y-95318919D01*
X121656665Y-95318914D01*
X121656670Y-95318911D01*
X121818911Y-95156670D01*
X121818914Y-95156665D01*
X121818919Y-95156661D01*
X121958611Y-94974612D01*
X122073344Y-94775888D01*
X122161158Y-94563887D01*
X122220548Y-94342238D01*
X122250500Y-94114734D01*
X122250500Y-93885266D01*
X122220548Y-93657762D01*
X122161158Y-93436113D01*
X122094446Y-93275056D01*
X122073349Y-93224123D01*
X122073346Y-93224117D01*
X122073344Y-93224112D01*
X121958611Y-93025388D01*
X121958608Y-93025385D01*
X121958607Y-93025382D01*
X121956258Y-93022321D01*
X121900751Y-92949983D01*
X125999500Y-92949983D01*
X125999500Y-95050001D01*
X125999501Y-95050018D01*
X126010000Y-95152796D01*
X126010001Y-95152799D01*
X126065046Y-95318911D01*
X126065186Y-95319334D01*
X126157288Y-95468656D01*
X126281344Y-95592712D01*
X126430666Y-95684814D01*
X126597203Y-95739999D01*
X126699991Y-95750500D01*
X128800008Y-95750499D01*
X128902797Y-95739999D01*
X129069334Y-95684814D01*
X129218656Y-95592712D01*
X129342712Y-95468656D01*
X129434814Y-95319334D01*
X129489999Y-95152797D01*
X129500500Y-95050009D01*
X129500499Y-92949992D01*
X129489999Y-92847203D01*
X129434814Y-92680666D01*
X129342712Y-92531344D01*
X129218656Y-92407288D01*
X129125888Y-92350069D01*
X129069336Y-92315187D01*
X129069331Y-92315185D01*
X129067862Y-92314698D01*
X128902797Y-92260001D01*
X128902795Y-92260000D01*
X128800010Y-92249500D01*
X126699998Y-92249500D01*
X126699981Y-92249501D01*
X126597203Y-92260000D01*
X126597200Y-92260001D01*
X126430668Y-92315185D01*
X126430663Y-92315187D01*
X126281342Y-92407289D01*
X126157289Y-92531342D01*
X126065187Y-92680663D01*
X126065185Y-92680668D01*
X126063638Y-92685337D01*
X126010001Y-92847203D01*
X126010001Y-92847204D01*
X126010000Y-92847204D01*
X125999500Y-92949983D01*
X121900751Y-92949983D01*
X121821884Y-92847203D01*
X121818919Y-92843339D01*
X121818918Y-92843338D01*
X121818911Y-92843330D01*
X121656670Y-92681089D01*
X121656661Y-92681081D01*
X121474617Y-92541392D01*
X121275890Y-92426657D01*
X121275876Y-92426650D01*
X121063887Y-92338842D01*
X120975604Y-92315187D01*
X120842238Y-92279452D01*
X120804215Y-92274446D01*
X120614741Y-92249500D01*
X120614734Y-92249500D01*
X120385266Y-92249500D01*
X120385258Y-92249500D01*
X120168715Y-92278009D01*
X120157762Y-92279452D01*
X120132328Y-92286267D01*
X119936112Y-92338842D01*
X119724123Y-92426650D01*
X119724109Y-92426657D01*
X119525382Y-92541392D01*
X119343338Y-92681081D01*
X119181081Y-92843338D01*
X119041392Y-93025382D01*
X118926657Y-93224109D01*
X118926650Y-93224123D01*
X118838842Y-93436112D01*
X118779453Y-93657759D01*
X118779451Y-93657770D01*
X118749500Y-93885258D01*
X117250499Y-93885258D01*
X117250499Y-92949992D01*
X117239999Y-92847203D01*
X117184814Y-92680666D01*
X117092712Y-92531344D01*
X116968656Y-92407288D01*
X116875888Y-92350069D01*
X116819336Y-92315187D01*
X116819331Y-92315185D01*
X116817862Y-92314698D01*
X116652797Y-92260001D01*
X116652795Y-92260000D01*
X116550010Y-92249500D01*
X114449998Y-92249500D01*
X114449981Y-92249501D01*
X114347203Y-92260000D01*
X114347200Y-92260001D01*
X114180668Y-92315185D01*
X114180663Y-92315187D01*
X114031342Y-92407289D01*
X113907289Y-92531342D01*
X113815187Y-92680663D01*
X113815185Y-92680668D01*
X113813638Y-92685337D01*
X113760001Y-92847203D01*
X113760001Y-92847204D01*
X113760000Y-92847204D01*
X113749500Y-92949983D01*
X108219462Y-92949983D01*
X108571064Y-92598381D01*
X108571064Y-92598380D01*
X108497331Y-92541805D01*
X108497324Y-92541799D01*
X108298669Y-92427106D01*
X108298659Y-92427102D01*
X108086730Y-92339318D01*
X107865137Y-92279942D01*
X107637710Y-92250001D01*
X107637694Y-92250000D01*
X107408306Y-92250000D01*
X107408289Y-92250001D01*
X107180862Y-92279942D01*
X106959269Y-92339318D01*
X106747340Y-92427102D01*
X106747330Y-92427106D01*
X106548673Y-92541801D01*
X106548659Y-92541810D01*
X106474934Y-92598380D01*
X107275511Y-93398958D01*
X107215110Y-93423978D01*
X107108649Y-93495112D01*
X107018112Y-93585649D01*
X106946978Y-93692110D01*
X106921958Y-93752511D01*
X106121380Y-92951934D01*
X106064810Y-93025659D01*
X106064801Y-93025673D01*
X105950106Y-93224330D01*
X105950102Y-93224340D01*
X105862318Y-93436269D01*
X105802942Y-93657862D01*
X105773001Y-93885289D01*
X105773000Y-93885305D01*
X104273499Y-93885305D01*
X104273499Y-92949992D01*
X104262999Y-92847203D01*
X104207814Y-92680666D01*
X104115712Y-92531344D01*
X103991656Y-92407288D01*
X103898888Y-92350069D01*
X103842336Y-92315187D01*
X103842331Y-92315185D01*
X103840862Y-92314698D01*
X103675797Y-92260001D01*
X103675795Y-92260000D01*
X103573010Y-92249500D01*
X101472998Y-92249500D01*
X101472981Y-92249501D01*
X101370203Y-92260000D01*
X101370200Y-92260001D01*
X101203668Y-92315185D01*
X101203663Y-92315187D01*
X101054342Y-92407289D01*
X100930289Y-92531342D01*
X100838187Y-92680663D01*
X100838185Y-92680668D01*
X100836638Y-92685337D01*
X100783001Y-92847203D01*
X100783001Y-92847204D01*
X100783000Y-92847204D01*
X100772500Y-92949983D01*
X96150751Y-92949983D01*
X96071884Y-92847203D01*
X96068919Y-92843339D01*
X96068918Y-92843338D01*
X96068911Y-92843330D01*
X95906670Y-92681089D01*
X95906661Y-92681081D01*
X95724617Y-92541392D01*
X95525890Y-92426657D01*
X95525876Y-92426650D01*
X95313887Y-92338842D01*
X95225604Y-92315187D01*
X95092238Y-92279452D01*
X95054215Y-92274446D01*
X94864741Y-92249500D01*
X94864734Y-92249500D01*
X94635266Y-92249500D01*
X94635258Y-92249500D01*
X94418715Y-92278009D01*
X94407762Y-92279452D01*
X94382328Y-92286267D01*
X94186112Y-92338842D01*
X93974123Y-92426650D01*
X93974109Y-92426657D01*
X93775382Y-92541392D01*
X93593338Y-92681081D01*
X93431081Y-92843338D01*
X93291392Y-93025382D01*
X93176657Y-93224109D01*
X93176650Y-93224123D01*
X93088842Y-93436112D01*
X93029453Y-93657759D01*
X93029451Y-93657770D01*
X92999500Y-93885258D01*
X91500499Y-93885258D01*
X91470548Y-93657762D01*
X91411158Y-93436113D01*
X91344446Y-93275056D01*
X91323349Y-93224123D01*
X91323346Y-93224117D01*
X91323344Y-93224112D01*
X91208611Y-93025388D01*
X91208608Y-93025385D01*
X91208607Y-93025382D01*
X91071884Y-92847203D01*
X91068919Y-92843339D01*
X91068918Y-92843338D01*
X91068911Y-92843330D01*
X90906670Y-92681089D01*
X90906661Y-92681081D01*
X90724617Y-92541392D01*
X90525890Y-92426657D01*
X90525876Y-92426650D01*
X90313887Y-92338842D01*
X90225604Y-92315187D01*
X90092238Y-92279452D01*
X90054215Y-92274446D01*
X89864741Y-92249500D01*
X89864734Y-92249500D01*
X89635266Y-92249500D01*
X89635258Y-92249500D01*
X89418715Y-92278009D01*
X89407762Y-92279452D01*
X89382328Y-92286267D01*
X89186112Y-92338842D01*
X88974123Y-92426650D01*
X88974109Y-92426657D01*
X88775382Y-92541392D01*
X88593338Y-92681081D01*
X88431081Y-92843338D01*
X88291392Y-93025382D01*
X88176657Y-93224109D01*
X88176650Y-93224123D01*
X88088842Y-93436112D01*
X88029453Y-93657759D01*
X88029451Y-93657770D01*
X87999500Y-93885258D01*
X86500499Y-93885258D01*
X86500499Y-92949992D01*
X86489999Y-92847203D01*
X86434814Y-92680666D01*
X86342712Y-92531344D01*
X86218656Y-92407288D01*
X86125888Y-92350069D01*
X86069336Y-92315187D01*
X86069331Y-92315185D01*
X86067862Y-92314698D01*
X85902797Y-92260001D01*
X85902795Y-92260000D01*
X85800010Y-92249500D01*
X83699998Y-92249500D01*
X83699981Y-92249501D01*
X83597203Y-92260000D01*
X83597200Y-92260001D01*
X83430668Y-92315185D01*
X83430663Y-92315187D01*
X83281342Y-92407289D01*
X83157289Y-92531342D01*
X83065187Y-92680663D01*
X83065185Y-92680668D01*
X83063638Y-92685337D01*
X83010001Y-92847203D01*
X83010001Y-92847204D01*
X83010000Y-92847204D01*
X82999500Y-92949983D01*
X82999500Y-94311327D01*
X82979815Y-94378366D01*
X82927011Y-94424121D01*
X82857853Y-94434065D01*
X82794297Y-94405040D01*
X82787819Y-94399008D01*
X79136819Y-90748008D01*
X79103334Y-90686685D01*
X79100500Y-90660327D01*
X79100500Y-85979601D01*
X79120185Y-85912562D01*
X79168206Y-85869116D01*
X79181610Y-85862287D01*
X79347219Y-85741966D01*
X79491966Y-85597219D01*
X79491968Y-85597215D01*
X79491971Y-85597213D01*
X79544732Y-85524590D01*
X79612287Y-85431610D01*
X79705220Y-85249219D01*
X79768477Y-85054534D01*
X79800500Y-84852352D01*
X79800500Y-84647648D01*
X79768477Y-84445466D01*
X79746973Y-84379285D01*
X79705218Y-84250776D01*
X79653577Y-84149427D01*
X79612287Y-84068390D01*
X79604556Y-84057749D01*
X79491971Y-83902786D01*
X79347213Y-83758028D01*
X79181613Y-83637715D01*
X79181612Y-83637714D01*
X79181610Y-83637713D01*
X79089770Y-83590918D01*
X78999223Y-83544781D01*
X78804534Y-83481522D01*
X78629995Y-83453878D01*
X78602352Y-83449500D01*
X78397648Y-83449500D01*
X78373329Y-83453351D01*
X78195465Y-83481522D01*
X78000776Y-83544781D01*
X77818386Y-83637715D01*
X77652786Y-83758028D01*
X77508028Y-83902786D01*
X77387715Y-84068386D01*
X77294781Y-84250776D01*
X77231522Y-84445465D01*
X77199500Y-84647648D01*
X77199500Y-84852351D01*
X77231522Y-85054534D01*
X77294781Y-85249223D01*
X77335697Y-85329523D01*
X77385727Y-85427713D01*
X77387715Y-85431613D01*
X77508028Y-85597213D01*
X77508034Y-85597219D01*
X77652781Y-85741966D01*
X77818390Y-85862287D01*
X77831793Y-85869116D01*
X77882589Y-85917088D01*
X77899500Y-85979601D01*
X77899500Y-90873754D01*
X77899499Y-90873772D01*
X77899499Y-91039478D01*
X77899498Y-91039478D01*
X77940423Y-91192209D01*
X77969358Y-91242324D01*
X77969359Y-91242328D01*
X77969360Y-91242328D01*
X78019479Y-91329138D01*
X78019481Y-91329141D01*
X78138349Y-91448009D01*
X78138355Y-91448014D01*
X84054715Y-97364374D01*
X84054725Y-97364385D01*
X84059055Y-97368715D01*
X84059056Y-97368716D01*
X84170860Y-97480520D01*
X84257671Y-97530639D01*
X84257673Y-97530641D01*
X84307789Y-97559576D01*
X84307791Y-97559577D01*
X84460518Y-97600500D01*
X84460519Y-97600500D01*
X132413331Y-97600500D01*
X132413347Y-97600501D01*
X132420943Y-97600501D01*
X132579054Y-97600501D01*
X132579057Y-97600501D01*
X132731785Y-97559577D01*
X132781904Y-97530639D01*
X132868716Y-97480520D01*
X132980520Y-97368716D01*
X132980520Y-97368714D01*
X132990728Y-97358507D01*
X132990729Y-97358504D01*
X138262416Y-92086819D01*
X138323739Y-92053334D01*
X138350097Y-92050500D01*
X145399381Y-92050500D01*
X145466420Y-92070185D01*
X145512175Y-92122989D01*
X145519824Y-92166271D01*
X146203554Y-92850000D01*
X146197339Y-92850000D01*
X146095606Y-92877259D01*
X146004394Y-92929920D01*
X145929920Y-93004394D01*
X145877259Y-93095606D01*
X145850000Y-93197339D01*
X145850000Y-93203553D01*
X145170524Y-92524077D01*
X145170523Y-92524077D01*
X145138143Y-92568644D01*
X145045244Y-92750968D01*
X144982009Y-92945582D01*
X144950000Y-93147682D01*
X144950000Y-93352317D01*
X144982009Y-93554417D01*
X145045244Y-93749031D01*
X145138141Y-93931350D01*
X145138147Y-93931359D01*
X145170523Y-93975921D01*
X145170524Y-93975922D01*
X145850000Y-93296446D01*
X145850000Y-93302661D01*
X145877259Y-93404394D01*
X145929920Y-93495606D01*
X146004394Y-93570080D01*
X146095606Y-93622741D01*
X146197339Y-93650000D01*
X146203553Y-93650000D01*
X145519067Y-94334483D01*
X145508633Y-94384150D01*
X145459581Y-94433906D01*
X145405365Y-94448000D01*
X145405423Y-94449099D01*
X145405429Y-94449146D01*
X145405426Y-94449146D01*
X145405436Y-94449324D01*
X145402123Y-94449501D01*
X145342516Y-94455908D01*
X145207671Y-94506202D01*
X145207664Y-94506206D01*
X145092455Y-94592452D01*
X145092452Y-94592455D01*
X145006206Y-94707664D01*
X145006202Y-94707671D01*
X144955908Y-94842517D01*
X144949501Y-94902116D01*
X144949501Y-94902123D01*
X144949500Y-94902135D01*
X144949500Y-96597870D01*
X144949501Y-96597876D01*
X144955908Y-96657483D01*
X145006202Y-96792328D01*
X145006206Y-96792335D01*
X145092452Y-96907544D01*
X145092455Y-96907547D01*
X145207664Y-96993793D01*
X145207671Y-96993797D01*
X145342517Y-97044091D01*
X145342516Y-97044091D01*
X145349444Y-97044835D01*
X145402127Y-97050500D01*
X147097872Y-97050499D01*
X147157483Y-97044091D01*
X147292331Y-96993796D01*
X147407546Y-96907546D01*
X147493796Y-96792331D01*
X147544091Y-96657483D01*
X147550500Y-96597873D01*
X147550499Y-94902128D01*
X147544091Y-94842517D01*
X147519158Y-94775669D01*
X147493797Y-94707671D01*
X147493793Y-94707664D01*
X147407547Y-94592455D01*
X147407544Y-94592452D01*
X147292335Y-94506206D01*
X147292328Y-94506202D01*
X147157482Y-94455908D01*
X147157483Y-94455908D01*
X147097883Y-94449501D01*
X147097881Y-94449500D01*
X147097873Y-94449500D01*
X147097864Y-94449500D01*
X147094548Y-94449322D01*
X147094632Y-94447742D01*
X147033579Y-94429815D01*
X146987824Y-94377011D01*
X146980173Y-94333725D01*
X146296447Y-93650000D01*
X146302661Y-93650000D01*
X146404394Y-93622741D01*
X146495606Y-93570080D01*
X146570080Y-93495606D01*
X146622741Y-93404394D01*
X146650000Y-93302661D01*
X146650000Y-93296447D01*
X147329474Y-93975921D01*
X147361859Y-93931349D01*
X147454755Y-93749031D01*
X147517990Y-93554417D01*
X147550000Y-93352317D01*
X147550000Y-93147682D01*
X147517990Y-92945582D01*
X147454755Y-92750968D01*
X147361859Y-92568650D01*
X147329474Y-92524077D01*
X147329474Y-92524076D01*
X146650000Y-93203551D01*
X146650000Y-93197339D01*
X146622741Y-93095606D01*
X146570080Y-93004394D01*
X146495606Y-92929920D01*
X146404394Y-92877259D01*
X146302661Y-92850000D01*
X146296446Y-92850000D01*
X146980932Y-92165514D01*
X146991366Y-92115850D01*
X147040418Y-92066094D01*
X147100619Y-92050500D01*
X169039017Y-92050500D01*
X169106056Y-92070185D01*
X169149501Y-92118204D01*
X169173315Y-92164942D01*
X169173731Y-92165514D01*
X169299523Y-92338651D01*
X169451349Y-92490477D01*
X169599864Y-92598380D01*
X169628998Y-92619547D01*
X169627624Y-92621437D01*
X169668030Y-92666152D01*
X169679411Y-92735089D01*
X169651715Y-92799235D01*
X169628314Y-92819511D01*
X169628998Y-92820453D01*
X169625056Y-92823316D01*
X169625056Y-92823317D01*
X169451349Y-92949523D01*
X169451347Y-92949525D01*
X169451346Y-92949525D01*
X169299525Y-93101346D01*
X169299525Y-93101347D01*
X169299523Y-93101349D01*
X169265860Y-93147682D01*
X169173317Y-93275055D01*
X169075838Y-93466366D01*
X169075837Y-93466369D01*
X169009489Y-93670571D01*
X169009489Y-93670573D01*
X168975900Y-93882643D01*
X168975900Y-94097357D01*
X168985133Y-94155652D01*
X169009489Y-94309428D01*
X169075837Y-94513630D01*
X169075838Y-94513633D01*
X169173317Y-94704944D01*
X169299523Y-94878651D01*
X169299525Y-94878653D01*
X169396211Y-94975339D01*
X169429696Y-95036662D01*
X169424712Y-95106354D01*
X169382840Y-95162287D01*
X169351863Y-95179202D01*
X169234313Y-95223045D01*
X169234306Y-95223049D01*
X169119212Y-95309209D01*
X169119209Y-95309212D01*
X169033049Y-95424306D01*
X169033045Y-95424313D01*
X168982803Y-95559020D01*
X168982801Y-95559027D01*
X168976400Y-95618555D01*
X168976400Y-96280000D01*
X169897749Y-96280000D01*
X169866619Y-96333919D01*
X169832000Y-96463120D01*
X169832000Y-96596880D01*
X169866619Y-96726081D01*
X169897749Y-96780000D01*
X168976400Y-96780000D01*
X168976400Y-97441444D01*
X168982801Y-97500972D01*
X168982803Y-97500979D01*
X169033045Y-97635686D01*
X169033049Y-97635693D01*
X169119209Y-97750787D01*
X169119212Y-97750790D01*
X169234306Y-97836950D01*
X169234313Y-97836954D01*
X169351863Y-97880797D01*
X169407797Y-97922668D01*
X169432214Y-97988132D01*
X169417363Y-98056405D01*
X169396212Y-98084660D01*
X169299522Y-98181350D01*
X169173317Y-98355055D01*
X169075838Y-98546366D01*
X169075837Y-98546369D01*
X169009489Y-98750571D01*
X168975900Y-98962643D01*
X168975900Y-99177356D01*
X169009489Y-99389428D01*
X169075837Y-99593630D01*
X169075838Y-99593633D01*
X169161805Y-99762351D01*
X169173317Y-99784944D01*
X169299523Y-99958651D01*
X169451349Y-100110477D01*
X169625056Y-100236683D01*
X169628998Y-100239547D01*
X169627624Y-100241437D01*
X169668030Y-100286152D01*
X169679411Y-100355089D01*
X169651715Y-100419235D01*
X169628314Y-100439511D01*
X169628998Y-100440453D01*
X169625056Y-100443316D01*
X169625056Y-100443317D01*
X169451349Y-100569523D01*
X169451347Y-100569525D01*
X169451346Y-100569525D01*
X169299525Y-100721346D01*
X169299525Y-100721347D01*
X169299523Y-100721349D01*
X169262514Y-100772287D01*
X169173317Y-100895055D01*
X169075838Y-101086366D01*
X169075837Y-101086369D01*
X169009489Y-101290571D01*
X168975900Y-101502643D01*
X168975900Y-101717356D01*
X169009489Y-101929428D01*
X169075837Y-102133630D01*
X169075838Y-102133631D01*
X169075839Y-102133633D01*
X169173317Y-102324944D01*
X169299523Y-102498651D01*
X169451349Y-102650477D01*
X169625056Y-102776683D01*
X169628998Y-102779547D01*
X169627624Y-102781437D01*
X169668030Y-102826152D01*
X169679411Y-102895089D01*
X169651715Y-102959235D01*
X169628314Y-102979511D01*
X169628998Y-102980453D01*
X169625056Y-102983316D01*
X169625056Y-102983317D01*
X169451349Y-103109523D01*
X169451347Y-103109525D01*
X169451346Y-103109525D01*
X169299525Y-103261346D01*
X169299525Y-103261347D01*
X169299523Y-103261349D01*
X169245322Y-103335949D01*
X169173317Y-103435055D01*
X169075838Y-103626366D01*
X169075837Y-103626369D01*
X169009489Y-103830571D01*
X168975900Y-104042643D01*
X168975900Y-104257356D01*
X169009489Y-104469428D01*
X169075837Y-104673630D01*
X169075838Y-104673633D01*
X169173317Y-104864944D01*
X169299523Y-105038651D01*
X169451349Y-105190477D01*
X169625056Y-105316683D01*
X169718888Y-105364492D01*
X169816366Y-105414161D01*
X169816369Y-105414162D01*
X169918470Y-105447336D01*
X170020573Y-105480511D01*
X170232643Y-105514100D01*
X170232644Y-105514100D01*
X170447356Y-105514100D01*
X170447357Y-105514100D01*
X170659427Y-105480511D01*
X170863633Y-105414161D01*
X171054944Y-105316683D01*
X171228651Y-105190477D01*
X171380477Y-105038651D01*
X171506683Y-104864944D01*
X171604161Y-104673633D01*
X171670511Y-104469427D01*
X171704100Y-104257357D01*
X171704100Y-104042643D01*
X171670511Y-103830573D01*
X171604161Y-103626367D01*
X171604161Y-103626366D01*
X171506682Y-103435055D01*
X171380477Y-103261349D01*
X171228651Y-103109523D01*
X171054944Y-102983317D01*
X171054943Y-102983316D01*
X171051002Y-102980453D01*
X171052405Y-102978521D01*
X171012078Y-102934073D01*
X171000558Y-102865160D01*
X171028125Y-102800958D01*
X171051709Y-102780521D01*
X171051002Y-102779547D01*
X171054944Y-102776683D01*
X171228651Y-102650477D01*
X171380477Y-102498651D01*
X171506683Y-102324944D01*
X171604161Y-102133633D01*
X171670511Y-101929427D01*
X171704100Y-101717357D01*
X171704100Y-101502643D01*
X171670511Y-101290573D01*
X171604161Y-101086367D01*
X171604161Y-101086366D01*
X171523712Y-100928477D01*
X171506683Y-100895056D01*
X171380477Y-100721349D01*
X171228651Y-100569523D01*
X171054944Y-100443317D01*
X171054943Y-100443316D01*
X171051002Y-100440453D01*
X171052405Y-100438521D01*
X171012078Y-100394073D01*
X171000558Y-100325160D01*
X171028125Y-100260958D01*
X171051709Y-100240521D01*
X171051002Y-100239547D01*
X171054944Y-100236683D01*
X171228651Y-100110477D01*
X171380477Y-99958651D01*
X171506683Y-99784944D01*
X171604161Y-99593633D01*
X171670511Y-99389427D01*
X171704100Y-99177357D01*
X171704100Y-98962643D01*
X171670511Y-98750573D01*
X171604599Y-98547715D01*
X171604162Y-98546369D01*
X171604161Y-98546366D01*
X171506682Y-98355055D01*
X171380477Y-98181349D01*
X171283788Y-98084660D01*
X171250303Y-98023337D01*
X171255287Y-97953645D01*
X171297159Y-97897712D01*
X171328137Y-97880797D01*
X171445684Y-97836955D01*
X171445693Y-97836950D01*
X171560787Y-97750790D01*
X171560790Y-97750787D01*
X171646950Y-97635693D01*
X171646954Y-97635686D01*
X171697196Y-97500979D01*
X171697198Y-97500972D01*
X171703599Y-97441444D01*
X171703600Y-97441427D01*
X171703600Y-96780000D01*
X170782251Y-96780000D01*
X170813381Y-96726081D01*
X170848000Y-96596880D01*
X170848000Y-96463120D01*
X170813381Y-96333919D01*
X170782251Y-96280000D01*
X171703600Y-96280000D01*
X171703600Y-95618572D01*
X171703599Y-95618555D01*
X171697198Y-95559027D01*
X171697196Y-95559020D01*
X171646954Y-95424313D01*
X171646950Y-95424306D01*
X171560790Y-95309212D01*
X171560787Y-95309209D01*
X171445693Y-95223049D01*
X171445686Y-95223045D01*
X171328136Y-95179202D01*
X171272202Y-95137331D01*
X171247785Y-95071866D01*
X171262637Y-95003593D01*
X171283782Y-94975345D01*
X171380477Y-94878651D01*
X171506683Y-94704944D01*
X171604161Y-94513633D01*
X171670511Y-94309427D01*
X171704100Y-94097357D01*
X171704100Y-93882643D01*
X171670511Y-93670573D01*
X171604161Y-93466367D01*
X171604161Y-93466366D01*
X171554492Y-93368888D01*
X171506683Y-93275056D01*
X171380477Y-93101349D01*
X171228651Y-92949523D01*
X171054944Y-92823317D01*
X171054943Y-92823316D01*
X171051002Y-92820453D01*
X171052405Y-92818521D01*
X171012078Y-92774073D01*
X171000558Y-92705160D01*
X171028125Y-92640958D01*
X171051709Y-92620521D01*
X171051002Y-92619547D01*
X171080134Y-92598381D01*
X171228651Y-92490477D01*
X171380477Y-92338651D01*
X171506683Y-92164944D01*
X171604161Y-91973633D01*
X171670511Y-91769427D01*
X171704100Y-91557357D01*
X171704100Y-91342643D01*
X171670511Y-91130573D01*
X171640913Y-91039478D01*
X171632251Y-91012818D01*
X171630256Y-90942976D01*
X171666337Y-90883144D01*
X171729038Y-90852316D01*
X171750182Y-90850500D01*
X181539903Y-90850500D01*
X181606942Y-90870185D01*
X181627584Y-90886819D01*
X189315448Y-98574684D01*
X189348933Y-98636007D01*
X189345699Y-98700681D01*
X189329488Y-98750573D01*
X189295900Y-98962643D01*
X189295900Y-99177356D01*
X189329489Y-99389428D01*
X189395837Y-99593630D01*
X189395838Y-99593633D01*
X189481805Y-99762351D01*
X189493317Y-99784944D01*
X189619523Y-99958651D01*
X189771349Y-100110477D01*
X189945056Y-100236683D01*
X189948998Y-100239547D01*
X189947624Y-100241437D01*
X189988030Y-100286152D01*
X189999411Y-100355089D01*
X189971715Y-100419235D01*
X189948314Y-100439511D01*
X189948998Y-100440453D01*
X189945056Y-100443316D01*
X189945056Y-100443317D01*
X189771349Y-100569523D01*
X189771347Y-100569525D01*
X189771346Y-100569525D01*
X189619525Y-100721346D01*
X189619525Y-100721347D01*
X189619523Y-100721349D01*
X189582514Y-100772287D01*
X189493317Y-100895055D01*
X189395838Y-101086366D01*
X189395837Y-101086369D01*
X189329489Y-101290571D01*
X189295900Y-101502643D01*
X189295900Y-101717356D01*
X189329489Y-101929428D01*
X189395837Y-102133630D01*
X189395838Y-102133631D01*
X189395839Y-102133633D01*
X189493317Y-102324944D01*
X189619523Y-102498651D01*
X189771349Y-102650477D01*
X189945056Y-102776683D01*
X189948998Y-102779547D01*
X189947624Y-102781437D01*
X189988030Y-102826152D01*
X189999411Y-102895089D01*
X189971715Y-102959235D01*
X189948314Y-102979511D01*
X189948998Y-102980453D01*
X189945056Y-102983316D01*
X189945056Y-102983317D01*
X189771349Y-103109523D01*
X189771347Y-103109525D01*
X189771346Y-103109525D01*
X189619525Y-103261346D01*
X189619525Y-103261347D01*
X189619523Y-103261349D01*
X189565322Y-103335949D01*
X189493317Y-103435055D01*
X189395838Y-103626366D01*
X189395837Y-103626369D01*
X189329489Y-103830571D01*
X189295900Y-104042643D01*
X189295900Y-104257356D01*
X189329489Y-104469428D01*
X189395837Y-104673630D01*
X189395838Y-104673633D01*
X189493317Y-104864944D01*
X189619523Y-105038651D01*
X189771349Y-105190477D01*
X189945056Y-105316683D01*
X190038888Y-105364492D01*
X190136366Y-105414161D01*
X190136369Y-105414162D01*
X190238470Y-105447336D01*
X190340573Y-105480511D01*
X190552643Y-105514100D01*
X190552644Y-105514100D01*
X190767356Y-105514100D01*
X190767357Y-105514100D01*
X190979427Y-105480511D01*
X191183633Y-105414161D01*
X191374944Y-105316683D01*
X191548651Y-105190477D01*
X191700477Y-105038651D01*
X191826683Y-104864944D01*
X191924161Y-104673633D01*
X191990511Y-104469427D01*
X192024100Y-104257357D01*
X192024100Y-104042643D01*
X191990511Y-103830573D01*
X191924161Y-103626367D01*
X191924161Y-103626366D01*
X191826682Y-103435055D01*
X191700477Y-103261349D01*
X191548651Y-103109523D01*
X191374944Y-102983317D01*
X191374943Y-102983316D01*
X191371002Y-102980453D01*
X191372405Y-102978521D01*
X191332078Y-102934073D01*
X191320558Y-102865160D01*
X191348125Y-102800958D01*
X191371709Y-102780521D01*
X191371002Y-102779547D01*
X191374944Y-102776683D01*
X191548651Y-102650477D01*
X191700477Y-102498651D01*
X191826683Y-102324944D01*
X191827215Y-102323898D01*
X191850499Y-102278204D01*
X191898473Y-102227409D01*
X191960983Y-102210500D01*
X197522831Y-102210500D01*
X197522847Y-102210501D01*
X197530443Y-102210501D01*
X197688554Y-102210501D01*
X197688557Y-102210501D01*
X197841285Y-102169577D01*
X197903541Y-102133633D01*
X197978216Y-102090520D01*
X198090020Y-101978716D01*
X198090020Y-101978714D01*
X198100224Y-101968511D01*
X198100228Y-101968506D01*
X201959506Y-98109228D01*
X201959511Y-98109224D01*
X201969714Y-98099020D01*
X201969716Y-98099020D01*
X202081520Y-97987216D01*
X202160577Y-97850284D01*
X202201500Y-97697557D01*
X202201500Y-93371683D01*
X202160577Y-93218956D01*
X202148097Y-93197339D01*
X202081524Y-93082030D01*
X202081521Y-93082026D01*
X202081520Y-93082024D01*
X201969716Y-92970220D01*
X201969715Y-92970219D01*
X201965385Y-92965889D01*
X201965374Y-92965879D01*
X201461126Y-92461631D01*
X201427641Y-92400308D01*
X201432625Y-92330616D01*
X201461126Y-92286269D01*
X201480104Y-92267292D01*
X201480106Y-92267288D01*
X201480109Y-92267286D01*
X201605048Y-92095320D01*
X201605047Y-92095320D01*
X201605051Y-92095316D01*
X201701557Y-91905912D01*
X201767246Y-91703743D01*
X201800500Y-91493787D01*
X201800500Y-91281213D01*
X201767246Y-91071257D01*
X201753506Y-91028973D01*
X201751512Y-90959135D01*
X201783755Y-90902978D01*
X202390520Y-90296216D01*
X202469577Y-90159285D01*
X202510501Y-90006557D01*
X202510501Y-89848442D01*
X202510501Y-89840847D01*
X202510500Y-89840829D01*
X202510500Y-71089059D01*
X202510501Y-71089046D01*
X202510501Y-70920945D01*
X202510501Y-70920943D01*
X202469577Y-70768215D01*
X202469576Y-70768214D01*
X202469576Y-70768212D01*
X202469574Y-70768209D01*
X202434111Y-70706786D01*
X202434110Y-70706785D01*
X202390520Y-70631284D01*
X202278716Y-70519480D01*
X202278715Y-70519479D01*
X202274385Y-70515149D01*
X202274374Y-70515139D01*
X194604762Y-62845527D01*
X196999478Y-62845527D01*
X196999478Y-63154472D01*
X197034064Y-63461441D01*
X197034067Y-63461455D01*
X197102810Y-63762641D01*
X197102814Y-63762653D01*
X197204842Y-64054231D01*
X197204848Y-64054245D01*
X197338884Y-64332573D01*
X197338886Y-64332576D01*
X197503247Y-64594156D01*
X197695863Y-64835689D01*
X197914311Y-65054137D01*
X198155844Y-65246753D01*
X198417424Y-65411114D01*
X198695762Y-65545155D01*
X198792960Y-65579166D01*
X198987346Y-65647185D01*
X198987358Y-65647189D01*
X199288544Y-65715933D01*
X199288553Y-65715934D01*
X199288558Y-65715935D01*
X199493204Y-65738992D01*
X199595528Y-65750521D01*
X199595531Y-65750522D01*
X199595534Y-65750522D01*
X199904469Y-65750522D01*
X199904470Y-65750521D01*
X200061356Y-65732844D01*
X200211441Y-65715935D01*
X200211444Y-65715934D01*
X200211456Y-65715933D01*
X200512642Y-65647189D01*
X200804238Y-65545155D01*
X201082576Y-65411114D01*
X201344156Y-65246753D01*
X201585689Y-65054137D01*
X201804137Y-64835689D01*
X201996753Y-64594156D01*
X202161114Y-64332576D01*
X202295155Y-64054238D01*
X202397189Y-63762642D01*
X202465933Y-63461456D01*
X202479470Y-63341315D01*
X202500521Y-63154472D01*
X202500522Y-63154468D01*
X202500522Y-62845531D01*
X202500521Y-62845527D01*
X202465935Y-62538558D01*
X202465934Y-62538553D01*
X202465933Y-62538544D01*
X202397189Y-62237358D01*
X202295155Y-61945762D01*
X202161114Y-61667424D01*
X201996753Y-61405844D01*
X201804137Y-61164311D01*
X201585689Y-60945863D01*
X201344156Y-60753247D01*
X201082576Y-60588886D01*
X201082573Y-60588884D01*
X200804245Y-60454848D01*
X200804231Y-60454842D01*
X200512653Y-60352814D01*
X200512641Y-60352810D01*
X200280199Y-60299757D01*
X200211456Y-60284067D01*
X200211453Y-60284066D01*
X200211441Y-60284064D01*
X199904472Y-60249478D01*
X199904466Y-60249478D01*
X199595534Y-60249478D01*
X199595527Y-60249478D01*
X199288558Y-60284064D01*
X199288544Y-60284067D01*
X198987358Y-60352810D01*
X198987346Y-60352814D01*
X198695768Y-60454842D01*
X198695754Y-60454848D01*
X198417426Y-60588884D01*
X198155845Y-60753246D01*
X197914311Y-60945862D01*
X197695862Y-61164311D01*
X197503246Y-61405845D01*
X197338884Y-61667426D01*
X197204848Y-61945754D01*
X197204842Y-61945768D01*
X197102814Y-62237346D01*
X197102810Y-62237358D01*
X197034067Y-62538544D01*
X197034064Y-62538558D01*
X196999478Y-62845527D01*
X194604762Y-62845527D01*
X189647590Y-57888355D01*
X189647588Y-57888352D01*
X189528715Y-57769479D01*
X189491119Y-57747774D01*
X189463602Y-57731887D01*
X189415387Y-57681321D01*
X189402163Y-57612714D01*
X189428131Y-57547849D01*
X189485044Y-57507320D01*
X189525602Y-57500500D01*
X203934108Y-57500500D01*
X203993038Y-57500500D01*
X204006922Y-57501280D01*
X204097266Y-57511459D01*
X204124331Y-57517636D01*
X204203540Y-57545352D01*
X204228553Y-57557398D01*
X204299606Y-57602043D01*
X204321313Y-57619355D01*
X204380644Y-57678686D01*
X204397957Y-57700395D01*
X204442600Y-57771444D01*
X204454648Y-57796462D01*
X204482362Y-57875666D01*
X204488540Y-57902735D01*
X204498720Y-57993076D01*
X204499500Y-58006961D01*
X204499500Y-125993038D01*
X204498720Y-126006922D01*
X204498720Y-126006923D01*
X204488540Y-126097264D01*
X204482362Y-126124333D01*
X204454648Y-126203537D01*
X204442600Y-126228555D01*
X204397957Y-126299604D01*
X204380644Y-126321313D01*
X204321313Y-126380644D01*
X204299604Y-126397957D01*
X204228555Y-126442600D01*
X204203537Y-126454648D01*
X204124333Y-126482362D01*
X204097264Y-126488540D01*
X204017075Y-126497576D01*
X204006921Y-126498720D01*
X203993038Y-126499500D01*
X74006962Y-126499500D01*
X73993078Y-126498720D01*
X73980553Y-126497308D01*
X73902735Y-126488540D01*
X73875666Y-126482362D01*
X73796462Y-126454648D01*
X73771444Y-126442600D01*
X73700395Y-126397957D01*
X73678686Y-126380644D01*
X73619355Y-126321313D01*
X73602042Y-126299604D01*
X73557399Y-126228555D01*
X73545351Y-126203537D01*
X73517637Y-126124333D01*
X73511459Y-126097263D01*
X73501280Y-126006922D01*
X73500500Y-125993038D01*
X73500500Y-123928513D01*
X168899500Y-123928513D01*
X168899500Y-124141086D01*
X168932753Y-124351039D01*
X168998444Y-124553214D01*
X169094951Y-124742620D01*
X169219890Y-124914586D01*
X169370213Y-125064909D01*
X169542179Y-125189848D01*
X169542181Y-125189849D01*
X169542184Y-125189851D01*
X169731588Y-125286357D01*
X169933757Y-125352046D01*
X170143713Y-125385300D01*
X170143714Y-125385300D01*
X170356286Y-125385300D01*
X170356287Y-125385300D01*
X170566243Y-125352046D01*
X170768412Y-125286357D01*
X170957816Y-125189851D01*
X170979789Y-125173886D01*
X171129786Y-125064909D01*
X171129788Y-125064906D01*
X171129792Y-125064904D01*
X171280104Y-124914592D01*
X171280106Y-124914588D01*
X171280109Y-124914586D01*
X171405048Y-124742620D01*
X171405047Y-124742620D01*
X171405051Y-124742616D01*
X171501557Y-124553212D01*
X171567246Y-124351043D01*
X171600500Y-124141087D01*
X171600500Y-123928513D01*
X189399500Y-123928513D01*
X189399500Y-124141086D01*
X189432753Y-124351039D01*
X189498444Y-124553214D01*
X189594951Y-124742620D01*
X189719890Y-124914586D01*
X189870213Y-125064909D01*
X190042179Y-125189848D01*
X190042181Y-125189849D01*
X190042184Y-125189851D01*
X190231588Y-125286357D01*
X190433757Y-125352046D01*
X190643713Y-125385300D01*
X190643714Y-125385300D01*
X190856286Y-125385300D01*
X190856287Y-125385300D01*
X191066243Y-125352046D01*
X191268412Y-125286357D01*
X191457816Y-125189851D01*
X191479789Y-125173886D01*
X191629786Y-125064909D01*
X191629788Y-125064906D01*
X191629792Y-125064904D01*
X191780104Y-124914592D01*
X191780106Y-124914588D01*
X191780109Y-124914586D01*
X191905048Y-124742620D01*
X191905047Y-124742620D01*
X191905051Y-124742616D01*
X192001557Y-124553212D01*
X192067246Y-124351043D01*
X192100500Y-124141087D01*
X192100500Y-123928513D01*
X192067246Y-123718557D01*
X192001557Y-123516388D01*
X191905051Y-123326984D01*
X191905049Y-123326981D01*
X191905048Y-123326979D01*
X191780109Y-123155013D01*
X191629786Y-123004690D01*
X191457820Y-122879751D01*
X191268414Y-122783244D01*
X191268413Y-122783243D01*
X191268412Y-122783243D01*
X191066243Y-122717554D01*
X191066241Y-122717553D01*
X191066240Y-122717553D01*
X190904957Y-122692008D01*
X190856287Y-122684300D01*
X190643713Y-122684300D01*
X190595042Y-122692008D01*
X190433760Y-122717553D01*
X190231585Y-122783244D01*
X190042179Y-122879751D01*
X189870213Y-123004690D01*
X189719890Y-123155013D01*
X189594951Y-123326979D01*
X189498444Y-123516385D01*
X189432753Y-123718560D01*
X189399500Y-123928513D01*
X171600500Y-123928513D01*
X171567246Y-123718557D01*
X171501557Y-123516388D01*
X171405051Y-123326984D01*
X171405049Y-123326981D01*
X171405048Y-123326979D01*
X171280109Y-123155013D01*
X171129786Y-123004690D01*
X170957820Y-122879751D01*
X170768414Y-122783244D01*
X170768413Y-122783243D01*
X170768412Y-122783243D01*
X170566243Y-122717554D01*
X170566241Y-122717553D01*
X170566240Y-122717553D01*
X170404957Y-122692008D01*
X170356287Y-122684300D01*
X170143713Y-122684300D01*
X170095042Y-122692008D01*
X169933760Y-122717553D01*
X169731585Y-122783244D01*
X169542179Y-122879751D01*
X169370213Y-123004690D01*
X169219890Y-123155013D01*
X169094951Y-123326979D01*
X168998444Y-123516385D01*
X168932753Y-123718560D01*
X168899500Y-123928513D01*
X73500500Y-123928513D01*
X73500500Y-120845527D01*
X75499478Y-120845527D01*
X75499478Y-121154472D01*
X75534064Y-121461441D01*
X75534067Y-121461455D01*
X75602810Y-121762641D01*
X75602814Y-121762653D01*
X75704842Y-122054231D01*
X75704848Y-122054245D01*
X75838884Y-122332573D01*
X75838886Y-122332576D01*
X76003247Y-122594156D01*
X76195863Y-122835689D01*
X76414311Y-123054137D01*
X76655844Y-123246753D01*
X76917424Y-123411114D01*
X77195762Y-123545155D01*
X77195768Y-123545157D01*
X77487346Y-123647185D01*
X77487358Y-123647189D01*
X77788544Y-123715933D01*
X77788553Y-123715934D01*
X77788558Y-123715935D01*
X77993204Y-123738992D01*
X78095528Y-123750521D01*
X78095531Y-123750522D01*
X78095534Y-123750522D01*
X78404469Y-123750522D01*
X78404470Y-123750521D01*
X78561356Y-123732844D01*
X78711441Y-123715935D01*
X78711444Y-123715934D01*
X78711456Y-123715933D01*
X79012642Y-123647189D01*
X79304238Y-123545155D01*
X79582576Y-123411114D01*
X79844156Y-123246753D01*
X80085689Y-123054137D01*
X80304137Y-122835689D01*
X80496753Y-122594156D01*
X80661114Y-122332576D01*
X80795155Y-122054238D01*
X80897189Y-121762642D01*
X80965933Y-121461456D01*
X80979470Y-121341315D01*
X81000521Y-121154472D01*
X81000522Y-121154468D01*
X81000522Y-120845531D01*
X81000521Y-120845527D01*
X196999478Y-120845527D01*
X196999478Y-121154472D01*
X197034064Y-121461441D01*
X197034067Y-121461455D01*
X197102810Y-121762641D01*
X197102814Y-121762653D01*
X197204842Y-122054231D01*
X197204848Y-122054245D01*
X197338884Y-122332573D01*
X197338886Y-122332576D01*
X197503247Y-122594156D01*
X197695863Y-122835689D01*
X197914311Y-123054137D01*
X198155844Y-123246753D01*
X198417424Y-123411114D01*
X198695762Y-123545155D01*
X198695768Y-123545157D01*
X198987346Y-123647185D01*
X198987358Y-123647189D01*
X199288544Y-123715933D01*
X199288553Y-123715934D01*
X199288558Y-123715935D01*
X199493204Y-123738992D01*
X199595528Y-123750521D01*
X199595531Y-123750522D01*
X199595534Y-123750522D01*
X199904469Y-123750522D01*
X199904470Y-123750521D01*
X200061356Y-123732844D01*
X200211441Y-123715935D01*
X200211444Y-123715934D01*
X200211456Y-123715933D01*
X200512642Y-123647189D01*
X200804238Y-123545155D01*
X201082576Y-123411114D01*
X201344156Y-123246753D01*
X201585689Y-123054137D01*
X201804137Y-122835689D01*
X201996753Y-122594156D01*
X202161114Y-122332576D01*
X202295155Y-122054238D01*
X202397189Y-121762642D01*
X202465933Y-121461456D01*
X202479470Y-121341315D01*
X202500521Y-121154472D01*
X202500522Y-121154468D01*
X202500522Y-120845531D01*
X202500521Y-120845527D01*
X202465935Y-120538558D01*
X202465934Y-120538553D01*
X202465933Y-120538544D01*
X202397189Y-120237358D01*
X202295155Y-119945762D01*
X202161114Y-119667424D01*
X201996753Y-119405844D01*
X201804137Y-119164311D01*
X201585689Y-118945863D01*
X201344156Y-118753247D01*
X201082576Y-118588886D01*
X201082573Y-118588884D01*
X200804245Y-118454848D01*
X200804231Y-118454842D01*
X200512653Y-118352814D01*
X200512641Y-118352810D01*
X200280199Y-118299757D01*
X200211456Y-118284067D01*
X200211453Y-118284066D01*
X200211441Y-118284064D01*
X199904472Y-118249478D01*
X199904466Y-118249478D01*
X199595534Y-118249478D01*
X199595527Y-118249478D01*
X199288558Y-118284064D01*
X199288544Y-118284067D01*
X198987358Y-118352810D01*
X198987346Y-118352814D01*
X198695768Y-118454842D01*
X198695754Y-118454848D01*
X198417426Y-118588884D01*
X198155845Y-118753246D01*
X197914311Y-118945862D01*
X197695862Y-119164311D01*
X197503246Y-119405845D01*
X197338884Y-119667426D01*
X197204848Y-119945754D01*
X197204842Y-119945768D01*
X197102814Y-120237346D01*
X197102810Y-120237358D01*
X197034067Y-120538544D01*
X197034064Y-120538558D01*
X196999478Y-120845527D01*
X81000521Y-120845527D01*
X80965935Y-120538558D01*
X80965934Y-120538553D01*
X80965933Y-120538544D01*
X80897189Y-120237358D01*
X80795155Y-119945762D01*
X80661114Y-119667424D01*
X80496753Y-119405844D01*
X80304137Y-119164311D01*
X80085689Y-118945863D01*
X79844156Y-118753247D01*
X79582576Y-118588886D01*
X79582573Y-118588884D01*
X79304245Y-118454848D01*
X79304231Y-118454842D01*
X79012653Y-118352814D01*
X79012641Y-118352810D01*
X78780199Y-118299757D01*
X78711456Y-118284067D01*
X78711453Y-118284066D01*
X78711441Y-118284064D01*
X78404472Y-118249478D01*
X78404466Y-118249478D01*
X78095534Y-118249478D01*
X78095527Y-118249478D01*
X77788558Y-118284064D01*
X77788544Y-118284067D01*
X77487358Y-118352810D01*
X77487346Y-118352814D01*
X77195768Y-118454842D01*
X77195754Y-118454848D01*
X76917426Y-118588884D01*
X76655845Y-118753246D01*
X76414311Y-118945862D01*
X76195862Y-119164311D01*
X76003246Y-119405845D01*
X75838884Y-119667426D01*
X75704848Y-119945754D01*
X75704842Y-119945768D01*
X75602814Y-120237346D01*
X75602810Y-120237358D01*
X75534067Y-120538544D01*
X75534064Y-120538558D01*
X75499478Y-120845527D01*
X73500500Y-120845527D01*
X73500500Y-99557648D01*
X136699500Y-99557648D01*
X136699500Y-99762351D01*
X136731522Y-99964534D01*
X136794781Y-100159223D01*
X136858691Y-100284653D01*
X136879331Y-100325160D01*
X136887715Y-100341613D01*
X137008028Y-100507213D01*
X137152786Y-100651971D01*
X137248279Y-100721349D01*
X137318390Y-100772287D01*
X137434607Y-100831503D01*
X137500776Y-100865218D01*
X137500778Y-100865218D01*
X137500781Y-100865220D01*
X137592604Y-100895055D01*
X137695465Y-100928477D01*
X137779557Y-100941796D01*
X137897648Y-100960500D01*
X137897649Y-100960500D01*
X138102351Y-100960500D01*
X138102352Y-100960500D01*
X138304534Y-100928477D01*
X138499219Y-100865220D01*
X138681610Y-100772287D01*
X138774590Y-100704732D01*
X138847213Y-100651971D01*
X138847215Y-100651968D01*
X138847219Y-100651966D01*
X138991966Y-100507219D01*
X138991968Y-100507215D01*
X138991971Y-100507213D01*
X139044732Y-100434590D01*
X139112287Y-100341610D01*
X139205220Y-100159219D01*
X139268477Y-99964534D01*
X139300500Y-99762352D01*
X139300500Y-99557648D01*
X140449500Y-99557648D01*
X140449500Y-99762351D01*
X140481522Y-99964534D01*
X140544781Y-100159223D01*
X140608691Y-100284653D01*
X140629331Y-100325160D01*
X140637715Y-100341613D01*
X140758028Y-100507213D01*
X140902786Y-100651971D01*
X140998279Y-100721349D01*
X141068390Y-100772287D01*
X141184607Y-100831503D01*
X141250776Y-100865218D01*
X141250778Y-100865218D01*
X141250781Y-100865220D01*
X141342604Y-100895055D01*
X141445465Y-100928477D01*
X141529557Y-100941796D01*
X141647648Y-100960500D01*
X141647649Y-100960500D01*
X141852351Y-100960500D01*
X141852352Y-100960500D01*
X142054534Y-100928477D01*
X142249219Y-100865220D01*
X142431610Y-100772287D01*
X142524590Y-100704732D01*
X142597213Y-100651971D01*
X142597215Y-100651968D01*
X142597219Y-100651966D01*
X142741966Y-100507219D01*
X142741968Y-100507215D01*
X142741971Y-100507213D01*
X142794732Y-100434590D01*
X142862287Y-100341610D01*
X142955220Y-100159219D01*
X143018477Y-99964534D01*
X143050500Y-99762352D01*
X143050500Y-99557648D01*
X143018477Y-99355466D01*
X142955220Y-99160781D01*
X142955218Y-99160778D01*
X142955218Y-99160776D01*
X142880465Y-99014066D01*
X142880464Y-99014064D01*
X142862286Y-98978388D01*
X142741971Y-98812786D01*
X142597213Y-98668028D01*
X142431613Y-98547715D01*
X142431612Y-98547714D01*
X142431610Y-98547713D01*
X142374653Y-98518691D01*
X142249223Y-98454781D01*
X142054534Y-98391522D01*
X141879995Y-98363878D01*
X141852352Y-98359500D01*
X141647648Y-98359500D01*
X141623329Y-98363351D01*
X141445465Y-98391522D01*
X141250776Y-98454781D01*
X141068386Y-98547715D01*
X140902786Y-98668028D01*
X140758028Y-98812786D01*
X140637715Y-98978386D01*
X140544781Y-99160776D01*
X140481522Y-99355465D01*
X140449500Y-99557648D01*
X139300500Y-99557648D01*
X139268477Y-99355466D01*
X139205220Y-99160781D01*
X139205218Y-99160778D01*
X139205218Y-99160776D01*
X139171503Y-99094607D01*
X139112287Y-98978390D01*
X139100846Y-98962643D01*
X138991971Y-98812786D01*
X138847213Y-98668028D01*
X138681613Y-98547715D01*
X138681612Y-98547714D01*
X138681610Y-98547713D01*
X138624653Y-98518691D01*
X138499223Y-98454781D01*
X138304534Y-98391522D01*
X138129995Y-98363878D01*
X138102352Y-98359500D01*
X137897648Y-98359500D01*
X137873329Y-98363351D01*
X137695465Y-98391522D01*
X137500776Y-98454781D01*
X137318386Y-98547715D01*
X137152786Y-98668028D01*
X137008028Y-98812786D01*
X136887715Y-98978386D01*
X136794781Y-99160776D01*
X136731522Y-99355465D01*
X136699500Y-99557648D01*
X73500500Y-99557648D01*
X73500500Y-82652135D01*
X74199500Y-82652135D01*
X74199500Y-84347870D01*
X74199501Y-84347876D01*
X74205908Y-84407483D01*
X74256202Y-84542328D01*
X74256206Y-84542335D01*
X74342452Y-84657544D01*
X74342455Y-84657547D01*
X74457664Y-84743793D01*
X74457671Y-84743797D01*
X74592517Y-84794091D01*
X74592516Y-84794091D01*
X74599444Y-84794835D01*
X74652127Y-84800500D01*
X76347872Y-84800499D01*
X76407483Y-84794091D01*
X76542331Y-84743796D01*
X76657546Y-84657546D01*
X76743796Y-84542331D01*
X76794091Y-84407483D01*
X76800500Y-84347873D01*
X76800499Y-82652128D01*
X76794091Y-82592517D01*
X76752482Y-82480958D01*
X76743797Y-82457671D01*
X76743793Y-82457664D01*
X76657547Y-82342455D01*
X76657544Y-82342452D01*
X76542335Y-82256206D01*
X76542328Y-82256202D01*
X76407482Y-82205908D01*
X76407483Y-82205908D01*
X76347883Y-82199501D01*
X76347881Y-82199500D01*
X76347873Y-82199500D01*
X76347864Y-82199500D01*
X74652129Y-82199500D01*
X74652123Y-82199501D01*
X74592516Y-82205908D01*
X74457671Y-82256202D01*
X74457664Y-82256206D01*
X74342455Y-82342452D01*
X74342452Y-82342455D01*
X74256206Y-82457664D01*
X74256202Y-82457671D01*
X74205908Y-82592517D01*
X74203591Y-82614073D01*
X74199501Y-82652123D01*
X74199500Y-82652135D01*
X73500500Y-82652135D01*
X73500500Y-80555549D01*
X82117000Y-80555549D01*
X82117000Y-80778450D01*
X82117001Y-80778466D01*
X82146094Y-80999452D01*
X82146095Y-80999457D01*
X82146096Y-80999463D01*
X82191452Y-81168735D01*
X82203790Y-81214780D01*
X82203793Y-81214790D01*
X82279415Y-81397357D01*
X82289095Y-81420726D01*
X82400552Y-81613774D01*
X82400557Y-81613780D01*
X82400558Y-81613782D01*
X82536251Y-81790622D01*
X82536257Y-81790629D01*
X82693870Y-81948242D01*
X82693877Y-81948248D01*
X82767765Y-82004944D01*
X82870726Y-82083948D01*
X83063774Y-82195405D01*
X83269719Y-82280710D01*
X83485037Y-82338404D01*
X83706043Y-82367500D01*
X83706050Y-82367500D01*
X83928950Y-82367500D01*
X83928957Y-82367500D01*
X84149963Y-82338404D01*
X84365281Y-82280710D01*
X84571226Y-82195405D01*
X84764274Y-82083948D01*
X84941124Y-81948247D01*
X85098747Y-81790624D01*
X85234448Y-81613774D01*
X85345905Y-81420726D01*
X85431210Y-81214781D01*
X85488904Y-80999463D01*
X85518000Y-80778457D01*
X85518000Y-80555549D01*
X94117000Y-80555549D01*
X94117000Y-80778450D01*
X94117001Y-80778466D01*
X94146094Y-80999452D01*
X94146095Y-80999457D01*
X94146096Y-80999463D01*
X94191452Y-81168735D01*
X94203790Y-81214780D01*
X94203793Y-81214790D01*
X94279415Y-81397357D01*
X94289095Y-81420726D01*
X94400552Y-81613774D01*
X94400557Y-81613780D01*
X94400558Y-81613782D01*
X94536251Y-81790622D01*
X94536257Y-81790629D01*
X94693870Y-81948242D01*
X94693877Y-81948248D01*
X94767765Y-82004944D01*
X94870726Y-82083948D01*
X95063774Y-82195405D01*
X95269719Y-82280710D01*
X95485037Y-82338404D01*
X95706043Y-82367500D01*
X95706050Y-82367500D01*
X95928950Y-82367500D01*
X95928957Y-82367500D01*
X96149963Y-82338404D01*
X96365281Y-82280710D01*
X96571226Y-82195405D01*
X96764274Y-82083948D01*
X96941124Y-81948247D01*
X97098747Y-81790624D01*
X97234448Y-81613774D01*
X97345905Y-81420726D01*
X97431210Y-81214781D01*
X97488904Y-80999463D01*
X97518000Y-80778457D01*
X97518000Y-80555543D01*
X97488904Y-80334537D01*
X97431210Y-80119219D01*
X97345905Y-79913274D01*
X97234448Y-79720226D01*
X97098747Y-79543376D01*
X97098742Y-79543370D01*
X96941129Y-79385757D01*
X96941122Y-79385751D01*
X96764282Y-79250058D01*
X96764280Y-79250057D01*
X96764274Y-79250052D01*
X96571226Y-79138595D01*
X96571222Y-79138593D01*
X96365290Y-79053293D01*
X96365283Y-79053291D01*
X96365281Y-79053290D01*
X96149963Y-78995596D01*
X96149957Y-78995595D01*
X96149952Y-78995594D01*
X95928966Y-78966501D01*
X95928963Y-78966500D01*
X95928957Y-78966500D01*
X95706043Y-78966500D01*
X95706037Y-78966500D01*
X95706033Y-78966501D01*
X95485047Y-78995594D01*
X95485040Y-78995595D01*
X95485037Y-78995596D01*
X95309861Y-79042534D01*
X95269719Y-79053290D01*
X95269709Y-79053293D01*
X95063777Y-79138593D01*
X95063773Y-79138595D01*
X94870726Y-79250052D01*
X94870717Y-79250058D01*
X94693877Y-79385751D01*
X94693870Y-79385757D01*
X94536257Y-79543370D01*
X94536251Y-79543377D01*
X94400558Y-79720217D01*
X94400552Y-79720226D01*
X94289095Y-79913273D01*
X94289093Y-79913277D01*
X94203793Y-80119209D01*
X94203790Y-80119219D01*
X94148664Y-80324955D01*
X94146097Y-80334534D01*
X94146094Y-80334547D01*
X94117001Y-80555533D01*
X94117000Y-80555549D01*
X85518000Y-80555549D01*
X85518000Y-80555543D01*
X85488904Y-80334537D01*
X85431210Y-80119219D01*
X85345905Y-79913274D01*
X85234448Y-79720226D01*
X85098747Y-79543376D01*
X85098742Y-79543370D01*
X84941129Y-79385757D01*
X84941122Y-79385751D01*
X84764282Y-79250058D01*
X84764280Y-79250057D01*
X84764274Y-79250052D01*
X84571226Y-79138595D01*
X84571222Y-79138593D01*
X84365290Y-79053293D01*
X84365283Y-79053291D01*
X84365281Y-79053290D01*
X84149963Y-78995596D01*
X84149957Y-78995595D01*
X84149952Y-78995594D01*
X83928966Y-78966501D01*
X83928963Y-78966500D01*
X83928957Y-78966500D01*
X83706043Y-78966500D01*
X83706037Y-78966500D01*
X83706033Y-78966501D01*
X83485047Y-78995594D01*
X83485040Y-78995595D01*
X83485037Y-78995596D01*
X83309861Y-79042534D01*
X83269719Y-79053290D01*
X83269709Y-79053293D01*
X83063777Y-79138593D01*
X83063773Y-79138595D01*
X82870726Y-79250052D01*
X82870717Y-79250058D01*
X82693877Y-79385751D01*
X82693870Y-79385757D01*
X82536257Y-79543370D01*
X82536251Y-79543377D01*
X82400558Y-79720217D01*
X82400552Y-79720226D01*
X82289095Y-79913273D01*
X82289093Y-79913277D01*
X82203793Y-80119209D01*
X82203790Y-80119219D01*
X82148664Y-80324955D01*
X82146097Y-80334534D01*
X82146094Y-80334547D01*
X82117001Y-80555533D01*
X82117000Y-80555549D01*
X73500500Y-80555549D01*
X73500500Y-62845527D01*
X75499478Y-62845527D01*
X75499478Y-63154472D01*
X75534064Y-63461441D01*
X75534067Y-63461455D01*
X75602810Y-63762641D01*
X75602814Y-63762653D01*
X75704842Y-64054231D01*
X75704848Y-64054245D01*
X75838884Y-64332573D01*
X75838886Y-64332576D01*
X76003247Y-64594156D01*
X76195863Y-64835689D01*
X76414311Y-65054137D01*
X76655844Y-65246753D01*
X76917424Y-65411114D01*
X77195762Y-65545155D01*
X77292960Y-65579166D01*
X77487346Y-65647185D01*
X77487358Y-65647189D01*
X77788544Y-65715933D01*
X77788553Y-65715934D01*
X77788558Y-65715935D01*
X77993204Y-65738992D01*
X78095528Y-65750521D01*
X78095531Y-65750522D01*
X78095534Y-65750522D01*
X78404469Y-65750522D01*
X78404470Y-65750521D01*
X78561356Y-65732844D01*
X78711441Y-65715935D01*
X78711444Y-65715934D01*
X78711456Y-65715933D01*
X79012642Y-65647189D01*
X79304238Y-65545155D01*
X79582576Y-65411114D01*
X79844156Y-65246753D01*
X80085689Y-65054137D01*
X80304137Y-64835689D01*
X80496753Y-64594156D01*
X80661114Y-64332576D01*
X80795155Y-64054238D01*
X80897189Y-63762642D01*
X80965933Y-63461456D01*
X80979470Y-63341315D01*
X81000521Y-63154472D01*
X81000522Y-63154468D01*
X81000522Y-62845531D01*
X81000521Y-62845527D01*
X80965935Y-62538558D01*
X80965934Y-62538553D01*
X80965933Y-62538544D01*
X80897189Y-62237358D01*
X80795155Y-61945762D01*
X80661114Y-61667424D01*
X80496753Y-61405844D01*
X80304137Y-61164311D01*
X80085689Y-60945863D01*
X79844156Y-60753247D01*
X79582576Y-60588886D01*
X79582573Y-60588884D01*
X79304245Y-60454848D01*
X79304231Y-60454842D01*
X79012653Y-60352814D01*
X79012641Y-60352810D01*
X78780199Y-60299757D01*
X78711456Y-60284067D01*
X78711453Y-60284066D01*
X78711441Y-60284064D01*
X78404472Y-60249478D01*
X78404466Y-60249478D01*
X78095534Y-60249478D01*
X78095527Y-60249478D01*
X77788558Y-60284064D01*
X77788544Y-60284067D01*
X77487358Y-60352810D01*
X77487346Y-60352814D01*
X77195768Y-60454842D01*
X77195754Y-60454848D01*
X76917426Y-60588884D01*
X76655845Y-60753246D01*
X76414311Y-60945862D01*
X76195862Y-61164311D01*
X76003246Y-61405845D01*
X75838884Y-61667426D01*
X75704848Y-61945754D01*
X75704842Y-61945768D01*
X75602814Y-62237346D01*
X75602810Y-62237358D01*
X75534067Y-62538544D01*
X75534064Y-62538558D01*
X75499478Y-62845527D01*
X73500500Y-62845527D01*
X73500500Y-58006961D01*
X73501280Y-57993077D01*
X73501280Y-57993076D01*
X73511460Y-57902729D01*
X73517635Y-57875670D01*
X73545353Y-57796456D01*
X73557396Y-57771450D01*
X73602046Y-57700389D01*
X73619351Y-57678690D01*
X73678690Y-57619351D01*
X73700389Y-57602046D01*
X73771450Y-57557396D01*
X73796456Y-57545353D01*
X73875670Y-57517635D01*
X73902733Y-57511459D01*
X73965419Y-57504396D01*
X73993079Y-57501280D01*
X74006962Y-57500500D01*
X74065892Y-57500500D01*
X87851257Y-57500500D01*
X87918296Y-57520185D01*
G37*
%TD.AperFunction*%
%TA.AperFunction,Conductor*%
G36*
X195787637Y-72809774D02*
G01*
X195793647Y-72808910D01*
X195820265Y-72821066D01*
X195847926Y-72830639D01*
X195851680Y-72835412D01*
X195857203Y-72837935D01*
X195873024Y-72862553D01*
X195891117Y-72885560D01*
X195892533Y-72892911D01*
X195894977Y-72896713D01*
X195900000Y-72931648D01*
X195900000Y-73121246D01*
X195933242Y-73331127D01*
X195933242Y-73331130D01*
X195998904Y-73533217D01*
X196095375Y-73722550D01*
X196134728Y-73776716D01*
X196767036Y-73144407D01*
X196784075Y-73207993D01*
X196849901Y-73322007D01*
X196942993Y-73415099D01*
X197057007Y-73480925D01*
X197120590Y-73497962D01*
X196488282Y-74130269D01*
X196488282Y-74130270D01*
X196542449Y-74169624D01*
X196731782Y-74266095D01*
X196933870Y-74331757D01*
X197143754Y-74365000D01*
X197356246Y-74365000D01*
X197566127Y-74331757D01*
X197566130Y-74331757D01*
X197768217Y-74266095D01*
X197957554Y-74169622D01*
X198011716Y-74130270D01*
X198011717Y-74130270D01*
X197379408Y-73497962D01*
X197442993Y-73480925D01*
X197557007Y-73415099D01*
X197650099Y-73322007D01*
X197715925Y-73207993D01*
X197732962Y-73144409D01*
X198379341Y-73790788D01*
X198395143Y-73794107D01*
X198444902Y-73843156D01*
X198460500Y-73903364D01*
X198460500Y-80321903D01*
X198440815Y-80388942D01*
X198388011Y-80434697D01*
X198318853Y-80444641D01*
X198255297Y-80415616D01*
X198248819Y-80409584D01*
X192004550Y-74165315D01*
X191971065Y-74103992D01*
X191974299Y-74039319D01*
X191990511Y-73989427D01*
X192024100Y-73777357D01*
X192024100Y-73562643D01*
X191990511Y-73350573D01*
X191944184Y-73207993D01*
X191924162Y-73146369D01*
X191924161Y-73146366D01*
X191887999Y-73075395D01*
X191875103Y-73006726D01*
X191901379Y-72941985D01*
X191958486Y-72901728D01*
X191998484Y-72895100D01*
X195343731Y-72895100D01*
X195343747Y-72895101D01*
X195351343Y-72895101D01*
X195509454Y-72895101D01*
X195509457Y-72895101D01*
X195662185Y-72854177D01*
X195713999Y-72824261D01*
X195719900Y-72822829D01*
X195724489Y-72818854D01*
X195753453Y-72814689D01*
X195781898Y-72807788D01*
X195787637Y-72809774D01*
G37*
%TD.AperFunction*%
%TD*%
M02*
