%TF.GenerationSoftware,KiCad,Pcbnew,9.0.3*%
%TF.CreationDate,2025-08-15T10:29:04+02:00*%
%TF.ProjectId,Controller,436f6e74-726f-46c6-9c65-722e6b696361,1.0*%
%TF.SameCoordinates,Original*%
%TF.FileFunction,Soldermask,Top*%
%TF.FilePolarity,Negative*%
%FSLAX46Y46*%
G04 Gerber Fmt 4.6, Leading zero omitted, Abs format (unit mm)*
G04 Created by KiCad (PCBNEW 9.0.3) date 2025-08-15 10:29:04*
%MOMM*%
%LPD*%
G01*
G04 APERTURE LIST*
G04 Aperture macros list*
%AMRoundRect*
0 Rectangle with rounded corners*
0 $1 Rounding radius*
0 $2 $3 $4 $5 $6 $7 $8 $9 X,Y pos of 4 corners*
0 Add a 4 corners polygon primitive as box body*
4,1,4,$2,$3,$4,$5,$6,$7,$8,$9,$2,$3,0*
0 Add four circle primitives for the rounded corners*
1,1,$1+$1,$2,$3*
1,1,$1+$1,$4,$5*
1,1,$1+$1,$6,$7*
1,1,$1+$1,$8,$9*
0 Add four rect primitives between the rounded corners*
20,1,$1+$1,$2,$3,$4,$5,0*
20,1,$1+$1,$4,$5,$6,$7,0*
20,1,$1+$1,$6,$7,$8,$9,0*
20,1,$1+$1,$8,$9,$2,$3,0*%
G04 Aperture macros list end*
%ADD10C,1.600000*%
%ADD11O,1.600000X1.600000*%
%ADD12R,1.700000X1.700000*%
%ADD13C,1.700000*%
%ADD14R,1.600000X1.600000*%
%ADD15RoundRect,0.250000X-1.000000X-1.000000X1.000000X-1.000000X1.000000X1.000000X-1.000000X1.000000X0*%
%ADD16C,2.500000*%
%ADD17C,2.200000*%
%ADD18C,1.727200*%
%ADD19R,1.727200X1.727200*%
%ADD20R,1.500000X2.500000*%
%ADD21O,1.500000X2.500000*%
%ADD22C,2.400000*%
%ADD23R,5.000000X3.000000*%
%ADD24R,1.050000X1.500000*%
%ADD25O,1.050000X1.500000*%
G04 APERTURE END LIST*
D10*
%TO.C,R3*%
X141750000Y-99660000D03*
D11*
X141750000Y-89500000D03*
%TD*%
D12*
%TO.C,J1*%
X197250000Y-70475000D03*
D13*
X197250000Y-73015000D03*
%TD*%
D14*
%TO.C,D1*%
X75500000Y-83500000D03*
D11*
X75500000Y-75880000D03*
%TD*%
D15*
%TO.C,J6*%
X127750000Y-94000000D03*
D16*
X132750000Y-94000000D03*
%TD*%
D15*
%TO.C,J3*%
X102523000Y-94000000D03*
D16*
X107523000Y-94000000D03*
%TD*%
D17*
%TO.C,A1*%
X170250000Y-124034800D03*
X190750000Y-124034800D03*
X170250000Y-67034800D03*
X190750000Y-67034800D03*
D18*
X170340000Y-99070000D03*
X170340000Y-104150000D03*
X190660000Y-101610000D03*
X190660000Y-99070000D03*
X190660000Y-96530000D03*
X190660000Y-93990000D03*
X190660000Y-91450000D03*
X190660000Y-88910000D03*
X190660000Y-86370000D03*
X190660000Y-104150000D03*
X190660000Y-83830000D03*
X190660000Y-81290000D03*
X190660000Y-78750000D03*
X190660000Y-76210000D03*
X190660000Y-73670000D03*
X190660000Y-71130000D03*
X170340000Y-71130000D03*
X170340000Y-73670000D03*
X170340000Y-76210000D03*
X170340000Y-78750000D03*
X170340000Y-81290000D03*
X170340000Y-83830000D03*
X170340000Y-86370000D03*
X170340000Y-88910000D03*
X170340000Y-91450000D03*
D19*
X170340000Y-96530000D03*
D18*
X170340000Y-93990000D03*
X170340000Y-101610000D03*
%TD*%
D20*
%TO.C,U4*%
X102817500Y-81932500D03*
D21*
X105357500Y-81932500D03*
X107897500Y-81932500D03*
%TD*%
D12*
%TO.C,J4*%
X200450000Y-96467500D03*
D13*
X197910000Y-96467500D03*
X200450000Y-93927500D03*
X197910000Y-93927500D03*
X200450000Y-91387500D03*
X197910000Y-91387500D03*
X200450000Y-88847500D03*
X197910000Y-88847500D03*
X200450000Y-86307500D03*
X197910000Y-86307500D03*
%TD*%
D10*
%TO.C,R2*%
X138000000Y-89500000D03*
D11*
X138000000Y-99660000D03*
%TD*%
D10*
%TO.C,R1*%
X78500000Y-84750000D03*
D11*
X78500000Y-74590000D03*
%TD*%
D22*
%TO.C,K1*%
X89817500Y-66467000D03*
X95817500Y-80667000D03*
X83817500Y-80667000D03*
D15*
X83817500Y-68467000D03*
D22*
X95817500Y-68467000D03*
%TD*%
D23*
%TO.C,U1*%
X127304000Y-72000000D03*
X127304000Y-77080000D03*
X162356000Y-70095000D03*
X162356000Y-75175000D03*
X162356000Y-80255000D03*
%TD*%
D15*
%TO.C,J5*%
X84750000Y-94000000D03*
D16*
X89750000Y-94000000D03*
X94750000Y-94000000D03*
%TD*%
D15*
%TO.C,J2*%
X115500000Y-94000000D03*
D16*
X120500000Y-94000000D03*
%TD*%
D24*
%TO.C,Q1*%
X75730000Y-70860000D03*
D25*
X77000000Y-70860000D03*
X78270000Y-70860000D03*
%TD*%
D14*
%TO.C,C1*%
X146250000Y-95750000D03*
D10*
X146250000Y-93250000D03*
%TD*%
M02*
