M48
; DRILL file {KiCad 9.0.3} date 2025-08-15T10:29:01+0200
; FORMAT={-:-/ absolute / inch / decimal}
; #@! TF.CreationDate,2025-08-15T10:29:01+02:00
; #@! TF.GenerationSoftware,Kicad,Pcbnew,9.0.3
; #@! TF.FileFunction,Plated,1,2,PTH
FMAT,2
INCH
; #@! TA.AperFunction,Plated,PTH,ComponentDrill
T1C0.0295
; #@! TA.AperFunction,Plated,PTH,ComponentDrill
T2C0.0315
; #@! TA.AperFunction,Plated,PTH,ComponentDrill
T3C0.0394
; #@! TA.AperFunction,Plated,PTH,ComponentDrill
T4C0.0400
; #@! TA.AperFunction,Plated,PTH,ComponentDrill
T5C0.0512
; #@! TA.AperFunction,Plated,PTH,ComponentDrill
T6C0.0591
%
G90
G05
T1
X2.9815Y-2.7898
X3.0315Y-2.7898
X3.0815Y-2.7898
T2
X2.9724Y-2.9874
X2.9724Y-3.2874
X3.0906Y-2.9366
X3.0906Y-3.3366
X5.4331Y-3.5236
X5.4331Y-3.9236
X5.5807Y-3.5236
X5.5807Y-3.9236
X5.7579Y-3.6713
X5.7579Y-3.7697
T3
X4.0479Y-3.2257
X4.1479Y-3.2257
X4.2479Y-3.2257
X7.7657Y-2.7746
X7.7657Y-2.8746
X7.7917Y-3.3979
X7.7917Y-3.4979
X7.7917Y-3.5979
X7.7917Y-3.6979
X7.7917Y-3.7979
X7.8917Y-3.3979
X7.8917Y-3.4979
X7.8917Y-3.5979
X7.8917Y-3.6979
X7.8917Y-3.7979
T4
X6.7063Y-2.8004
X6.7063Y-2.9004
X6.7063Y-3.0004
X6.7063Y-3.1004
X6.7063Y-3.2004
X6.7063Y-3.3004
X6.7063Y-3.4004
X6.7063Y-3.5004
X6.7063Y-3.6004
X6.7063Y-3.7004
X6.7063Y-3.8004
X6.7063Y-3.9004
X6.7063Y-4.0004
X6.7063Y-4.1004
X7.5063Y-2.8004
X7.5063Y-2.9004
X7.5063Y-3.0004
X7.5063Y-3.1004
X7.5063Y-3.2004
X7.5063Y-3.3004
X7.5063Y-3.4004
X7.5063Y-3.5004
X7.5063Y-3.6004
X7.5063Y-3.7004
X7.5063Y-3.8004
X7.5063Y-3.9004
X7.5063Y-4.0004
X7.5063Y-4.1004
T5
X3.2999Y-2.6956
X3.2999Y-3.1759
X3.3366Y-3.7008
X3.5335Y-3.7008
X3.5361Y-2.6168
X3.7303Y-3.7008
X3.7723Y-2.6956
X3.7723Y-3.1759
X4.0363Y-3.7008
X4.2332Y-3.7008
X4.5472Y-3.7008
X4.7441Y-3.7008
X5.0295Y-3.7008
X5.2264Y-3.7008
T6
X5.012Y-2.8346
X5.012Y-3.0346
X6.392Y-2.7596
X6.392Y-2.9596
X6.392Y-3.1596
M30
