%TF.GenerationSoftware,KiCad,Pcbnew,9.0.3*%
%TF.CreationDate,2025-08-15T10:31:11+02:00*%
%TF.ProjectId,Displaypanel,44697370-6c61-4797-9061-6e656c2e6b69,rev?*%
%TF.SameCoordinates,Original*%
%TF.FileFunction,Copper,L2,Bot*%
%TF.FilePolarity,Positive*%
%FSLAX46Y46*%
G04 Gerber Fmt 4.6, Leading zero omitted, Abs format (unit mm)*
G04 Created by KiCad (PCBNEW 9.0.3) date 2025-08-15 10:31:11*
%MOMM*%
%LPD*%
G01*
G04 APERTURE LIST*
%TA.AperFunction,ComponentPad*%
%ADD10O,2.000000X1.200000*%
%TD*%
%TA.AperFunction,ComponentPad*%
%ADD11R,1.800000X1.800000*%
%TD*%
%TA.AperFunction,ComponentPad*%
%ADD12C,1.800000*%
%TD*%
%TA.AperFunction,ComponentPad*%
%ADD13C,2.000000*%
%TD*%
%TA.AperFunction,ComponentPad*%
%ADD14C,1.600000*%
%TD*%
%TA.AperFunction,ComponentPad*%
%ADD15O,1.600000X1.600000*%
%TD*%
%TA.AperFunction,ComponentPad*%
%ADD16R,1.700000X1.700000*%
%TD*%
%TA.AperFunction,ComponentPad*%
%ADD17C,1.700000*%
%TD*%
%TA.AperFunction,Conductor*%
%ADD18C,0.200000*%
%TD*%
G04 APERTURE END LIST*
D10*
%TO.P,U1,1,GND*%
%TO.N,GND*%
X113490000Y-100620000D03*
%TO.P,U1,2,VCC*%
%TO.N,VCC*%
X113490000Y-98080000D03*
%TO.P,U1,3,SCL*%
%TO.N,SCL*%
X113490000Y-95540000D03*
%TO.P,U1,4,SDA*%
%TO.N,SDA*%
X113490000Y-93000000D03*
%TO.P,U1,5,RES*%
%TO.N,RST*%
X113490000Y-90460000D03*
%TO.P,U1,6,DC*%
%TO.N,DC*%
X113490000Y-87920000D03*
%TO.P,U1,7,CS*%
%TO.N,CS*%
X113490000Y-85380000D03*
%TD*%
D11*
%TO.P,D1,1,K*%
%TO.N,STATE*%
X94730000Y-112000000D03*
D12*
%TO.P,D1,2,A*%
%TO.N,Net-(D1-A)*%
X97270000Y-112000000D03*
%TD*%
D13*
%TO.P,SW2,1,1*%
%TO.N,GND*%
X187750000Y-72750000D03*
%TO.P,SW2,2,2*%
%TO.N,Reset*%
X187750000Y-77250000D03*
%TO.P,SW2,3,3*%
%TO.N,unconnected-(SW2-Pad3)*%
X194250000Y-72750000D03*
%TO.P,SW2,4,4*%
%TO.N,unconnected-(SW2-Pad4)*%
X194250000Y-77250000D03*
%TD*%
%TO.P,SW1,1,1*%
%TO.N,GND*%
X187750000Y-108750000D03*
%TO.P,SW1,2,2*%
%TO.N,MODE*%
X187750000Y-113250000D03*
%TO.P,SW1,3,3*%
%TO.N,unconnected-(SW1-Pad3)*%
X194250000Y-108750000D03*
%TO.P,SW1,4,4*%
%TO.N,unconnected-(SW1-Pad4)*%
X194250000Y-113250000D03*
%TD*%
D14*
%TO.P,R1,1*%
%TO.N,VCC*%
X90920000Y-107000000D03*
D15*
%TO.P,R1,2*%
%TO.N,Net-(D1-A)*%
X101080000Y-107000000D03*
%TD*%
D16*
%TO.P,J1,1,Pin_1*%
%TO.N,GND*%
X88000000Y-98080000D03*
D17*
%TO.P,J1,2,Pin_2*%
%TO.N,VCC*%
X90540000Y-98080000D03*
%TO.P,J1,3,Pin_3*%
%TO.N,MODE*%
X88000000Y-95540000D03*
%TO.P,J1,4,Pin_4*%
%TO.N,Reset*%
X90540000Y-95540000D03*
%TO.P,J1,5,Pin_5*%
%TO.N,STATE*%
X88000000Y-93000000D03*
%TO.P,J1,6,Pin_6*%
%TO.N,CS*%
X90540000Y-93000000D03*
%TO.P,J1,7,Pin_7*%
%TO.N,SCL*%
X88000000Y-90460000D03*
%TO.P,J1,8,Pin_8*%
%TO.N,DC*%
X90540000Y-90460000D03*
%TO.P,J1,9,Pin_9*%
%TO.N,SDA*%
X88000000Y-87920000D03*
%TO.P,J1,10,Pin_10*%
%TO.N,RST*%
X90540000Y-87920000D03*
%TD*%
D18*
%TO.N,CS*%
X91016760Y-89309000D02*
X94945760Y-85380000D01*
X94945760Y-85380000D02*
X113490000Y-85380000D01*
X89389000Y-91849000D02*
X89389000Y-89983240D01*
X89389000Y-89983240D02*
X90063240Y-89309000D01*
X90540000Y-93000000D02*
X89389000Y-91849000D01*
X90063240Y-89309000D02*
X91016760Y-89309000D01*
%TO.N,DC*%
X113490000Y-87920000D02*
X93080000Y-87920000D01*
X93080000Y-87920000D02*
X90540000Y-90460000D01*
%TO.N,Reset*%
X187750000Y-77250000D02*
X170361000Y-94639000D01*
X91441000Y-94639000D02*
X90540000Y-95540000D01*
X170361000Y-94639000D02*
X91441000Y-94639000D01*
%TO.N,MODE*%
X89389000Y-96929000D02*
X88000000Y-95540000D01*
X91429000Y-96929000D02*
X89389000Y-96929000D01*
X187750000Y-113250000D02*
X174219000Y-99719000D01*
X94219000Y-99719000D02*
X91429000Y-96929000D01*
X174219000Y-99719000D02*
X94219000Y-99719000D01*
%TD*%
%TA.AperFunction,Conductor*%
%TO.N,GND*%
G36*
X213006912Y-58501278D02*
G01*
X213097272Y-58511460D01*
X213124332Y-58517637D01*
X213203538Y-58545352D01*
X213228548Y-58557396D01*
X213299605Y-58602044D01*
X213321311Y-58619355D01*
X213380643Y-58678687D01*
X213397956Y-58700396D01*
X213442601Y-58771448D01*
X213454648Y-58796465D01*
X213482361Y-58875663D01*
X213488540Y-58902735D01*
X213498719Y-58993077D01*
X213499499Y-59006960D01*
X213499500Y-126934108D01*
X213499500Y-126993038D01*
X213498720Y-127006923D01*
X213488540Y-127097264D01*
X213482362Y-127124333D01*
X213454648Y-127203537D01*
X213442600Y-127228555D01*
X213397957Y-127299604D01*
X213380644Y-127321313D01*
X213321313Y-127380644D01*
X213299604Y-127397957D01*
X213228555Y-127442600D01*
X213203537Y-127454648D01*
X213124333Y-127482362D01*
X213097264Y-127488540D01*
X213017075Y-127497576D01*
X213006921Y-127498720D01*
X212993038Y-127499500D01*
X83006962Y-127499500D01*
X82993078Y-127498720D01*
X82980553Y-127497308D01*
X82902735Y-127488540D01*
X82875666Y-127482362D01*
X82796462Y-127454648D01*
X82771444Y-127442600D01*
X82700395Y-127397957D01*
X82678686Y-127380644D01*
X82619355Y-127321313D01*
X82602042Y-127299604D01*
X82557399Y-127228555D01*
X82545351Y-127203537D01*
X82517637Y-127124333D01*
X82511459Y-127097263D01*
X82501280Y-127006922D01*
X82500500Y-126993038D01*
X82500500Y-121845527D01*
X84499478Y-121845527D01*
X84499478Y-122154472D01*
X84534064Y-122461441D01*
X84534067Y-122461455D01*
X84602810Y-122762641D01*
X84602814Y-122762653D01*
X84704842Y-123054231D01*
X84704848Y-123054245D01*
X84838884Y-123332573D01*
X84838886Y-123332576D01*
X85003247Y-123594156D01*
X85195863Y-123835689D01*
X85414311Y-124054137D01*
X85655844Y-124246753D01*
X85917424Y-124411114D01*
X86195762Y-124545155D01*
X86195768Y-124545157D01*
X86487346Y-124647185D01*
X86487358Y-124647189D01*
X86788544Y-124715933D01*
X86788553Y-124715934D01*
X86788558Y-124715935D01*
X86993204Y-124738992D01*
X87095528Y-124750521D01*
X87095531Y-124750522D01*
X87095534Y-124750522D01*
X87404469Y-124750522D01*
X87404470Y-124750521D01*
X87561356Y-124732844D01*
X87711441Y-124715935D01*
X87711444Y-124715934D01*
X87711456Y-124715933D01*
X88012642Y-124647189D01*
X88304238Y-124545155D01*
X88582576Y-124411114D01*
X88844156Y-124246753D01*
X89085689Y-124054137D01*
X89304137Y-123835689D01*
X89496753Y-123594156D01*
X89661114Y-123332576D01*
X89795155Y-123054238D01*
X89897189Y-122762642D01*
X89965933Y-122461456D01*
X89979470Y-122341315D01*
X90000521Y-122154472D01*
X90000522Y-122154468D01*
X90000522Y-121845531D01*
X90000521Y-121845527D01*
X205999478Y-121845527D01*
X205999478Y-122154472D01*
X206034064Y-122461441D01*
X206034067Y-122461455D01*
X206102810Y-122762641D01*
X206102814Y-122762653D01*
X206204842Y-123054231D01*
X206204848Y-123054245D01*
X206338884Y-123332573D01*
X206338886Y-123332576D01*
X206503247Y-123594156D01*
X206695863Y-123835689D01*
X206914311Y-124054137D01*
X207155844Y-124246753D01*
X207417424Y-124411114D01*
X207695762Y-124545155D01*
X207695768Y-124545157D01*
X207987346Y-124647185D01*
X207987358Y-124647189D01*
X208288544Y-124715933D01*
X208288553Y-124715934D01*
X208288558Y-124715935D01*
X208493204Y-124738992D01*
X208595528Y-124750521D01*
X208595531Y-124750522D01*
X208595534Y-124750522D01*
X208904469Y-124750522D01*
X208904470Y-124750521D01*
X209061356Y-124732844D01*
X209211441Y-124715935D01*
X209211444Y-124715934D01*
X209211456Y-124715933D01*
X209512642Y-124647189D01*
X209804238Y-124545155D01*
X210082576Y-124411114D01*
X210344156Y-124246753D01*
X210585689Y-124054137D01*
X210804137Y-123835689D01*
X210996753Y-123594156D01*
X211161114Y-123332576D01*
X211295155Y-123054238D01*
X211397189Y-122762642D01*
X211465933Y-122461456D01*
X211479470Y-122341315D01*
X211500521Y-122154472D01*
X211500522Y-122154468D01*
X211500522Y-121845531D01*
X211500521Y-121845527D01*
X211465935Y-121538558D01*
X211465934Y-121538553D01*
X211465933Y-121538544D01*
X211397189Y-121237358D01*
X211295155Y-120945762D01*
X211161114Y-120667424D01*
X210996753Y-120405844D01*
X210804137Y-120164311D01*
X210585689Y-119945863D01*
X210344156Y-119753247D01*
X210082576Y-119588886D01*
X210082573Y-119588884D01*
X209804245Y-119454848D01*
X209804231Y-119454842D01*
X209512653Y-119352814D01*
X209512641Y-119352810D01*
X209280199Y-119299757D01*
X209211456Y-119284067D01*
X209211453Y-119284066D01*
X209211441Y-119284064D01*
X208904472Y-119249478D01*
X208904466Y-119249478D01*
X208595534Y-119249478D01*
X208595527Y-119249478D01*
X208288558Y-119284064D01*
X208288544Y-119284067D01*
X207987358Y-119352810D01*
X207987346Y-119352814D01*
X207695768Y-119454842D01*
X207695754Y-119454848D01*
X207417426Y-119588884D01*
X207155845Y-119753246D01*
X206914311Y-119945862D01*
X206695862Y-120164311D01*
X206503246Y-120405845D01*
X206338884Y-120667426D01*
X206204848Y-120945754D01*
X206204842Y-120945768D01*
X206102814Y-121237346D01*
X206102810Y-121237358D01*
X206034067Y-121538544D01*
X206034064Y-121538558D01*
X205999478Y-121845527D01*
X90000521Y-121845527D01*
X89965935Y-121538558D01*
X89965934Y-121538553D01*
X89965933Y-121538544D01*
X89897189Y-121237358D01*
X89795155Y-120945762D01*
X89661114Y-120667424D01*
X89496753Y-120405844D01*
X89304137Y-120164311D01*
X89085689Y-119945863D01*
X88844156Y-119753247D01*
X88582576Y-119588886D01*
X88582573Y-119588884D01*
X88304245Y-119454848D01*
X88304231Y-119454842D01*
X88012653Y-119352814D01*
X88012641Y-119352810D01*
X87780199Y-119299757D01*
X87711456Y-119284067D01*
X87711453Y-119284066D01*
X87711441Y-119284064D01*
X87404472Y-119249478D01*
X87404466Y-119249478D01*
X87095534Y-119249478D01*
X87095527Y-119249478D01*
X86788558Y-119284064D01*
X86788544Y-119284067D01*
X86487358Y-119352810D01*
X86487346Y-119352814D01*
X86195768Y-119454842D01*
X86195754Y-119454848D01*
X85917426Y-119588884D01*
X85655845Y-119753246D01*
X85414311Y-119945862D01*
X85195862Y-120164311D01*
X85003246Y-120405845D01*
X84838884Y-120667426D01*
X84704848Y-120945754D01*
X84704842Y-120945768D01*
X84602814Y-121237346D01*
X84602810Y-121237358D01*
X84534067Y-121538544D01*
X84534064Y-121538558D01*
X84499478Y-121845527D01*
X82500500Y-121845527D01*
X82500500Y-111052135D01*
X93329500Y-111052135D01*
X93329500Y-112947870D01*
X93329501Y-112947876D01*
X93335908Y-113007483D01*
X93386202Y-113142328D01*
X93386206Y-113142335D01*
X93472452Y-113257544D01*
X93472455Y-113257547D01*
X93587664Y-113343793D01*
X93587671Y-113343797D01*
X93722517Y-113394091D01*
X93722516Y-113394091D01*
X93729444Y-113394835D01*
X93782127Y-113400500D01*
X95677872Y-113400499D01*
X95737483Y-113394091D01*
X95872331Y-113343796D01*
X95987546Y-113257546D01*
X96073796Y-113142331D01*
X96101429Y-113068243D01*
X96103601Y-113062420D01*
X96145471Y-113006486D01*
X96210936Y-112982068D01*
X96279209Y-112996919D01*
X96307464Y-113018071D01*
X96357636Y-113068243D01*
X96357641Y-113068247D01*
X96445256Y-113131902D01*
X96535978Y-113197815D01*
X96664375Y-113263237D01*
X96732393Y-113297895D01*
X96732396Y-113297896D01*
X96837221Y-113331955D01*
X96942049Y-113366015D01*
X97159778Y-113400500D01*
X97159779Y-113400500D01*
X97380221Y-113400500D01*
X97380222Y-113400500D01*
X97597951Y-113366015D01*
X97807606Y-113297895D01*
X98004022Y-113197815D01*
X98182365Y-113068242D01*
X98281939Y-112968668D01*
X110886170Y-112968668D01*
X110886170Y-113231331D01*
X110886171Y-113231348D01*
X110920454Y-113491756D01*
X110920455Y-113491761D01*
X110920456Y-113491767D01*
X110985948Y-113736189D01*
X110988441Y-113745492D01*
X111088958Y-113988164D01*
X111088966Y-113988180D01*
X111152372Y-114098001D01*
X111220301Y-114215657D01*
X111220303Y-114215660D01*
X111220304Y-114215661D01*
X111380206Y-114424050D01*
X111380212Y-114424057D01*
X111565942Y-114609787D01*
X111565949Y-114609793D01*
X111570289Y-114613123D01*
X111774343Y-114769699D01*
X111920547Y-114854110D01*
X112001819Y-114901033D01*
X112001835Y-114901041D01*
X112132756Y-114955270D01*
X112244508Y-115001559D01*
X112498233Y-115069544D01*
X112758662Y-115103830D01*
X112758669Y-115103830D01*
X113021331Y-115103830D01*
X113021338Y-115103830D01*
X113281767Y-115069544D01*
X113535492Y-115001559D01*
X113726261Y-114922539D01*
X113778164Y-114901041D01*
X113778167Y-114901039D01*
X113778173Y-114901037D01*
X114005657Y-114769699D01*
X114214052Y-114609792D01*
X114399792Y-114424052D01*
X114559699Y-114215657D01*
X114691037Y-113988173D01*
X114691214Y-113987747D01*
X114712539Y-113936261D01*
X114791559Y-113745492D01*
X114859544Y-113491767D01*
X114893830Y-113231338D01*
X114893830Y-112971998D01*
X179886170Y-112971998D01*
X179886170Y-113234661D01*
X179886171Y-113234678D01*
X179920454Y-113495086D01*
X179920455Y-113495091D01*
X179920456Y-113495097D01*
X179920457Y-113495099D01*
X179988441Y-113748822D01*
X180088958Y-113991494D01*
X180088966Y-113991510D01*
X180152372Y-114101331D01*
X180220301Y-114218987D01*
X180220303Y-114218990D01*
X180220304Y-114218991D01*
X180380206Y-114427380D01*
X180380212Y-114427387D01*
X180565942Y-114613117D01*
X180565948Y-114613122D01*
X180774343Y-114773029D01*
X180920547Y-114857440D01*
X181001819Y-114904363D01*
X181001835Y-114904371D01*
X181132756Y-114958600D01*
X181244508Y-115004889D01*
X181498233Y-115072874D01*
X181758662Y-115107160D01*
X181758669Y-115107160D01*
X182021331Y-115107160D01*
X182021338Y-115107160D01*
X182281767Y-115072874D01*
X182535492Y-115004889D01*
X182726261Y-114925869D01*
X182778164Y-114904371D01*
X182778167Y-114904369D01*
X182778173Y-114904367D01*
X183005657Y-114773029D01*
X183214052Y-114613122D01*
X183399792Y-114427382D01*
X183559699Y-114218987D01*
X183691037Y-113991503D01*
X183692414Y-113988180D01*
X183759592Y-113825996D01*
X183791559Y-113748822D01*
X183859544Y-113495097D01*
X183893830Y-113234668D01*
X183893830Y-112971992D01*
X183859544Y-112711563D01*
X183791559Y-112457838D01*
X183736454Y-112324802D01*
X183691041Y-112215165D01*
X183691033Y-112215149D01*
X183627718Y-112105485D01*
X183559699Y-111987673D01*
X183454774Y-111850932D01*
X183399793Y-111779279D01*
X183399787Y-111779272D01*
X183214057Y-111593542D01*
X183214050Y-111593536D01*
X183005661Y-111433634D01*
X183005660Y-111433633D01*
X183005657Y-111433631D01*
X182914960Y-111381267D01*
X182778180Y-111302296D01*
X182778164Y-111302288D01*
X182535492Y-111201771D01*
X182523064Y-111198441D01*
X182281767Y-111133786D01*
X182281761Y-111133785D01*
X182281756Y-111133784D01*
X182021348Y-111099501D01*
X182021343Y-111099500D01*
X182021338Y-111099500D01*
X181758662Y-111099500D01*
X181758656Y-111099500D01*
X181758651Y-111099501D01*
X181498243Y-111133784D01*
X181498236Y-111133785D01*
X181498233Y-111133786D01*
X181390992Y-111162520D01*
X181244507Y-111201771D01*
X181001835Y-111302288D01*
X181001819Y-111302296D01*
X180774338Y-111433634D01*
X180565949Y-111593536D01*
X180565942Y-111593542D01*
X180380212Y-111779272D01*
X180380206Y-111779279D01*
X180220304Y-111987668D01*
X180088966Y-112215149D01*
X180088958Y-112215165D01*
X179988441Y-112457837D01*
X179920457Y-112711560D01*
X179920454Y-112711573D01*
X179886171Y-112971981D01*
X179886170Y-112971998D01*
X114893830Y-112971998D01*
X114893830Y-112968662D01*
X114859544Y-112708233D01*
X114791559Y-112454508D01*
X114737833Y-112324802D01*
X114691041Y-112211835D01*
X114691033Y-112211819D01*
X114627628Y-112101999D01*
X114559699Y-111984343D01*
X114463852Y-111859433D01*
X114399793Y-111775949D01*
X114399787Y-111775942D01*
X114214057Y-111590212D01*
X114214050Y-111590206D01*
X114005661Y-111430304D01*
X114005660Y-111430303D01*
X114005657Y-111430301D01*
X113914960Y-111377937D01*
X113778180Y-111298966D01*
X113778164Y-111298958D01*
X113535492Y-111198441D01*
X113281767Y-111130456D01*
X113281761Y-111130455D01*
X113281756Y-111130454D01*
X113021348Y-111096171D01*
X113021343Y-111096170D01*
X113021338Y-111096170D01*
X112758662Y-111096170D01*
X112758656Y-111096170D01*
X112758651Y-111096171D01*
X112498243Y-111130454D01*
X112498236Y-111130455D01*
X112498233Y-111130456D01*
X112390992Y-111159190D01*
X112244507Y-111198441D01*
X112001835Y-111298958D01*
X112001819Y-111298966D01*
X111774338Y-111430304D01*
X111565949Y-111590206D01*
X111565942Y-111590212D01*
X111380212Y-111775942D01*
X111380206Y-111775949D01*
X111220304Y-111984338D01*
X111220301Y-111984342D01*
X111220301Y-111984343D01*
X111211716Y-111999211D01*
X111088966Y-112211819D01*
X111088958Y-112211835D01*
X110988441Y-112454507D01*
X110920457Y-112708230D01*
X110920454Y-112708243D01*
X110886171Y-112968651D01*
X110886170Y-112968668D01*
X98281939Y-112968668D01*
X98338242Y-112912365D01*
X98348220Y-112898632D01*
X98353244Y-112891718D01*
X98439908Y-112772433D01*
X98467815Y-112734022D01*
X98567895Y-112537606D01*
X98636015Y-112327951D01*
X98670500Y-112110222D01*
X98670500Y-111889778D01*
X98636015Y-111672049D01*
X98567895Y-111462394D01*
X98567895Y-111462393D01*
X98533237Y-111394375D01*
X98467815Y-111265978D01*
X98409501Y-111185715D01*
X98338247Y-111087641D01*
X98338243Y-111087636D01*
X98182363Y-110931756D01*
X98182358Y-110931752D01*
X98004025Y-110802187D01*
X98004024Y-110802186D01*
X98004022Y-110802185D01*
X97886791Y-110742452D01*
X97807606Y-110702104D01*
X97807603Y-110702103D01*
X97597952Y-110633985D01*
X97489086Y-110616742D01*
X97380222Y-110599500D01*
X97159778Y-110599500D01*
X97087201Y-110610995D01*
X96942047Y-110633985D01*
X96732396Y-110702103D01*
X96732393Y-110702104D01*
X96535974Y-110802187D01*
X96357641Y-110931752D01*
X96357636Y-110931756D01*
X96307463Y-110981929D01*
X96246140Y-111015413D01*
X96176448Y-111010428D01*
X96120515Y-110968557D01*
X96103601Y-110937580D01*
X96073797Y-110857671D01*
X96073793Y-110857664D01*
X95987547Y-110742455D01*
X95987544Y-110742452D01*
X95872335Y-110656206D01*
X95872328Y-110656202D01*
X95737482Y-110605908D01*
X95737483Y-110605908D01*
X95677883Y-110599501D01*
X95677881Y-110599500D01*
X95677873Y-110599500D01*
X95677864Y-110599500D01*
X93782129Y-110599500D01*
X93782123Y-110599501D01*
X93722516Y-110605908D01*
X93587671Y-110656202D01*
X93587664Y-110656206D01*
X93472455Y-110742452D01*
X93472452Y-110742455D01*
X93386206Y-110857664D01*
X93386202Y-110857671D01*
X93335908Y-110992517D01*
X93329501Y-111052116D01*
X93329500Y-111052135D01*
X82500500Y-111052135D01*
X82500500Y-106897648D01*
X89619500Y-106897648D01*
X89619500Y-107102351D01*
X89651522Y-107304534D01*
X89714781Y-107499223D01*
X89807715Y-107681613D01*
X89928028Y-107847213D01*
X90072786Y-107991971D01*
X90227749Y-108104556D01*
X90238390Y-108112287D01*
X90354607Y-108171503D01*
X90420776Y-108205218D01*
X90420778Y-108205218D01*
X90420781Y-108205220D01*
X90520073Y-108237482D01*
X90615465Y-108268477D01*
X90716557Y-108284488D01*
X90817648Y-108300500D01*
X90817649Y-108300500D01*
X91022351Y-108300500D01*
X91022352Y-108300500D01*
X91224534Y-108268477D01*
X91419219Y-108205220D01*
X91601610Y-108112287D01*
X91694590Y-108044732D01*
X91767213Y-107991971D01*
X91767215Y-107991968D01*
X91767219Y-107991966D01*
X91911966Y-107847219D01*
X91911968Y-107847215D01*
X91911971Y-107847213D01*
X91966262Y-107772487D01*
X92032287Y-107681610D01*
X92125220Y-107499219D01*
X92188477Y-107304534D01*
X92220500Y-107102352D01*
X92220500Y-106897648D01*
X99779500Y-106897648D01*
X99779500Y-107102351D01*
X99811522Y-107304534D01*
X99874781Y-107499223D01*
X99967715Y-107681613D01*
X100088028Y-107847213D01*
X100232786Y-107991971D01*
X100387749Y-108104556D01*
X100398390Y-108112287D01*
X100514607Y-108171503D01*
X100580776Y-108205218D01*
X100580778Y-108205218D01*
X100580781Y-108205220D01*
X100680073Y-108237482D01*
X100775465Y-108268477D01*
X100876557Y-108284488D01*
X100977648Y-108300500D01*
X100977649Y-108300500D01*
X101182351Y-108300500D01*
X101182352Y-108300500D01*
X101384534Y-108268477D01*
X101579219Y-108205220D01*
X101761610Y-108112287D01*
X101854590Y-108044732D01*
X101927213Y-107991971D01*
X101927215Y-107991968D01*
X101927219Y-107991966D01*
X102071966Y-107847219D01*
X102071968Y-107847215D01*
X102071971Y-107847213D01*
X102126262Y-107772487D01*
X102192287Y-107681610D01*
X102285220Y-107499219D01*
X102348477Y-107304534D01*
X102380500Y-107102352D01*
X102380500Y-106897648D01*
X102348477Y-106695466D01*
X102285220Y-106500781D01*
X102285218Y-106500778D01*
X102285218Y-106500776D01*
X102251503Y-106434607D01*
X102192287Y-106318390D01*
X102184556Y-106307749D01*
X102071971Y-106152786D01*
X101927213Y-106008028D01*
X101761613Y-105887715D01*
X101761612Y-105887714D01*
X101761610Y-105887713D01*
X101704653Y-105858691D01*
X101579223Y-105794781D01*
X101384534Y-105731522D01*
X101209995Y-105703878D01*
X101182352Y-105699500D01*
X100977648Y-105699500D01*
X100953329Y-105703351D01*
X100775465Y-105731522D01*
X100580776Y-105794781D01*
X100398386Y-105887715D01*
X100232786Y-106008028D01*
X100088028Y-106152786D01*
X99967715Y-106318386D01*
X99874781Y-106500776D01*
X99811522Y-106695465D01*
X99779500Y-106897648D01*
X92220500Y-106897648D01*
X92188477Y-106695466D01*
X92125220Y-106500781D01*
X92125218Y-106500778D01*
X92125218Y-106500776D01*
X92091503Y-106434607D01*
X92032287Y-106318390D01*
X92024556Y-106307749D01*
X91911971Y-106152786D01*
X91767213Y-106008028D01*
X91601613Y-105887715D01*
X91601612Y-105887714D01*
X91601610Y-105887713D01*
X91544653Y-105858691D01*
X91419223Y-105794781D01*
X91224534Y-105731522D01*
X91049995Y-105703878D01*
X91022352Y-105699500D01*
X90817648Y-105699500D01*
X90793329Y-105703351D01*
X90615465Y-105731522D01*
X90420776Y-105794781D01*
X90238386Y-105887715D01*
X90072786Y-106008028D01*
X89928028Y-106152786D01*
X89807715Y-106318386D01*
X89714781Y-106500776D01*
X89651522Y-106695465D01*
X89619500Y-106897648D01*
X82500500Y-106897648D01*
X82500500Y-87813713D01*
X86649500Y-87813713D01*
X86649500Y-88026287D01*
X86682754Y-88236243D01*
X86717261Y-88342445D01*
X86748444Y-88438414D01*
X86844951Y-88627820D01*
X86969890Y-88799786D01*
X87120213Y-88950109D01*
X87292182Y-89075050D01*
X87300946Y-89079516D01*
X87351742Y-89127491D01*
X87368536Y-89195312D01*
X87345998Y-89261447D01*
X87300946Y-89300484D01*
X87292182Y-89304949D01*
X87120213Y-89429890D01*
X86969890Y-89580213D01*
X86844951Y-89752179D01*
X86748444Y-89941585D01*
X86682753Y-90143760D01*
X86673481Y-90202302D01*
X86649500Y-90353713D01*
X86649500Y-90566287D01*
X86682754Y-90776243D01*
X86717261Y-90882445D01*
X86748444Y-90978414D01*
X86844951Y-91167820D01*
X86969890Y-91339786D01*
X87120213Y-91490109D01*
X87292182Y-91615050D01*
X87300946Y-91619516D01*
X87351742Y-91667491D01*
X87368536Y-91735312D01*
X87345998Y-91801447D01*
X87300946Y-91840484D01*
X87292182Y-91844949D01*
X87120213Y-91969890D01*
X86969890Y-92120213D01*
X86844951Y-92292179D01*
X86748444Y-92481585D01*
X86682753Y-92683760D01*
X86673481Y-92742302D01*
X86649500Y-92893713D01*
X86649500Y-93106287D01*
X86682754Y-93316243D01*
X86717261Y-93422445D01*
X86748444Y-93518414D01*
X86844951Y-93707820D01*
X86969890Y-93879786D01*
X87120213Y-94030109D01*
X87292182Y-94155050D01*
X87300946Y-94159516D01*
X87351742Y-94207491D01*
X87368536Y-94275312D01*
X87345998Y-94341447D01*
X87300946Y-94380484D01*
X87292182Y-94384949D01*
X87120213Y-94509890D01*
X86969890Y-94660213D01*
X86844951Y-94832179D01*
X86748444Y-95021585D01*
X86682753Y-95223760D01*
X86668779Y-95311989D01*
X86649500Y-95433713D01*
X86649500Y-95646287D01*
X86682754Y-95856243D01*
X86717261Y-95962445D01*
X86748444Y-96058414D01*
X86844951Y-96247820D01*
X86969890Y-96419786D01*
X87083818Y-96533714D01*
X87117303Y-96595037D01*
X87112319Y-96664729D01*
X87070447Y-96720662D01*
X87039471Y-96737577D01*
X86907912Y-96786646D01*
X86907906Y-96786649D01*
X86792812Y-96872809D01*
X86792809Y-96872812D01*
X86706649Y-96987906D01*
X86706645Y-96987913D01*
X86656403Y-97122620D01*
X86656401Y-97122627D01*
X86650000Y-97182155D01*
X86650000Y-97830000D01*
X87566988Y-97830000D01*
X87534075Y-97887007D01*
X87500000Y-98014174D01*
X87500000Y-98145826D01*
X87534075Y-98272993D01*
X87566988Y-98330000D01*
X86650000Y-98330000D01*
X86650000Y-98977844D01*
X86656401Y-99037372D01*
X86656403Y-99037379D01*
X86706645Y-99172086D01*
X86706649Y-99172093D01*
X86792809Y-99287187D01*
X86792812Y-99287190D01*
X86907906Y-99373350D01*
X86907913Y-99373354D01*
X87042620Y-99423596D01*
X87042627Y-99423598D01*
X87102155Y-99429999D01*
X87102172Y-99430000D01*
X87750000Y-99430000D01*
X87750000Y-98513012D01*
X87807007Y-98545925D01*
X87934174Y-98580000D01*
X88065826Y-98580000D01*
X88192993Y-98545925D01*
X88250000Y-98513012D01*
X88250000Y-99430000D01*
X88897828Y-99430000D01*
X88897844Y-99429999D01*
X88957372Y-99423598D01*
X88957379Y-99423596D01*
X89092086Y-99373354D01*
X89092093Y-99373350D01*
X89207187Y-99287190D01*
X89207190Y-99287187D01*
X89293350Y-99172093D01*
X89293354Y-99172086D01*
X89342422Y-99040529D01*
X89384293Y-98984595D01*
X89449757Y-98960178D01*
X89518030Y-98975030D01*
X89546285Y-98996181D01*
X89660213Y-99110109D01*
X89832179Y-99235048D01*
X89832181Y-99235049D01*
X89832184Y-99235051D01*
X90021588Y-99331557D01*
X90223757Y-99397246D01*
X90433713Y-99430500D01*
X90433714Y-99430500D01*
X90646286Y-99430500D01*
X90646287Y-99430500D01*
X90856243Y-99397246D01*
X91058412Y-99331557D01*
X91247816Y-99235051D01*
X91334471Y-99172093D01*
X91419786Y-99110109D01*
X91419788Y-99110106D01*
X91419792Y-99110104D01*
X91570104Y-98959792D01*
X91570106Y-98959788D01*
X91570109Y-98959786D01*
X91695048Y-98787820D01*
X91695047Y-98787820D01*
X91695051Y-98787816D01*
X91791557Y-98598412D01*
X91841253Y-98445461D01*
X91880691Y-98387787D01*
X91945049Y-98360589D01*
X92013896Y-98372504D01*
X92046865Y-98396100D01*
X93734139Y-100083374D01*
X93734149Y-100083385D01*
X93738479Y-100087715D01*
X93738480Y-100087716D01*
X93850284Y-100199520D01*
X93932973Y-100247259D01*
X93937095Y-100249639D01*
X93937097Y-100249641D01*
X93975151Y-100271611D01*
X93987215Y-100278577D01*
X94139943Y-100319501D01*
X94139946Y-100319501D01*
X94305653Y-100319501D01*
X94305669Y-100319500D01*
X111878698Y-100319500D01*
X111945737Y-100339185D01*
X111991492Y-100391989D01*
X112001436Y-100461147D01*
X112001171Y-100462898D01*
X111990000Y-100533428D01*
X111990000Y-100706571D01*
X112017085Y-100877584D01*
X112070591Y-101042257D01*
X112149195Y-101196524D01*
X112250967Y-101336602D01*
X112335405Y-101421040D01*
X113090000Y-100666445D01*
X113090000Y-100672661D01*
X113117259Y-100774394D01*
X113169920Y-100865606D01*
X113244394Y-100940080D01*
X113335606Y-100992741D01*
X113437339Y-101020000D01*
X113443552Y-101020000D01*
X112785787Y-101677762D01*
X112832419Y-101692914D01*
X113003429Y-101720000D01*
X113976571Y-101720000D01*
X114147582Y-101692914D01*
X114147585Y-101692913D01*
X114194211Y-101677763D01*
X114194211Y-101677762D01*
X113536448Y-101020000D01*
X113542661Y-101020000D01*
X113644394Y-100992741D01*
X113735606Y-100940080D01*
X113810080Y-100865606D01*
X113862741Y-100774394D01*
X113890000Y-100672661D01*
X113890000Y-100666449D01*
X114644592Y-101421041D01*
X114644593Y-101421041D01*
X114729033Y-101336601D01*
X114830804Y-101196524D01*
X114909408Y-101042257D01*
X114962914Y-100877584D01*
X114990000Y-100706571D01*
X114990000Y-100533428D01*
X114978829Y-100462898D01*
X114987784Y-100393604D01*
X115032780Y-100340152D01*
X115099531Y-100319513D01*
X115101302Y-100319500D01*
X173918903Y-100319500D01*
X173985942Y-100339185D01*
X174006584Y-100355819D01*
X186297200Y-112646435D01*
X186330685Y-112707758D01*
X186327450Y-112772433D01*
X186286447Y-112898628D01*
X186249500Y-113131902D01*
X186249500Y-113368097D01*
X186286446Y-113601368D01*
X186359433Y-113825996D01*
X186466657Y-114036433D01*
X186605483Y-114227510D01*
X186772490Y-114394517D01*
X186963567Y-114533343D01*
X187062991Y-114584002D01*
X187174003Y-114640566D01*
X187174005Y-114640566D01*
X187174008Y-114640568D01*
X187294412Y-114679689D01*
X187398631Y-114713553D01*
X187631903Y-114750500D01*
X187631908Y-114750500D01*
X187868097Y-114750500D01*
X188101368Y-114713553D01*
X188325992Y-114640568D01*
X188536433Y-114533343D01*
X188727510Y-114394517D01*
X188894517Y-114227510D01*
X189033343Y-114036433D01*
X189140568Y-113825992D01*
X189213553Y-113601368D01*
X189218089Y-113572731D01*
X189250500Y-113368097D01*
X189250500Y-113131902D01*
X192749500Y-113131902D01*
X192749500Y-113368097D01*
X192786446Y-113601368D01*
X192859433Y-113825996D01*
X192966657Y-114036433D01*
X193105483Y-114227510D01*
X193272490Y-114394517D01*
X193463567Y-114533343D01*
X193562991Y-114584002D01*
X193674003Y-114640566D01*
X193674005Y-114640566D01*
X193674008Y-114640568D01*
X193794412Y-114679689D01*
X193898631Y-114713553D01*
X194131903Y-114750500D01*
X194131908Y-114750500D01*
X194368097Y-114750500D01*
X194601368Y-114713553D01*
X194825992Y-114640568D01*
X195036433Y-114533343D01*
X195227510Y-114394517D01*
X195394517Y-114227510D01*
X195533343Y-114036433D01*
X195640568Y-113825992D01*
X195713553Y-113601368D01*
X195718089Y-113572731D01*
X195750500Y-113368097D01*
X195750500Y-113131902D01*
X195713553Y-112898631D01*
X195660068Y-112734022D01*
X195640568Y-112674008D01*
X195640566Y-112674005D01*
X195640566Y-112674003D01*
X195533342Y-112463566D01*
X195394517Y-112272490D01*
X195227510Y-112105483D01*
X195036433Y-111966657D01*
X194825996Y-111859433D01*
X194601368Y-111786446D01*
X194368097Y-111749500D01*
X194368092Y-111749500D01*
X194131908Y-111749500D01*
X194131903Y-111749500D01*
X193898631Y-111786446D01*
X193674003Y-111859433D01*
X193463566Y-111966657D01*
X193354550Y-112045862D01*
X193272490Y-112105483D01*
X193272488Y-112105485D01*
X193272487Y-112105485D01*
X193105485Y-112272487D01*
X193105485Y-112272488D01*
X193105483Y-112272490D01*
X193065057Y-112328132D01*
X192966657Y-112463566D01*
X192859433Y-112674003D01*
X192786446Y-112898631D01*
X192749500Y-113131902D01*
X189250500Y-113131902D01*
X189213553Y-112898631D01*
X189160068Y-112734022D01*
X189140568Y-112674008D01*
X189140566Y-112674005D01*
X189140566Y-112674003D01*
X189033342Y-112463566D01*
X188894517Y-112272490D01*
X188727510Y-112105483D01*
X188536433Y-111966657D01*
X188325996Y-111859433D01*
X188101368Y-111786446D01*
X187868097Y-111749500D01*
X187868092Y-111749500D01*
X187631908Y-111749500D01*
X187631903Y-111749500D01*
X187398628Y-111786447D01*
X187272433Y-111827450D01*
X187202592Y-111829445D01*
X187146435Y-111797200D01*
X183981182Y-108631947D01*
X186250000Y-108631947D01*
X186250000Y-108868052D01*
X186286934Y-109101247D01*
X186359897Y-109325802D01*
X186467087Y-109536174D01*
X186527338Y-109619104D01*
X186527340Y-109619105D01*
X187226212Y-108920233D01*
X187237482Y-108962292D01*
X187309890Y-109087708D01*
X187412292Y-109190110D01*
X187537708Y-109262518D01*
X187579765Y-109273787D01*
X186880893Y-109972658D01*
X186963828Y-110032914D01*
X187174197Y-110140102D01*
X187398752Y-110213065D01*
X187398751Y-110213065D01*
X187631948Y-110250000D01*
X187868052Y-110250000D01*
X188101247Y-110213065D01*
X188325802Y-110140102D01*
X188536163Y-110032918D01*
X188536169Y-110032914D01*
X188619104Y-109972658D01*
X188619105Y-109972658D01*
X187920233Y-109273787D01*
X187962292Y-109262518D01*
X188087708Y-109190110D01*
X188190110Y-109087708D01*
X188262518Y-108962292D01*
X188273787Y-108920234D01*
X188972658Y-109619105D01*
X188972658Y-109619104D01*
X189032914Y-109536169D01*
X189032918Y-109536163D01*
X189140102Y-109325802D01*
X189213065Y-109101247D01*
X189250000Y-108868052D01*
X189250000Y-108631947D01*
X189249993Y-108631902D01*
X192749500Y-108631902D01*
X192749500Y-108868097D01*
X192786446Y-109101368D01*
X192859433Y-109325996D01*
X192966519Y-109536163D01*
X192966657Y-109536433D01*
X193105483Y-109727510D01*
X193272490Y-109894517D01*
X193463567Y-110033343D01*
X193562991Y-110084002D01*
X193674003Y-110140566D01*
X193674005Y-110140566D01*
X193674008Y-110140568D01*
X193794412Y-110179689D01*
X193898631Y-110213553D01*
X194131903Y-110250500D01*
X194131908Y-110250500D01*
X194368097Y-110250500D01*
X194601368Y-110213553D01*
X194602870Y-110213065D01*
X194825992Y-110140568D01*
X195036433Y-110033343D01*
X195227510Y-109894517D01*
X195394517Y-109727510D01*
X195533343Y-109536433D01*
X195640568Y-109325992D01*
X195713553Y-109101368D01*
X195715717Y-109087708D01*
X195750500Y-108868097D01*
X195750500Y-108631902D01*
X195713553Y-108398631D01*
X195650709Y-108205220D01*
X195640568Y-108174008D01*
X195640566Y-108174005D01*
X195640566Y-108174003D01*
X195584002Y-108062991D01*
X195533343Y-107963567D01*
X195394517Y-107772490D01*
X195227510Y-107605483D01*
X195036433Y-107466657D01*
X194825996Y-107359433D01*
X194601368Y-107286446D01*
X194368097Y-107249500D01*
X194368092Y-107249500D01*
X194131908Y-107249500D01*
X194131903Y-107249500D01*
X193898631Y-107286446D01*
X193674003Y-107359433D01*
X193463566Y-107466657D01*
X193380047Y-107527338D01*
X193272490Y-107605483D01*
X193272488Y-107605485D01*
X193272487Y-107605485D01*
X193105485Y-107772487D01*
X193105485Y-107772488D01*
X193105483Y-107772490D01*
X193051193Y-107847213D01*
X192966657Y-107963566D01*
X192859433Y-108174003D01*
X192786446Y-108398631D01*
X192749500Y-108631902D01*
X189249993Y-108631902D01*
X189213065Y-108398752D01*
X189140102Y-108174197D01*
X189032914Y-107963828D01*
X188972658Y-107880894D01*
X188972658Y-107880893D01*
X188273787Y-108579765D01*
X188262518Y-108537708D01*
X188190110Y-108412292D01*
X188087708Y-108309890D01*
X187962292Y-108237482D01*
X187920234Y-108226212D01*
X188619105Y-107527340D01*
X188619104Y-107527338D01*
X188536174Y-107467087D01*
X188325802Y-107359897D01*
X188101247Y-107286934D01*
X188101248Y-107286934D01*
X187868052Y-107250000D01*
X187631948Y-107250000D01*
X187398752Y-107286934D01*
X187174197Y-107359897D01*
X186963830Y-107467084D01*
X186880894Y-107527340D01*
X187579766Y-108226212D01*
X187537708Y-108237482D01*
X187412292Y-108309890D01*
X187309890Y-108412292D01*
X187237482Y-108537708D01*
X187226212Y-108579766D01*
X186527340Y-107880894D01*
X186467084Y-107963830D01*
X186359897Y-108174197D01*
X186286934Y-108398752D01*
X186250000Y-108631947D01*
X183981182Y-108631947D01*
X174706590Y-99357355D01*
X174706588Y-99357352D01*
X174587717Y-99238481D01*
X174587709Y-99238475D01*
X174487292Y-99180500D01*
X174487291Y-99180499D01*
X174487291Y-99180500D01*
X174450785Y-99159423D01*
X174298057Y-99118499D01*
X174139943Y-99118499D01*
X174132347Y-99118499D01*
X174132331Y-99118500D01*
X114707204Y-99118500D01*
X114640165Y-99098815D01*
X114594410Y-99046011D01*
X114584466Y-98976853D01*
X114613491Y-98913297D01*
X114619523Y-98906819D01*
X114729414Y-98796928D01*
X114831232Y-98656788D01*
X114909873Y-98502445D01*
X114963402Y-98337701D01*
X114990500Y-98166611D01*
X114990500Y-97993389D01*
X114963402Y-97822299D01*
X114909873Y-97657555D01*
X114831232Y-97503212D01*
X114729414Y-97363072D01*
X114606928Y-97240586D01*
X114466788Y-97138768D01*
X114312445Y-97060127D01*
X114147701Y-97006598D01*
X114147699Y-97006597D01*
X114147698Y-97006597D01*
X114016271Y-96985781D01*
X113976611Y-96979500D01*
X113003389Y-96979500D01*
X112963728Y-96985781D01*
X112832302Y-97006597D01*
X112667552Y-97060128D01*
X112513211Y-97138768D01*
X112453495Y-97182155D01*
X112373072Y-97240586D01*
X112373070Y-97240588D01*
X112373069Y-97240588D01*
X112250588Y-97363069D01*
X112250588Y-97363070D01*
X112250586Y-97363072D01*
X112206859Y-97423256D01*
X112148768Y-97503211D01*
X112070128Y-97657552D01*
X112016597Y-97822302D01*
X111992616Y-97973713D01*
X111989500Y-97993389D01*
X111989500Y-98166611D01*
X112016598Y-98337701D01*
X112070127Y-98502445D01*
X112148768Y-98656788D01*
X112250586Y-98796928D01*
X112250588Y-98796930D01*
X112360477Y-98906819D01*
X112393962Y-98968142D01*
X112388978Y-99037834D01*
X112347106Y-99093767D01*
X112281642Y-99118184D01*
X112272796Y-99118500D01*
X94519097Y-99118500D01*
X94452058Y-99098815D01*
X94431416Y-99082181D01*
X91916590Y-96567355D01*
X91916588Y-96567352D01*
X91797717Y-96448481D01*
X91797712Y-96448477D01*
X91741286Y-96415900D01*
X91693071Y-96365333D01*
X91679847Y-96296726D01*
X91694615Y-96253062D01*
X91692839Y-96252157D01*
X91695051Y-96247816D01*
X91791557Y-96058412D01*
X91857246Y-95856243D01*
X91890500Y-95646287D01*
X91890500Y-95433713D01*
X91882451Y-95382896D01*
X91891405Y-95313606D01*
X91936401Y-95260153D01*
X92003152Y-95239513D01*
X92004924Y-95239500D01*
X111878192Y-95239500D01*
X111945231Y-95259185D01*
X111990986Y-95311989D01*
X112000930Y-95381147D01*
X112000671Y-95382852D01*
X111989500Y-95453389D01*
X111989500Y-95626611D01*
X112016598Y-95797701D01*
X112070127Y-95962445D01*
X112148768Y-96116788D01*
X112250586Y-96256928D01*
X112373072Y-96379414D01*
X112513212Y-96481232D01*
X112667555Y-96559873D01*
X112832299Y-96613402D01*
X113003389Y-96640500D01*
X113003390Y-96640500D01*
X113976610Y-96640500D01*
X113976611Y-96640500D01*
X114147701Y-96613402D01*
X114312445Y-96559873D01*
X114466788Y-96481232D01*
X114606928Y-96379414D01*
X114729414Y-96256928D01*
X114831232Y-96116788D01*
X114909873Y-95962445D01*
X114963402Y-95797701D01*
X114990500Y-95626611D01*
X114990500Y-95453389D01*
X114979335Y-95382896D01*
X114988289Y-95313605D01*
X115033286Y-95260153D01*
X115100037Y-95239513D01*
X115101808Y-95239500D01*
X170274331Y-95239500D01*
X170274347Y-95239501D01*
X170281943Y-95239501D01*
X170440054Y-95239501D01*
X170440057Y-95239501D01*
X170592785Y-95198577D01*
X170642904Y-95169639D01*
X170729716Y-95119520D01*
X170841520Y-95007716D01*
X170841520Y-95007714D01*
X170851728Y-94997507D01*
X170851729Y-94997504D01*
X187146438Y-78702796D01*
X187207759Y-78669313D01*
X187272433Y-78672547D01*
X187398632Y-78713553D01*
X187515270Y-78732026D01*
X187631903Y-78750500D01*
X187631908Y-78750500D01*
X187868097Y-78750500D01*
X188101368Y-78713553D01*
X188134468Y-78702798D01*
X188325992Y-78640568D01*
X188536433Y-78533343D01*
X188727510Y-78394517D01*
X188894517Y-78227510D01*
X189033343Y-78036433D01*
X189140568Y-77825992D01*
X189213553Y-77601368D01*
X189213554Y-77601364D01*
X189250500Y-77368097D01*
X189250500Y-77131902D01*
X192749500Y-77131902D01*
X192749500Y-77368097D01*
X192786446Y-77601368D01*
X192859433Y-77825996D01*
X192966657Y-78036433D01*
X193105483Y-78227510D01*
X193272490Y-78394517D01*
X193463567Y-78533343D01*
X193562991Y-78584002D01*
X193674003Y-78640566D01*
X193674005Y-78640566D01*
X193674008Y-78640568D01*
X193762476Y-78669313D01*
X193898631Y-78713553D01*
X194131903Y-78750500D01*
X194131908Y-78750500D01*
X194368097Y-78750500D01*
X194601368Y-78713553D01*
X194634468Y-78702798D01*
X194825992Y-78640568D01*
X195036433Y-78533343D01*
X195227510Y-78394517D01*
X195394517Y-78227510D01*
X195533343Y-78036433D01*
X195640568Y-77825992D01*
X195713553Y-77601368D01*
X195713554Y-77601364D01*
X195750500Y-77368097D01*
X195750500Y-77131902D01*
X195713553Y-76898631D01*
X195640566Y-76674003D01*
X195533342Y-76463566D01*
X195394517Y-76272490D01*
X195227510Y-76105483D01*
X195036433Y-75966657D01*
X194825996Y-75859433D01*
X194601368Y-75786446D01*
X194368097Y-75749500D01*
X194368092Y-75749500D01*
X194131908Y-75749500D01*
X194131903Y-75749500D01*
X193898631Y-75786446D01*
X193674003Y-75859433D01*
X193463566Y-75966657D01*
X193354550Y-76045862D01*
X193272490Y-76105483D01*
X193272488Y-76105485D01*
X193272487Y-76105485D01*
X193105485Y-76272487D01*
X193105485Y-76272488D01*
X193105483Y-76272490D01*
X193045862Y-76354550D01*
X192966657Y-76463566D01*
X192859433Y-76674003D01*
X192786446Y-76898631D01*
X192749500Y-77131902D01*
X189250500Y-77131902D01*
X189213553Y-76898631D01*
X189140566Y-76674003D01*
X189033342Y-76463566D01*
X188894517Y-76272490D01*
X188727510Y-76105483D01*
X188536433Y-75966657D01*
X188325996Y-75859433D01*
X188101368Y-75786446D01*
X187868097Y-75749500D01*
X187868092Y-75749500D01*
X187631908Y-75749500D01*
X187631903Y-75749500D01*
X187398631Y-75786446D01*
X187174003Y-75859433D01*
X186963566Y-75966657D01*
X186854550Y-76045862D01*
X186772490Y-76105483D01*
X186772488Y-76105485D01*
X186772487Y-76105485D01*
X186605485Y-76272487D01*
X186605485Y-76272488D01*
X186605483Y-76272490D01*
X186545862Y-76354550D01*
X186466657Y-76463566D01*
X186359433Y-76674003D01*
X186286446Y-76898631D01*
X186249500Y-77131902D01*
X186249500Y-77368097D01*
X186286446Y-77601364D01*
X186286446Y-77601365D01*
X186327450Y-77727563D01*
X186329445Y-77797405D01*
X186297200Y-77853562D01*
X170148584Y-94002181D01*
X170087261Y-94035666D01*
X170060903Y-94038500D01*
X114707204Y-94038500D01*
X114640165Y-94018815D01*
X114594410Y-93966011D01*
X114584466Y-93896853D01*
X114613491Y-93833297D01*
X114619523Y-93826819D01*
X114729414Y-93716928D01*
X114831232Y-93576788D01*
X114909873Y-93422445D01*
X114963402Y-93257701D01*
X114990500Y-93086611D01*
X114990500Y-92913389D01*
X114963402Y-92742299D01*
X114909873Y-92577555D01*
X114831232Y-92423212D01*
X114729414Y-92283072D01*
X114606928Y-92160586D01*
X114466788Y-92058768D01*
X114312445Y-91980127D01*
X114147701Y-91926598D01*
X114147699Y-91926597D01*
X114147698Y-91926597D01*
X114002295Y-91903568D01*
X113976611Y-91899500D01*
X113003389Y-91899500D01*
X112977705Y-91903568D01*
X112832302Y-91926597D01*
X112667552Y-91980128D01*
X112513211Y-92058768D01*
X112433256Y-92116859D01*
X112373072Y-92160586D01*
X112373070Y-92160588D01*
X112373069Y-92160588D01*
X112250588Y-92283069D01*
X112250588Y-92283070D01*
X112250586Y-92283072D01*
X112243966Y-92292184D01*
X112148768Y-92423211D01*
X112070128Y-92577552D01*
X112016597Y-92742302D01*
X111992616Y-92893713D01*
X111989500Y-92913389D01*
X111989500Y-93086611D01*
X112016598Y-93257701D01*
X112070127Y-93422445D01*
X112148768Y-93576788D01*
X112250586Y-93716928D01*
X112250588Y-93716930D01*
X112360477Y-93826819D01*
X112393962Y-93888142D01*
X112388978Y-93957834D01*
X112347106Y-94013767D01*
X112281642Y-94038184D01*
X112272796Y-94038500D01*
X91698160Y-94038500D01*
X91631121Y-94018815D01*
X91585366Y-93966011D01*
X91575422Y-93896853D01*
X91597842Y-93841615D01*
X91695048Y-93707820D01*
X91695047Y-93707820D01*
X91695051Y-93707816D01*
X91791557Y-93518412D01*
X91857246Y-93316243D01*
X91890500Y-93106287D01*
X91890500Y-92893713D01*
X91857246Y-92683757D01*
X91791557Y-92481588D01*
X91695051Y-92292184D01*
X91695049Y-92292181D01*
X91695048Y-92292179D01*
X91570109Y-92120213D01*
X91419786Y-91969890D01*
X91247820Y-91844951D01*
X91247115Y-91844591D01*
X91239054Y-91840485D01*
X91188259Y-91792512D01*
X91171463Y-91724692D01*
X91193999Y-91658556D01*
X91239054Y-91619515D01*
X91247816Y-91615051D01*
X91328500Y-91556431D01*
X91419786Y-91490109D01*
X91419788Y-91490106D01*
X91419792Y-91490104D01*
X91570104Y-91339792D01*
X91570106Y-91339788D01*
X91570109Y-91339786D01*
X91695048Y-91167820D01*
X91695047Y-91167820D01*
X91695051Y-91167816D01*
X91791557Y-90978412D01*
X91857246Y-90776243D01*
X91890500Y-90566287D01*
X91890500Y-90373389D01*
X111989500Y-90373389D01*
X111989500Y-90546611D01*
X112016598Y-90717701D01*
X112070127Y-90882445D01*
X112148768Y-91036788D01*
X112250586Y-91176928D01*
X112373072Y-91299414D01*
X112513212Y-91401232D01*
X112667555Y-91479873D01*
X112832299Y-91533402D01*
X113003389Y-91560500D01*
X113003390Y-91560500D01*
X113976610Y-91560500D01*
X113976611Y-91560500D01*
X114147701Y-91533402D01*
X114312445Y-91479873D01*
X114466788Y-91401232D01*
X114606928Y-91299414D01*
X114729414Y-91176928D01*
X114831232Y-91036788D01*
X114909873Y-90882445D01*
X114963402Y-90717701D01*
X114990500Y-90546611D01*
X114990500Y-90373389D01*
X114963402Y-90202299D01*
X114909873Y-90037555D01*
X114831232Y-89883212D01*
X114729414Y-89743072D01*
X114606928Y-89620586D01*
X114466788Y-89518768D01*
X114312445Y-89440127D01*
X114147701Y-89386598D01*
X114147699Y-89386597D01*
X114147698Y-89386597D01*
X114016271Y-89365781D01*
X113976611Y-89359500D01*
X113003389Y-89359500D01*
X112963728Y-89365781D01*
X112832302Y-89386597D01*
X112667552Y-89440128D01*
X112513211Y-89518768D01*
X112433256Y-89576859D01*
X112373072Y-89620586D01*
X112373070Y-89620588D01*
X112373069Y-89620588D01*
X112250588Y-89743069D01*
X112250588Y-89743070D01*
X112250586Y-89743072D01*
X112243966Y-89752184D01*
X112148768Y-89883211D01*
X112070128Y-90037552D01*
X112016597Y-90202302D01*
X111992616Y-90353713D01*
X111989500Y-90373389D01*
X91890500Y-90373389D01*
X91890500Y-90353713D01*
X91857246Y-90143757D01*
X91843506Y-90101473D01*
X91841512Y-90031635D01*
X91873755Y-89975478D01*
X93292416Y-88556819D01*
X93353739Y-88523334D01*
X93380097Y-88520500D01*
X112102815Y-88520500D01*
X112169854Y-88540185D01*
X112203131Y-88571612D01*
X112250586Y-88636928D01*
X112373072Y-88759414D01*
X112513212Y-88861232D01*
X112667555Y-88939873D01*
X112832299Y-88993402D01*
X113003389Y-89020500D01*
X113003390Y-89020500D01*
X113976610Y-89020500D01*
X113976611Y-89020500D01*
X114147701Y-88993402D01*
X114312445Y-88939873D01*
X114466788Y-88861232D01*
X114606928Y-88759414D01*
X114729414Y-88636928D01*
X114831232Y-88496788D01*
X114909873Y-88342445D01*
X114963402Y-88177701D01*
X114990500Y-88006611D01*
X114990500Y-87833389D01*
X114963402Y-87662299D01*
X114909873Y-87497555D01*
X114831232Y-87343212D01*
X114729414Y-87203072D01*
X114606928Y-87080586D01*
X114466788Y-86978768D01*
X114312445Y-86900127D01*
X114147701Y-86846598D01*
X114147699Y-86846597D01*
X114147698Y-86846597D01*
X114016271Y-86825781D01*
X113976611Y-86819500D01*
X113003389Y-86819500D01*
X112963728Y-86825781D01*
X112832302Y-86846597D01*
X112667552Y-86900128D01*
X112513211Y-86978768D01*
X112433256Y-87036859D01*
X112373072Y-87080586D01*
X112373070Y-87080588D01*
X112373069Y-87080588D01*
X112250588Y-87203069D01*
X112250588Y-87203070D01*
X112250586Y-87203072D01*
X112204868Y-87265998D01*
X112203133Y-87268386D01*
X112147803Y-87311051D01*
X112102815Y-87319500D01*
X94154857Y-87319500D01*
X94087818Y-87299815D01*
X94042063Y-87247011D01*
X94032119Y-87177853D01*
X94061144Y-87114297D01*
X94067176Y-87107819D01*
X95158176Y-86016819D01*
X95219499Y-85983334D01*
X95245857Y-85980500D01*
X112102815Y-85980500D01*
X112169854Y-86000185D01*
X112203131Y-86031612D01*
X112250586Y-86096928D01*
X112373072Y-86219414D01*
X112513212Y-86321232D01*
X112667555Y-86399873D01*
X112832299Y-86453402D01*
X113003389Y-86480500D01*
X113003390Y-86480500D01*
X113976610Y-86480500D01*
X113976611Y-86480500D01*
X114147701Y-86453402D01*
X114312445Y-86399873D01*
X114466788Y-86321232D01*
X114606928Y-86219414D01*
X114729414Y-86096928D01*
X114831232Y-85956788D01*
X114909873Y-85802445D01*
X114963402Y-85637701D01*
X114990500Y-85466611D01*
X114990500Y-85293389D01*
X114963402Y-85122299D01*
X114909873Y-84957555D01*
X114831232Y-84803212D01*
X114729414Y-84663072D01*
X114606928Y-84540586D01*
X114466788Y-84438768D01*
X114312445Y-84360127D01*
X114147701Y-84306598D01*
X114147699Y-84306597D01*
X114147698Y-84306597D01*
X114016271Y-84285781D01*
X113976611Y-84279500D01*
X113003389Y-84279500D01*
X112963728Y-84285781D01*
X112832302Y-84306597D01*
X112667552Y-84360128D01*
X112513211Y-84438768D01*
X112433256Y-84496859D01*
X112373072Y-84540586D01*
X112373070Y-84540588D01*
X112373069Y-84540588D01*
X112250588Y-84663069D01*
X112250588Y-84663070D01*
X112250586Y-84663072D01*
X112203133Y-84728386D01*
X112147803Y-84771051D01*
X112102815Y-84779500D01*
X95024817Y-84779500D01*
X94866703Y-84779500D01*
X94713975Y-84820423D01*
X94713974Y-84820423D01*
X94713972Y-84820424D01*
X94713969Y-84820425D01*
X94663856Y-84849359D01*
X94663855Y-84849360D01*
X94620449Y-84874420D01*
X94577045Y-84899479D01*
X94577042Y-84899481D01*
X94465238Y-85011286D01*
X92004134Y-87472389D01*
X91942811Y-87505874D01*
X91873119Y-87500890D01*
X91817186Y-87459018D01*
X91798522Y-87423025D01*
X91791556Y-87401586D01*
X91723687Y-87268386D01*
X91695051Y-87212184D01*
X91695049Y-87212181D01*
X91695048Y-87212179D01*
X91570109Y-87040213D01*
X91419786Y-86889890D01*
X91247820Y-86764951D01*
X91058414Y-86668444D01*
X91058413Y-86668443D01*
X91058412Y-86668443D01*
X90856243Y-86602754D01*
X90856241Y-86602753D01*
X90856240Y-86602753D01*
X90694957Y-86577208D01*
X90646287Y-86569500D01*
X90433713Y-86569500D01*
X90385042Y-86577208D01*
X90223760Y-86602753D01*
X90021585Y-86668444D01*
X89832179Y-86764951D01*
X89660213Y-86889890D01*
X89509890Y-87040213D01*
X89384949Y-87212182D01*
X89380484Y-87220946D01*
X89332509Y-87271742D01*
X89264688Y-87288536D01*
X89198553Y-87265998D01*
X89159516Y-87220946D01*
X89155050Y-87212182D01*
X89030109Y-87040213D01*
X88879786Y-86889890D01*
X88707820Y-86764951D01*
X88518414Y-86668444D01*
X88518413Y-86668443D01*
X88518412Y-86668443D01*
X88316243Y-86602754D01*
X88316241Y-86602753D01*
X88316240Y-86602753D01*
X88154957Y-86577208D01*
X88106287Y-86569500D01*
X87893713Y-86569500D01*
X87845042Y-86577208D01*
X87683760Y-86602753D01*
X87481585Y-86668444D01*
X87292179Y-86764951D01*
X87120213Y-86889890D01*
X86969890Y-87040213D01*
X86844951Y-87212179D01*
X86748444Y-87401585D01*
X86682753Y-87603760D01*
X86673481Y-87662302D01*
X86649500Y-87813713D01*
X82500500Y-87813713D01*
X82500500Y-72768668D01*
X110886170Y-72768668D01*
X110886170Y-73031331D01*
X110886171Y-73031348D01*
X110920454Y-73291756D01*
X110920455Y-73291761D01*
X110920456Y-73291767D01*
X110920457Y-73291769D01*
X110988441Y-73545492D01*
X111088958Y-73788164D01*
X111088966Y-73788180D01*
X111152372Y-73898001D01*
X111220301Y-74015657D01*
X111220303Y-74015660D01*
X111220304Y-74015661D01*
X111380206Y-74224050D01*
X111380212Y-74224057D01*
X111565942Y-74409787D01*
X111565948Y-74409792D01*
X111774343Y-74569699D01*
X111920547Y-74654110D01*
X112001819Y-74701033D01*
X112001835Y-74701041D01*
X112132756Y-74755270D01*
X112244508Y-74801559D01*
X112498233Y-74869544D01*
X112758662Y-74903830D01*
X112758669Y-74903830D01*
X113021331Y-74903830D01*
X113021338Y-74903830D01*
X113281767Y-74869544D01*
X113535492Y-74801559D01*
X113726261Y-74722539D01*
X113778164Y-74701041D01*
X113778167Y-74701039D01*
X113778173Y-74701037D01*
X114005657Y-74569699D01*
X114214052Y-74409792D01*
X114399792Y-74224052D01*
X114559699Y-74015657D01*
X114691037Y-73788173D01*
X114692414Y-73784850D01*
X114761067Y-73619105D01*
X114791559Y-73545492D01*
X114859544Y-73291767D01*
X114893830Y-73031338D01*
X114893830Y-72768662D01*
X114893392Y-72765338D01*
X179886170Y-72765338D01*
X179886170Y-73028001D01*
X179886171Y-73028018D01*
X179920454Y-73288426D01*
X179920455Y-73288431D01*
X179920456Y-73288437D01*
X179985948Y-73532859D01*
X179988441Y-73542162D01*
X180088958Y-73784834D01*
X180088966Y-73784850D01*
X180152283Y-73894517D01*
X180220301Y-74012327D01*
X180220303Y-74012330D01*
X180220304Y-74012331D01*
X180380206Y-74220720D01*
X180380212Y-74220727D01*
X180565942Y-74406457D01*
X180565949Y-74406463D01*
X180570289Y-74409793D01*
X180774343Y-74566369D01*
X180920547Y-74650780D01*
X181001819Y-74697703D01*
X181001835Y-74697711D01*
X181132756Y-74751940D01*
X181244508Y-74798229D01*
X181498233Y-74866214D01*
X181758662Y-74900500D01*
X181758669Y-74900500D01*
X182021331Y-74900500D01*
X182021338Y-74900500D01*
X182281767Y-74866214D01*
X182535492Y-74798229D01*
X182726261Y-74719209D01*
X182778164Y-74697711D01*
X182778167Y-74697709D01*
X182778173Y-74697707D01*
X183005657Y-74566369D01*
X183214052Y-74406462D01*
X183399792Y-74220722D01*
X183559699Y-74012327D01*
X183691037Y-73784843D01*
X183691214Y-73784417D01*
X183714785Y-73727510D01*
X183791559Y-73542162D01*
X183859544Y-73288437D01*
X183893830Y-73028008D01*
X183893830Y-72765332D01*
X183876270Y-72631947D01*
X186250000Y-72631947D01*
X186250000Y-72868052D01*
X186286934Y-73101247D01*
X186359897Y-73325802D01*
X186467087Y-73536174D01*
X186527338Y-73619104D01*
X186527340Y-73619105D01*
X187226212Y-72920233D01*
X187237482Y-72962292D01*
X187309890Y-73087708D01*
X187412292Y-73190110D01*
X187537708Y-73262518D01*
X187579765Y-73273787D01*
X186880893Y-73972658D01*
X186963828Y-74032914D01*
X187174197Y-74140102D01*
X187398752Y-74213065D01*
X187398751Y-74213065D01*
X187631948Y-74250000D01*
X187868052Y-74250000D01*
X188101247Y-74213065D01*
X188325802Y-74140102D01*
X188536163Y-74032918D01*
X188536169Y-74032914D01*
X188619104Y-73972658D01*
X188619105Y-73972658D01*
X187920233Y-73273787D01*
X187962292Y-73262518D01*
X188087708Y-73190110D01*
X188190110Y-73087708D01*
X188262518Y-72962292D01*
X188273787Y-72920234D01*
X188972658Y-73619105D01*
X188972658Y-73619104D01*
X189032914Y-73536169D01*
X189032918Y-73536163D01*
X189140102Y-73325802D01*
X189213065Y-73101247D01*
X189250000Y-72868052D01*
X189250000Y-72631947D01*
X189249993Y-72631902D01*
X192749500Y-72631902D01*
X192749500Y-72868097D01*
X192786446Y-73101368D01*
X192859433Y-73325996D01*
X192964836Y-73532859D01*
X192966657Y-73536433D01*
X193105483Y-73727510D01*
X193272490Y-73894517D01*
X193463567Y-74033343D01*
X193562991Y-74084002D01*
X193674003Y-74140566D01*
X193674005Y-74140566D01*
X193674008Y-74140568D01*
X193794412Y-74179689D01*
X193898631Y-74213553D01*
X194131903Y-74250500D01*
X194131908Y-74250500D01*
X194368097Y-74250500D01*
X194601368Y-74213553D01*
X194602870Y-74213065D01*
X194825992Y-74140568D01*
X195036433Y-74033343D01*
X195227510Y-73894517D01*
X195394517Y-73727510D01*
X195533343Y-73536433D01*
X195640568Y-73325992D01*
X195713553Y-73101368D01*
X195724646Y-73031331D01*
X195750500Y-72868097D01*
X195750500Y-72631902D01*
X195713553Y-72398631D01*
X195640566Y-72174003D01*
X195559846Y-72015583D01*
X195533343Y-71963567D01*
X195394517Y-71772490D01*
X195227510Y-71605483D01*
X195036433Y-71466657D01*
X194825996Y-71359433D01*
X194601368Y-71286446D01*
X194368097Y-71249500D01*
X194368092Y-71249500D01*
X194131908Y-71249500D01*
X194131903Y-71249500D01*
X193898631Y-71286446D01*
X193674003Y-71359433D01*
X193463566Y-71466657D01*
X193380047Y-71527338D01*
X193272490Y-71605483D01*
X193272488Y-71605485D01*
X193272487Y-71605485D01*
X193105485Y-71772487D01*
X193105485Y-71772488D01*
X193105483Y-71772490D01*
X193045862Y-71854550D01*
X192966657Y-71963566D01*
X192859433Y-72174003D01*
X192786446Y-72398631D01*
X192749500Y-72631902D01*
X189249993Y-72631902D01*
X189213065Y-72398752D01*
X189140102Y-72174197D01*
X189032914Y-71963828D01*
X188972658Y-71880894D01*
X188972658Y-71880893D01*
X188273787Y-72579765D01*
X188262518Y-72537708D01*
X188190110Y-72412292D01*
X188087708Y-72309890D01*
X187962292Y-72237482D01*
X187920234Y-72226212D01*
X188619105Y-71527340D01*
X188619104Y-71527338D01*
X188536174Y-71467087D01*
X188325802Y-71359897D01*
X188101247Y-71286934D01*
X188101248Y-71286934D01*
X187868052Y-71250000D01*
X187631948Y-71250000D01*
X187398752Y-71286934D01*
X187174197Y-71359897D01*
X186963830Y-71467084D01*
X186880894Y-71527340D01*
X187579766Y-72226212D01*
X187537708Y-72237482D01*
X187412292Y-72309890D01*
X187309890Y-72412292D01*
X187237482Y-72537708D01*
X187226212Y-72579766D01*
X186527340Y-71880894D01*
X186467084Y-71963830D01*
X186359897Y-72174197D01*
X186286934Y-72398752D01*
X186250000Y-72631947D01*
X183876270Y-72631947D01*
X183859544Y-72504903D01*
X183791559Y-72251178D01*
X183737833Y-72121472D01*
X183691041Y-72008505D01*
X183691033Y-72008489D01*
X183617365Y-71880894D01*
X183559699Y-71781013D01*
X183535687Y-71749720D01*
X183459235Y-71650085D01*
X183399793Y-71572619D01*
X183399787Y-71572612D01*
X183214057Y-71386882D01*
X183214050Y-71386876D01*
X183005661Y-71226974D01*
X183005660Y-71226973D01*
X183005657Y-71226971D01*
X182914960Y-71174607D01*
X182778180Y-71095636D01*
X182778164Y-71095628D01*
X182535492Y-70995111D01*
X182281767Y-70927126D01*
X182281761Y-70927125D01*
X182281756Y-70927124D01*
X182021348Y-70892841D01*
X182021343Y-70892840D01*
X182021338Y-70892840D01*
X181758662Y-70892840D01*
X181758656Y-70892840D01*
X181758651Y-70892841D01*
X181498243Y-70927124D01*
X181498236Y-70927125D01*
X181498233Y-70927126D01*
X181390992Y-70955860D01*
X181244507Y-70995111D01*
X181001835Y-71095628D01*
X181001819Y-71095636D01*
X180774338Y-71226974D01*
X180565949Y-71386876D01*
X180565942Y-71386882D01*
X180380212Y-71572612D01*
X180380206Y-71572619D01*
X180220304Y-71781008D01*
X180220301Y-71781012D01*
X180220301Y-71781013D01*
X180211716Y-71795881D01*
X180088966Y-72008489D01*
X180088958Y-72008505D01*
X179988441Y-72251177D01*
X179920457Y-72504900D01*
X179920454Y-72504913D01*
X179886171Y-72765321D01*
X179886170Y-72765338D01*
X114893392Y-72765338D01*
X114859545Y-72508243D01*
X114859544Y-72508233D01*
X114791559Y-72254508D01*
X114692593Y-72015583D01*
X114691041Y-72011835D01*
X114691033Y-72011819D01*
X114625705Y-71898669D01*
X114559699Y-71784343D01*
X114399792Y-71575948D01*
X114399787Y-71575942D01*
X114214057Y-71390212D01*
X114214050Y-71390206D01*
X114005661Y-71230304D01*
X114005660Y-71230303D01*
X114005657Y-71230301D01*
X113914960Y-71177937D01*
X113778180Y-71098966D01*
X113778164Y-71098958D01*
X113535492Y-70998441D01*
X113523064Y-70995111D01*
X113281767Y-70930456D01*
X113281761Y-70930455D01*
X113281756Y-70930454D01*
X113021348Y-70896171D01*
X113021343Y-70896170D01*
X113021338Y-70896170D01*
X112758662Y-70896170D01*
X112758656Y-70896170D01*
X112758651Y-70896171D01*
X112498243Y-70930454D01*
X112498236Y-70930455D01*
X112498233Y-70930456D01*
X112390992Y-70959190D01*
X112244507Y-70998441D01*
X112001835Y-71098958D01*
X112001819Y-71098966D01*
X111774338Y-71230304D01*
X111565949Y-71390206D01*
X111565942Y-71390212D01*
X111380212Y-71575942D01*
X111380206Y-71575949D01*
X111220304Y-71784338D01*
X111088966Y-72011819D01*
X111088958Y-72011835D01*
X110988441Y-72254507D01*
X110920457Y-72508230D01*
X110920454Y-72508243D01*
X110886171Y-72768651D01*
X110886170Y-72768668D01*
X82500500Y-72768668D01*
X82500500Y-63845527D01*
X84499478Y-63845527D01*
X84499478Y-64154472D01*
X84534064Y-64461441D01*
X84534067Y-64461455D01*
X84602810Y-64762641D01*
X84602814Y-64762653D01*
X84704842Y-65054231D01*
X84704848Y-65054245D01*
X84838884Y-65332573D01*
X84838886Y-65332576D01*
X85003247Y-65594156D01*
X85195863Y-65835689D01*
X85414311Y-66054137D01*
X85655844Y-66246753D01*
X85917424Y-66411114D01*
X86195762Y-66545155D01*
X86195768Y-66545157D01*
X86487346Y-66647185D01*
X86487358Y-66647189D01*
X86788544Y-66715933D01*
X86788553Y-66715934D01*
X86788558Y-66715935D01*
X86993204Y-66738992D01*
X87095528Y-66750521D01*
X87095531Y-66750522D01*
X87095534Y-66750522D01*
X87404469Y-66750522D01*
X87404470Y-66750521D01*
X87561356Y-66732844D01*
X87711441Y-66715935D01*
X87711444Y-66715934D01*
X87711456Y-66715933D01*
X88012642Y-66647189D01*
X88304238Y-66545155D01*
X88582576Y-66411114D01*
X88844156Y-66246753D01*
X89085689Y-66054137D01*
X89304137Y-65835689D01*
X89496753Y-65594156D01*
X89661114Y-65332576D01*
X89795155Y-65054238D01*
X89897189Y-64762642D01*
X89965933Y-64461456D01*
X89979470Y-64341315D01*
X90000521Y-64154472D01*
X90000522Y-64154468D01*
X90000522Y-63845531D01*
X90000521Y-63845527D01*
X205999478Y-63845527D01*
X205999478Y-64154472D01*
X206034064Y-64461441D01*
X206034067Y-64461455D01*
X206102810Y-64762641D01*
X206102814Y-64762653D01*
X206204842Y-65054231D01*
X206204848Y-65054245D01*
X206338884Y-65332573D01*
X206338886Y-65332576D01*
X206503247Y-65594156D01*
X206695863Y-65835689D01*
X206914311Y-66054137D01*
X207155844Y-66246753D01*
X207417424Y-66411114D01*
X207695762Y-66545155D01*
X207695768Y-66545157D01*
X207987346Y-66647185D01*
X207987358Y-66647189D01*
X208288544Y-66715933D01*
X208288553Y-66715934D01*
X208288558Y-66715935D01*
X208493204Y-66738992D01*
X208595528Y-66750521D01*
X208595531Y-66750522D01*
X208595534Y-66750522D01*
X208904469Y-66750522D01*
X208904470Y-66750521D01*
X209061356Y-66732844D01*
X209211441Y-66715935D01*
X209211444Y-66715934D01*
X209211456Y-66715933D01*
X209512642Y-66647189D01*
X209804238Y-66545155D01*
X210082576Y-66411114D01*
X210344156Y-66246753D01*
X210585689Y-66054137D01*
X210804137Y-65835689D01*
X210996753Y-65594156D01*
X211161114Y-65332576D01*
X211295155Y-65054238D01*
X211397189Y-64762642D01*
X211465933Y-64461456D01*
X211479470Y-64341315D01*
X211500521Y-64154472D01*
X211500522Y-64154468D01*
X211500522Y-63845531D01*
X211500521Y-63845527D01*
X211465935Y-63538558D01*
X211465934Y-63538553D01*
X211465933Y-63538544D01*
X211397189Y-63237358D01*
X211295155Y-62945762D01*
X211161114Y-62667424D01*
X210996753Y-62405844D01*
X210804137Y-62164311D01*
X210585689Y-61945863D01*
X210344156Y-61753247D01*
X210082576Y-61588886D01*
X210082573Y-61588884D01*
X209804245Y-61454848D01*
X209804231Y-61454842D01*
X209512653Y-61352814D01*
X209512641Y-61352810D01*
X209280199Y-61299757D01*
X209211456Y-61284067D01*
X209211453Y-61284066D01*
X209211441Y-61284064D01*
X208904472Y-61249478D01*
X208904466Y-61249478D01*
X208595534Y-61249478D01*
X208595527Y-61249478D01*
X208288558Y-61284064D01*
X208288544Y-61284067D01*
X207987358Y-61352810D01*
X207987346Y-61352814D01*
X207695768Y-61454842D01*
X207695754Y-61454848D01*
X207417426Y-61588884D01*
X207155845Y-61753246D01*
X206914311Y-61945862D01*
X206695862Y-62164311D01*
X206503246Y-62405845D01*
X206338884Y-62667426D01*
X206204848Y-62945754D01*
X206204842Y-62945768D01*
X206102814Y-63237346D01*
X206102810Y-63237358D01*
X206034067Y-63538544D01*
X206034064Y-63538558D01*
X205999478Y-63845527D01*
X90000521Y-63845527D01*
X89965935Y-63538558D01*
X89965934Y-63538553D01*
X89965933Y-63538544D01*
X89897189Y-63237358D01*
X89795155Y-62945762D01*
X89661114Y-62667424D01*
X89496753Y-62405844D01*
X89304137Y-62164311D01*
X89085689Y-61945863D01*
X88844156Y-61753247D01*
X88582576Y-61588886D01*
X88582573Y-61588884D01*
X88304245Y-61454848D01*
X88304231Y-61454842D01*
X88012653Y-61352814D01*
X88012641Y-61352810D01*
X87780199Y-61299757D01*
X87711456Y-61284067D01*
X87711453Y-61284066D01*
X87711441Y-61284064D01*
X87404472Y-61249478D01*
X87404466Y-61249478D01*
X87095534Y-61249478D01*
X87095527Y-61249478D01*
X86788558Y-61284064D01*
X86788544Y-61284067D01*
X86487358Y-61352810D01*
X86487346Y-61352814D01*
X86195768Y-61454842D01*
X86195754Y-61454848D01*
X85917426Y-61588884D01*
X85655845Y-61753246D01*
X85414311Y-61945862D01*
X85195862Y-62164311D01*
X85003246Y-62405845D01*
X84838884Y-62667426D01*
X84704848Y-62945754D01*
X84704842Y-62945768D01*
X84602814Y-63237346D01*
X84602810Y-63237358D01*
X84534067Y-63538544D01*
X84534064Y-63538558D01*
X84499478Y-63845527D01*
X82500500Y-63845527D01*
X82500500Y-59006961D01*
X82501280Y-58993077D01*
X82507924Y-58934109D01*
X82511460Y-58902729D01*
X82517635Y-58875670D01*
X82545353Y-58796456D01*
X82557397Y-58771448D01*
X82602046Y-58700389D01*
X82619351Y-58678690D01*
X82678690Y-58619351D01*
X82700389Y-58602046D01*
X82771450Y-58557396D01*
X82796456Y-58545353D01*
X82875670Y-58517635D01*
X82902732Y-58511459D01*
X82993077Y-58501279D01*
X83006959Y-58500500D01*
X212993063Y-58500500D01*
X213006912Y-58501278D01*
G37*
%TD.AperFunction*%
%TD*%
M02*
