%TF.GenerationSoftware,KiCad,Pcbnew,9.0.3*%
%TF.CreationDate,2025-08-15T10:31:11+02:00*%
%TF.ProjectId,Displaypanel,44697370-6c61-4797-9061-6e656c2e6b69,rev?*%
%TF.SameCoordinates,Original*%
%TF.FileFunction,Legend,Top*%
%TF.FilePolarity,Positive*%
%FSLAX46Y46*%
G04 Gerber Fmt 4.6, Leading zero omitted, Abs format (unit mm)*
G04 Created by KiCad (PCBNEW 9.0.3) date 2025-08-15 10:31:11*
%MOMM*%
%LPD*%
G01*
G04 APERTURE LIST*
%ADD10C,0.150000*%
%ADD11C,0.100000*%
%ADD12C,0.120000*%
G04 APERTURE END LIST*
D10*
X135051064Y-66502676D02*
X135051064Y-62502676D01*
X135051064Y-62502676D02*
X136003445Y-62502676D01*
X136003445Y-62502676D02*
X136574874Y-62693152D01*
X136574874Y-62693152D02*
X136955826Y-63074104D01*
X136955826Y-63074104D02*
X137146303Y-63455057D01*
X137146303Y-63455057D02*
X137336779Y-64216961D01*
X137336779Y-64216961D02*
X137336779Y-64788390D01*
X137336779Y-64788390D02*
X137146303Y-65550295D01*
X137146303Y-65550295D02*
X136955826Y-65931247D01*
X136955826Y-65931247D02*
X136574874Y-66312200D01*
X136574874Y-66312200D02*
X136003445Y-66502676D01*
X136003445Y-66502676D02*
X135051064Y-66502676D01*
X139051064Y-66502676D02*
X139051064Y-63836009D01*
X139051064Y-62502676D02*
X138860588Y-62693152D01*
X138860588Y-62693152D02*
X139051064Y-62883628D01*
X139051064Y-62883628D02*
X139241541Y-62693152D01*
X139241541Y-62693152D02*
X139051064Y-62502676D01*
X139051064Y-62502676D02*
X139051064Y-62883628D01*
X140765350Y-66312200D02*
X141146303Y-66502676D01*
X141146303Y-66502676D02*
X141908207Y-66502676D01*
X141908207Y-66502676D02*
X142289160Y-66312200D01*
X142289160Y-66312200D02*
X142479636Y-65931247D01*
X142479636Y-65931247D02*
X142479636Y-65740771D01*
X142479636Y-65740771D02*
X142289160Y-65359819D01*
X142289160Y-65359819D02*
X141908207Y-65169342D01*
X141908207Y-65169342D02*
X141336779Y-65169342D01*
X141336779Y-65169342D02*
X140955826Y-64978866D01*
X140955826Y-64978866D02*
X140765350Y-64597914D01*
X140765350Y-64597914D02*
X140765350Y-64407438D01*
X140765350Y-64407438D02*
X140955826Y-64026485D01*
X140955826Y-64026485D02*
X141336779Y-63836009D01*
X141336779Y-63836009D02*
X141908207Y-63836009D01*
X141908207Y-63836009D02*
X142289160Y-64026485D01*
X144193921Y-63836009D02*
X144193921Y-67836009D01*
X144193921Y-64026485D02*
X144574874Y-63836009D01*
X144574874Y-63836009D02*
X145336779Y-63836009D01*
X145336779Y-63836009D02*
X145717731Y-64026485D01*
X145717731Y-64026485D02*
X145908207Y-64216961D01*
X145908207Y-64216961D02*
X146098683Y-64597914D01*
X146098683Y-64597914D02*
X146098683Y-65740771D01*
X146098683Y-65740771D02*
X145908207Y-66121723D01*
X145908207Y-66121723D02*
X145717731Y-66312200D01*
X145717731Y-66312200D02*
X145336779Y-66502676D01*
X145336779Y-66502676D02*
X144574874Y-66502676D01*
X144574874Y-66502676D02*
X144193921Y-66312200D01*
X148384398Y-66502676D02*
X148003446Y-66312200D01*
X148003446Y-66312200D02*
X147812969Y-65931247D01*
X147812969Y-65931247D02*
X147812969Y-62502676D01*
X151622493Y-66502676D02*
X151622493Y-64407438D01*
X151622493Y-64407438D02*
X151432017Y-64026485D01*
X151432017Y-64026485D02*
X151051065Y-63836009D01*
X151051065Y-63836009D02*
X150289160Y-63836009D01*
X150289160Y-63836009D02*
X149908207Y-64026485D01*
X151622493Y-66312200D02*
X151241541Y-66502676D01*
X151241541Y-66502676D02*
X150289160Y-66502676D01*
X150289160Y-66502676D02*
X149908207Y-66312200D01*
X149908207Y-66312200D02*
X149717731Y-65931247D01*
X149717731Y-65931247D02*
X149717731Y-65550295D01*
X149717731Y-65550295D02*
X149908207Y-65169342D01*
X149908207Y-65169342D02*
X150289160Y-64978866D01*
X150289160Y-64978866D02*
X151241541Y-64978866D01*
X151241541Y-64978866D02*
X151622493Y-64788390D01*
X153146303Y-63836009D02*
X154098684Y-66502676D01*
X155051065Y-63836009D02*
X154098684Y-66502676D01*
X154098684Y-66502676D02*
X153717732Y-67455057D01*
X153717732Y-67455057D02*
X153527255Y-67645533D01*
X153527255Y-67645533D02*
X153146303Y-67836009D01*
X113944819Y-80761904D02*
X114754342Y-80761904D01*
X114754342Y-80761904D02*
X114849580Y-80714285D01*
X114849580Y-80714285D02*
X114897200Y-80666666D01*
X114897200Y-80666666D02*
X114944819Y-80571428D01*
X114944819Y-80571428D02*
X114944819Y-80380952D01*
X114944819Y-80380952D02*
X114897200Y-80285714D01*
X114897200Y-80285714D02*
X114849580Y-80238095D01*
X114849580Y-80238095D02*
X114754342Y-80190476D01*
X114754342Y-80190476D02*
X113944819Y-80190476D01*
X114944819Y-79190476D02*
X114944819Y-79761904D01*
X114944819Y-79476190D02*
X113944819Y-79476190D01*
X113944819Y-79476190D02*
X114087676Y-79571428D01*
X114087676Y-79571428D02*
X114182914Y-79666666D01*
X114182914Y-79666666D02*
X114230533Y-79761904D01*
D11*
X140141503Y-76627657D02*
X140712931Y-76627657D01*
X140712931Y-76627657D02*
X140998646Y-76770514D01*
X140998646Y-76770514D02*
X141284360Y-77056228D01*
X141284360Y-77056228D02*
X141427217Y-77627657D01*
X141427217Y-77627657D02*
X141427217Y-78627657D01*
X141427217Y-78627657D02*
X141284360Y-79199085D01*
X141284360Y-79199085D02*
X140998646Y-79484800D01*
X140998646Y-79484800D02*
X140712931Y-79627657D01*
X140712931Y-79627657D02*
X140141503Y-79627657D01*
X140141503Y-79627657D02*
X139855789Y-79484800D01*
X139855789Y-79484800D02*
X139570074Y-79199085D01*
X139570074Y-79199085D02*
X139427217Y-78627657D01*
X139427217Y-78627657D02*
X139427217Y-77627657D01*
X139427217Y-77627657D02*
X139570074Y-77056228D01*
X139570074Y-77056228D02*
X139855789Y-76770514D01*
X139855789Y-76770514D02*
X140141503Y-76627657D01*
X144141503Y-79627657D02*
X142712931Y-79627657D01*
X142712931Y-79627657D02*
X142712931Y-76627657D01*
X145141502Y-78056228D02*
X146141502Y-78056228D01*
X146570074Y-79627657D02*
X145141502Y-79627657D01*
X145141502Y-79627657D02*
X145141502Y-76627657D01*
X145141502Y-76627657D02*
X146570074Y-76627657D01*
X147855788Y-79627657D02*
X147855788Y-76627657D01*
X147855788Y-76627657D02*
X148570074Y-76627657D01*
X148570074Y-76627657D02*
X148998645Y-76770514D01*
X148998645Y-76770514D02*
X149284360Y-77056228D01*
X149284360Y-77056228D02*
X149427217Y-77341942D01*
X149427217Y-77341942D02*
X149570074Y-77913371D01*
X149570074Y-77913371D02*
X149570074Y-78341942D01*
X149570074Y-78341942D02*
X149427217Y-78913371D01*
X149427217Y-78913371D02*
X149284360Y-79199085D01*
X149284360Y-79199085D02*
X148998645Y-79484800D01*
X148998645Y-79484800D02*
X148570074Y-79627657D01*
X148570074Y-79627657D02*
X147855788Y-79627657D01*
D10*
X95261905Y-109494819D02*
X95261905Y-108494819D01*
X95261905Y-108494819D02*
X95500000Y-108494819D01*
X95500000Y-108494819D02*
X95642857Y-108542438D01*
X95642857Y-108542438D02*
X95738095Y-108637676D01*
X95738095Y-108637676D02*
X95785714Y-108732914D01*
X95785714Y-108732914D02*
X95833333Y-108923390D01*
X95833333Y-108923390D02*
X95833333Y-109066247D01*
X95833333Y-109066247D02*
X95785714Y-109256723D01*
X95785714Y-109256723D02*
X95738095Y-109351961D01*
X95738095Y-109351961D02*
X95642857Y-109447200D01*
X95642857Y-109447200D02*
X95500000Y-109494819D01*
X95500000Y-109494819D02*
X95261905Y-109494819D01*
X96785714Y-109494819D02*
X96214286Y-109494819D01*
X96500000Y-109494819D02*
X96500000Y-108494819D01*
X96500000Y-108494819D02*
X96404762Y-108637676D01*
X96404762Y-108637676D02*
X96309524Y-108732914D01*
X96309524Y-108732914D02*
X96214286Y-108780533D01*
X189666667Y-71157200D02*
X189809524Y-71204819D01*
X189809524Y-71204819D02*
X190047619Y-71204819D01*
X190047619Y-71204819D02*
X190142857Y-71157200D01*
X190142857Y-71157200D02*
X190190476Y-71109580D01*
X190190476Y-71109580D02*
X190238095Y-71014342D01*
X190238095Y-71014342D02*
X190238095Y-70919104D01*
X190238095Y-70919104D02*
X190190476Y-70823866D01*
X190190476Y-70823866D02*
X190142857Y-70776247D01*
X190142857Y-70776247D02*
X190047619Y-70728628D01*
X190047619Y-70728628D02*
X189857143Y-70681009D01*
X189857143Y-70681009D02*
X189761905Y-70633390D01*
X189761905Y-70633390D02*
X189714286Y-70585771D01*
X189714286Y-70585771D02*
X189666667Y-70490533D01*
X189666667Y-70490533D02*
X189666667Y-70395295D01*
X189666667Y-70395295D02*
X189714286Y-70300057D01*
X189714286Y-70300057D02*
X189761905Y-70252438D01*
X189761905Y-70252438D02*
X189857143Y-70204819D01*
X189857143Y-70204819D02*
X190095238Y-70204819D01*
X190095238Y-70204819D02*
X190238095Y-70252438D01*
X190571429Y-70204819D02*
X190809524Y-71204819D01*
X190809524Y-71204819D02*
X191000000Y-70490533D01*
X191000000Y-70490533D02*
X191190476Y-71204819D01*
X191190476Y-71204819D02*
X191428572Y-70204819D01*
X191761905Y-70300057D02*
X191809524Y-70252438D01*
X191809524Y-70252438D02*
X191904762Y-70204819D01*
X191904762Y-70204819D02*
X192142857Y-70204819D01*
X192142857Y-70204819D02*
X192238095Y-70252438D01*
X192238095Y-70252438D02*
X192285714Y-70300057D01*
X192285714Y-70300057D02*
X192333333Y-70395295D01*
X192333333Y-70395295D02*
X192333333Y-70490533D01*
X192333333Y-70490533D02*
X192285714Y-70633390D01*
X192285714Y-70633390D02*
X191714286Y-71204819D01*
X191714286Y-71204819D02*
X192333333Y-71204819D01*
X189666667Y-107157200D02*
X189809524Y-107204819D01*
X189809524Y-107204819D02*
X190047619Y-107204819D01*
X190047619Y-107204819D02*
X190142857Y-107157200D01*
X190142857Y-107157200D02*
X190190476Y-107109580D01*
X190190476Y-107109580D02*
X190238095Y-107014342D01*
X190238095Y-107014342D02*
X190238095Y-106919104D01*
X190238095Y-106919104D02*
X190190476Y-106823866D01*
X190190476Y-106823866D02*
X190142857Y-106776247D01*
X190142857Y-106776247D02*
X190047619Y-106728628D01*
X190047619Y-106728628D02*
X189857143Y-106681009D01*
X189857143Y-106681009D02*
X189761905Y-106633390D01*
X189761905Y-106633390D02*
X189714286Y-106585771D01*
X189714286Y-106585771D02*
X189666667Y-106490533D01*
X189666667Y-106490533D02*
X189666667Y-106395295D01*
X189666667Y-106395295D02*
X189714286Y-106300057D01*
X189714286Y-106300057D02*
X189761905Y-106252438D01*
X189761905Y-106252438D02*
X189857143Y-106204819D01*
X189857143Y-106204819D02*
X190095238Y-106204819D01*
X190095238Y-106204819D02*
X190238095Y-106252438D01*
X190571429Y-106204819D02*
X190809524Y-107204819D01*
X190809524Y-107204819D02*
X191000000Y-106490533D01*
X191000000Y-106490533D02*
X191190476Y-107204819D01*
X191190476Y-107204819D02*
X191428572Y-106204819D01*
X192333333Y-107204819D02*
X191761905Y-107204819D01*
X192047619Y-107204819D02*
X192047619Y-106204819D01*
X192047619Y-106204819D02*
X191952381Y-106347676D01*
X191952381Y-106347676D02*
X191857143Y-106442914D01*
X191857143Y-106442914D02*
X191761905Y-106490533D01*
X95833333Y-105084819D02*
X95500000Y-104608628D01*
X95261905Y-105084819D02*
X95261905Y-104084819D01*
X95261905Y-104084819D02*
X95642857Y-104084819D01*
X95642857Y-104084819D02*
X95738095Y-104132438D01*
X95738095Y-104132438D02*
X95785714Y-104180057D01*
X95785714Y-104180057D02*
X95833333Y-104275295D01*
X95833333Y-104275295D02*
X95833333Y-104418152D01*
X95833333Y-104418152D02*
X95785714Y-104513390D01*
X95785714Y-104513390D02*
X95738095Y-104561009D01*
X95738095Y-104561009D02*
X95642857Y-104608628D01*
X95642857Y-104608628D02*
X95261905Y-104608628D01*
X96785714Y-105084819D02*
X96214286Y-105084819D01*
X96500000Y-105084819D02*
X96500000Y-104084819D01*
X96500000Y-104084819D02*
X96404762Y-104227676D01*
X96404762Y-104227676D02*
X96309524Y-104322914D01*
X96309524Y-104322914D02*
X96214286Y-104370533D01*
D12*
%TO.C,U1*%
X111990000Y-84280000D02*
X114990000Y-84280000D01*
X111990000Y-99350000D02*
X114990000Y-99350000D01*
X111990000Y-101720000D02*
X111990000Y-84280000D01*
X114990000Y-84280000D02*
X114990000Y-101720000D01*
X114990000Y-101720000D02*
X111990000Y-101720000D01*
D11*
X111390000Y-71400000D02*
X183390000Y-71400000D01*
X183390000Y-114600000D01*
X111390000Y-114600000D01*
X111390000Y-71400000D01*
D12*
%TO.C,D1*%
X94440000Y-110764000D02*
X94440000Y-110920000D01*
X94440000Y-113080000D02*
X94440000Y-113236000D01*
X94440000Y-110764484D02*
G75*
G02*
X97671397Y-110919939I1560000J-1235516D01*
G01*
X94959039Y-110920000D02*
G75*
G02*
X97040910Y-110919951I1040961J-1080000D01*
G01*
X97040910Y-113080049D02*
G75*
G02*
X94959039Y-113080000I-1040910J1080049D01*
G01*
X97671397Y-113080061D02*
G75*
G02*
X94440000Y-113235516I-1671397J1080061D01*
G01*
%TO.C,SW2*%
X187500000Y-74250000D02*
X187500000Y-75750000D01*
X188750000Y-78250000D02*
X193250000Y-78250000D01*
X193250000Y-71750000D02*
X188750000Y-71750000D01*
X194500000Y-75750000D02*
X194500000Y-74250000D01*
%TO.C,SW1*%
X187500000Y-110250000D02*
X187500000Y-111750000D01*
X188750000Y-114250000D02*
X193250000Y-114250000D01*
X193250000Y-107750000D02*
X188750000Y-107750000D01*
X194500000Y-111750000D02*
X194500000Y-110250000D01*
%TO.C,R1*%
X91960000Y-107000000D02*
X92730000Y-107000000D01*
X92730000Y-105630000D02*
X92730000Y-108370000D01*
X92730000Y-108370000D02*
X99270000Y-108370000D01*
X99270000Y-105630000D02*
X92730000Y-105630000D01*
X99270000Y-108370000D02*
X99270000Y-105630000D01*
X100040000Y-107000000D02*
X99270000Y-107000000D01*
%TD*%
M02*
