M48
; DRILL file {KiCad 9.0.3} date 2025-08-15T10:31:09+0200
; FORMAT={-:-/ absolute / inch / decimal}
; #@! TF.CreationDate,2025-08-15T10:31:09+02:00
; #@! TF.GenerationSoftware,Kicad,Pcbnew,9.0.3
; #@! TF.FileFunction,Plated,1,2,PTH
FMAT,2
INCH
; #@! TA.AperFunction,Plated,PTH,ComponentDrill
T1C0.0315
; #@! TA.AperFunction,Plated,PTH,ComponentDrill
T2C0.0354
; #@! TA.AperFunction,Plated,PTH,ComponentDrill
T3C0.0394
; #@! TA.AperFunction,Plated,PTH,ComponentDrill
T4C0.0433
%
G90
G05
T1
X3.5795Y-4.2126
X3.9795Y-4.2126
X4.4681Y-3.3614
X4.4681Y-3.4614
X4.4681Y-3.5614
X4.4681Y-3.6614
X4.4681Y-3.7614
X4.4681Y-3.8614
X4.4681Y-3.9614
T2
X3.7295Y-4.4094
X3.8295Y-4.4094
T3
X3.4646Y-3.4614
X3.4646Y-3.5614
X3.4646Y-3.6614
X3.4646Y-3.7614
X3.4646Y-3.8614
X3.5646Y-3.4614
X3.5646Y-3.5614
X3.5646Y-3.6614
X3.5646Y-3.7614
X3.5646Y-3.8614
T4
X7.3917Y-2.8642
X7.3917Y-3.0413
X7.3917Y-4.2815
X7.3917Y-4.4587
X7.6476Y-2.8642
X7.6476Y-3.0413
X7.6476Y-4.2815
X7.6476Y-4.4587
M30
